%FSLAX45Y45*%
G04 Gerber Fmt 4.5, Leading zero omitted, Abs format (unit mm)*
G04 Created by KiCad (PCBNEW 5.1.10) date 2021-10-31 13:48:07*
%MOMM*%
%LPD*%
G01*
G04 APERTURE LIST*
%TA.AperFunction,Profile*%
%ADD10C,0.050000*%
%TD*%
%ADD11C,0.200000*%
%ADD12C,0.300000*%
G04 APERTURE END LIST*
D10*
X18180000Y-12500000D02*
G75*
G03*
X18180000Y-12500000I-400000J0D01*
G01*
X18180000Y-4000000D02*
G75*
G03*
X18180000Y-4000000I-400000J0D01*
G01*
X4700000Y-4000000D02*
G75*
G03*
X4700000Y-4000000I-400000J0D01*
G01*
X4700000Y-12500000D02*
G75*
G03*
X4700000Y-12500000I-400000J0D01*
G01*
X18556000Y-3302000D02*
X18556000Y-13302000D01*
X3556000Y-13302000D02*
X18556000Y-13302000D01*
X3556000Y-3302000D02*
X3556000Y-13302000D01*
X3556000Y-3302000D02*
X18556000Y-3302000D01*
D11*
D12*
X3839928Y-13770214D02*
X3839928Y-13470214D01*
X3911357Y-13470214D01*
X3954214Y-13484500D01*
X3982786Y-13513071D01*
X3997071Y-13541643D01*
X4011357Y-13598786D01*
X4011357Y-13641643D01*
X3997071Y-13698786D01*
X3982786Y-13727357D01*
X3954214Y-13755929D01*
X3911357Y-13770214D01*
X3839928Y-13770214D01*
X4139928Y-13770214D02*
X4139928Y-13570214D01*
X4139928Y-13627357D02*
X4154214Y-13598786D01*
X4168500Y-13584500D01*
X4197071Y-13570214D01*
X4225643Y-13570214D01*
X4325643Y-13770214D02*
X4325643Y-13570214D01*
X4325643Y-13470214D02*
X4311357Y-13484500D01*
X4325643Y-13498786D01*
X4339928Y-13484500D01*
X4325643Y-13470214D01*
X4325643Y-13498786D01*
X4511357Y-13770214D02*
X4482786Y-13755929D01*
X4468500Y-13727357D01*
X4468500Y-13470214D01*
X4668500Y-13770214D02*
X4639928Y-13755929D01*
X4625643Y-13727357D01*
X4625643Y-13470214D01*
X5011357Y-13770214D02*
X5011357Y-13470214D01*
X5111357Y-13684500D01*
X5211357Y-13470214D01*
X5211357Y-13770214D01*
X5482786Y-13770214D02*
X5482786Y-13613071D01*
X5468500Y-13584500D01*
X5439928Y-13570214D01*
X5382786Y-13570214D01*
X5354214Y-13584500D01*
X5482786Y-13755929D02*
X5454214Y-13770214D01*
X5382786Y-13770214D01*
X5354214Y-13755929D01*
X5339928Y-13727357D01*
X5339928Y-13698786D01*
X5354214Y-13670214D01*
X5382786Y-13655929D01*
X5454214Y-13655929D01*
X5482786Y-13641643D01*
X5625643Y-13570214D02*
X5625643Y-13870214D01*
X5625643Y-13584500D02*
X5654214Y-13570214D01*
X5711357Y-13570214D01*
X5739928Y-13584500D01*
X5754214Y-13598786D01*
X5768500Y-13627357D01*
X5768500Y-13713071D01*
X5754214Y-13741643D01*
X5739928Y-13755929D01*
X5711357Y-13770214D01*
X5654214Y-13770214D01*
X5625643Y-13755929D01*
X5897071Y-13741643D02*
X5911357Y-13755929D01*
X5897071Y-13770214D01*
X5882786Y-13755929D01*
X5897071Y-13741643D01*
X5897071Y-13770214D01*
X5897071Y-13584500D02*
X5911357Y-13598786D01*
X5897071Y-13613071D01*
X5882786Y-13598786D01*
X5897071Y-13584500D01*
X5897071Y-13613071D01*
M02*
