%TF.GenerationSoftware,KiCad,Pcbnew,5.1.10*%
%TF.CreationDate,2021-10-31T13:45:51+01:00*%
%TF.ProjectId,binaryclock,62696e61-7279-4636-9c6f-636b2e6b6963,rev?*%
%TF.SameCoordinates,Original*%
%TF.FileFunction,Soldermask,Top*%
%TF.FilePolarity,Negative*%
%FSLAX46Y46*%
G04 Gerber Fmt 4.6, Leading zero omitted, Abs format (unit mm)*
G04 Created by KiCad (PCBNEW 5.1.10) date 2021-10-31 13:45:51*
%MOMM*%
%LPD*%
G01*
G04 APERTURE LIST*
%ADD10O,1.700000X1.700000*%
%ADD11C,1.700000*%
%ADD12C,1.600000*%
%ADD13R,1.600000X1.600000*%
%ADD14R,1.800000X1.800000*%
%ADD15O,1.800000X1.800000*%
%ADD16R,1.500000X1.000000*%
%ADD17O,4.000000X1.800000*%
%ADD18O,1.800000X4.000000*%
%ADD19R,1.800000X4.400000*%
%ADD20C,3.000000*%
%ADD21R,3.000000X3.000000*%
%ADD22O,1.600000X1.600000*%
%ADD23O,2.000000X1.600000*%
%ADD24R,2.000000X2.000000*%
G04 APERTURE END LIST*
D10*
%TO.C,J5*%
X71120000Y-86360000D03*
X73660000Y-86360000D03*
X76200000Y-86360000D03*
X78740000Y-86360000D03*
X81280000Y-86360000D03*
D11*
X83820000Y-86360000D03*
%TD*%
D12*
%TO.C,C1*%
X50840000Y-96520000D03*
D13*
X53340000Y-96520000D03*
%TD*%
%TO.C,C2*%
X60960000Y-83820000D03*
D12*
X60960000Y-86320000D03*
%TD*%
D14*
%TO.C,D1*%
X53340000Y-83820000D03*
D15*
X53340000Y-91440000D03*
%TD*%
D16*
%TO.C,D2*%
X162650000Y-51740000D03*
X162650000Y-54940000D03*
X167550000Y-51740000D03*
X167550000Y-54940000D03*
%TD*%
%TO.C,D3*%
X152310000Y-54940000D03*
X152310000Y-51740000D03*
X147410000Y-54940000D03*
X147410000Y-51740000D03*
%TD*%
%TO.C,D4*%
X137070000Y-54940000D03*
X137070000Y-51740000D03*
X132170000Y-54940000D03*
X132170000Y-51740000D03*
%TD*%
%TO.C,D5*%
X116930000Y-51740000D03*
X116930000Y-54940000D03*
X121830000Y-51740000D03*
X121830000Y-54940000D03*
%TD*%
%TO.C,D6*%
X101690000Y-51740000D03*
X101690000Y-54940000D03*
X106590000Y-51740000D03*
X106590000Y-54940000D03*
%TD*%
%TO.C,D7*%
X91350000Y-54940000D03*
X91350000Y-51740000D03*
X86450000Y-54940000D03*
X86450000Y-51740000D03*
%TD*%
%TO.C,D8*%
X162650000Y-69520000D03*
X162650000Y-72720000D03*
X167550000Y-69520000D03*
X167550000Y-72720000D03*
%TD*%
%TO.C,D9*%
X147410000Y-69520000D03*
X147410000Y-72720000D03*
X152310000Y-69520000D03*
X152310000Y-72720000D03*
%TD*%
%TO.C,D10*%
X137070000Y-72720000D03*
X137070000Y-69520000D03*
X132170000Y-72720000D03*
X132170000Y-69520000D03*
%TD*%
%TO.C,D11*%
X116930000Y-69520000D03*
X116930000Y-72720000D03*
X121830000Y-69520000D03*
X121830000Y-72720000D03*
%TD*%
%TO.C,D12*%
X106590000Y-72720000D03*
X106590000Y-69520000D03*
X101690000Y-72720000D03*
X101690000Y-69520000D03*
%TD*%
%TO.C,D13*%
X86450000Y-69520000D03*
X86450000Y-72720000D03*
X91350000Y-69520000D03*
X91350000Y-72720000D03*
%TD*%
%TO.C,D14*%
X167550000Y-90500000D03*
X167550000Y-87300000D03*
X162650000Y-90500000D03*
X162650000Y-87300000D03*
%TD*%
%TO.C,D15*%
X147410000Y-87300000D03*
X147410000Y-90500000D03*
X152310000Y-87300000D03*
X152310000Y-90500000D03*
%TD*%
%TO.C,D16*%
X137070000Y-90500000D03*
X137070000Y-87300000D03*
X132170000Y-90500000D03*
X132170000Y-87300000D03*
%TD*%
%TO.C,D17*%
X121830000Y-90500000D03*
X121830000Y-87300000D03*
X116930000Y-90500000D03*
X116930000Y-87300000D03*
%TD*%
%TO.C,D18*%
X106590000Y-90500000D03*
X106590000Y-87300000D03*
X101690000Y-90500000D03*
X101690000Y-87300000D03*
%TD*%
%TO.C,D19*%
X162650000Y-105080000D03*
X162650000Y-108280000D03*
X167550000Y-105080000D03*
X167550000Y-108280000D03*
%TD*%
%TO.C,D20*%
X152310000Y-108280000D03*
X152310000Y-105080000D03*
X147410000Y-108280000D03*
X147410000Y-105080000D03*
%TD*%
%TO.C,D21*%
X132170000Y-105080000D03*
X132170000Y-108280000D03*
X137070000Y-105080000D03*
X137070000Y-108280000D03*
%TD*%
%TO.C,D22*%
X121830000Y-108280000D03*
X121830000Y-105080000D03*
X116930000Y-108280000D03*
X116930000Y-105080000D03*
%TD*%
%TO.C,D23*%
X101690000Y-105080000D03*
X101690000Y-108280000D03*
X106590000Y-105080000D03*
X106590000Y-108280000D03*
%TD*%
%TO.C,D24*%
X162650000Y-122860000D03*
X162650000Y-126060000D03*
X167550000Y-122860000D03*
X167550000Y-126060000D03*
%TD*%
%TO.C,D25*%
X152310000Y-126060000D03*
X152310000Y-122860000D03*
X147410000Y-126060000D03*
X147410000Y-122860000D03*
%TD*%
%TO.C,D26*%
X137070000Y-126060000D03*
X137070000Y-122860000D03*
X132170000Y-126060000D03*
X132170000Y-122860000D03*
%TD*%
%TO.C,D27*%
X116930000Y-122860000D03*
X116930000Y-126060000D03*
X121830000Y-122860000D03*
X121830000Y-126060000D03*
%TD*%
D17*
%TO.C,J1*%
X50340000Y-114553400D03*
D18*
X47540000Y-109753400D03*
D19*
X53340000Y-109753400D03*
%TD*%
D20*
%TO.C,J2*%
X43180000Y-86360000D03*
D21*
X43180000Y-91440000D03*
%TD*%
D10*
%TO.C,J3*%
X68580000Y-66040000D03*
X68580000Y-63500000D03*
X68580000Y-60960000D03*
X68580000Y-58420000D03*
X68580000Y-55880000D03*
D11*
X68580000Y-53340000D03*
%TD*%
%TO.C,J4*%
X78740000Y-66040000D03*
D10*
X78740000Y-63500000D03*
X78740000Y-60960000D03*
X78740000Y-58420000D03*
X78740000Y-55880000D03*
X78740000Y-53340000D03*
%TD*%
D12*
%TO.C,R1*%
X78740000Y-41910000D03*
D22*
X78740000Y-49530000D03*
%TD*%
D23*
%TO.C,U1*%
X38100000Y-55880000D03*
D24*
X38100000Y-53340000D03*
D23*
X38100000Y-58420000D03*
X38100000Y-60960000D03*
X38100000Y-63500000D03*
X38100000Y-66040000D03*
X38100000Y-68580000D03*
X38100000Y-71120000D03*
X60960000Y-71120000D03*
X60960000Y-68580000D03*
X60960000Y-66040000D03*
X60960000Y-63500000D03*
X60960000Y-60960000D03*
X60960000Y-58420000D03*
X60960000Y-55880000D03*
X60960000Y-53340000D03*
%TD*%
M02*
