M48
; DRILL file {KiCad 5.1.10} date Sun Oct 31 13:47:39 2021
; FORMAT={-:-/ absolute / metric / decimal}
; #@! TF.CreationDate,2021-10-31T13:47:39+01:00
; #@! TF.GenerationSoftware,Kicad,Pcbnew,5.1.10
; #@! TF.FileFunction,Plated,1,2,PTH
FMAT,2
METRIC
T1C0.400
T2C0.800
T3C0.900
T4C1.000
T5C1.520
%
G90
G05
T1
X93.98Y-45.72
X93.98Y-55.88
X93.98Y-63.5
X93.98Y-73.66
X93.98Y-81.28
X109.22Y-55.88
X109.22Y-73.66
X109.22Y-91.44
X109.22Y-99.06
X109.22Y-109.22
X109.22Y-116.84
X124.46Y-55.88
X124.46Y-73.66
X124.46Y-91.44
X124.46Y-109.22
X124.46Y-127.0
X139.7Y-55.88
X139.7Y-73.66
X139.7Y-91.44
X139.7Y-109.22
X139.7Y-127.0
X154.94Y-55.88
X154.94Y-73.66
X154.94Y-91.44
X154.94Y-109.22
X154.94Y-127.0
X162.56Y-45.72
X162.56Y-63.5
X162.56Y-81.28
X162.56Y-99.06
X162.56Y-116.84
X170.18Y-55.88
X170.18Y-73.66
X170.18Y-91.44
X170.18Y-109.22
X170.18Y-127.0
T2
X50.84Y-96.52
X53.34Y-96.52
X60.96Y-83.82
X60.96Y-86.32
X78.74Y-41.91
X78.74Y-49.53
T3
X53.34Y-83.82
X53.34Y-91.44
T4
X38.1Y-53.34
X38.1Y-55.88
X38.1Y-58.42
X38.1Y-60.96
X38.1Y-63.5
X38.1Y-66.04
X38.1Y-68.58
X38.1Y-71.12
X60.96Y-53.34
X60.96Y-55.88
X60.96Y-58.42
X60.96Y-60.96
X60.96Y-63.5
X60.96Y-66.04
X60.96Y-68.58
X60.96Y-71.12
X68.58Y-53.34
X68.58Y-55.88
X68.58Y-58.42
X68.58Y-60.96
X68.58Y-63.5
X68.58Y-66.04
X71.12Y-86.36
X73.66Y-86.36
X76.2Y-86.36
X78.74Y-53.34
X78.74Y-55.88
X78.74Y-58.42
X78.74Y-60.96
X78.74Y-63.5
X78.74Y-66.04
X78.74Y-86.36
X81.28Y-86.36
X83.82Y-86.36
T5
X43.18Y-86.36
X43.18Y-91.44
T2
X47.54Y-108.653G85X47.54Y-110.853
G05
X49.24Y-114.553G85X51.44Y-114.553
G05
X53.34Y-108.453G85X53.34Y-111.053
G05
T0
M30
