%TF.GenerationSoftware,KiCad,Pcbnew,5.1.10*%
%TF.CreationDate,2021-10-31T13:45:51+01:00*%
%TF.ProjectId,binaryclock,62696e61-7279-4636-9c6f-636b2e6b6963,rev?*%
%TF.SameCoordinates,Original*%
%TF.FileFunction,Paste,Top*%
%TF.FilePolarity,Positive*%
%FSLAX46Y46*%
G04 Gerber Fmt 4.6, Leading zero omitted, Abs format (unit mm)*
G04 Created by KiCad (PCBNEW 5.1.10) date 2021-10-31 13:45:51*
%MOMM*%
%LPD*%
G01*
G04 APERTURE LIST*
%ADD10R,1.500000X1.000000*%
G04 APERTURE END LIST*
D10*
%TO.C,D2*%
X162650000Y-51740000D03*
X162650000Y-54940000D03*
X167550000Y-51740000D03*
X167550000Y-54940000D03*
%TD*%
%TO.C,D3*%
X152310000Y-54940000D03*
X152310000Y-51740000D03*
X147410000Y-54940000D03*
X147410000Y-51740000D03*
%TD*%
%TO.C,D4*%
X137070000Y-54940000D03*
X137070000Y-51740000D03*
X132170000Y-54940000D03*
X132170000Y-51740000D03*
%TD*%
%TO.C,D5*%
X116930000Y-51740000D03*
X116930000Y-54940000D03*
X121830000Y-51740000D03*
X121830000Y-54940000D03*
%TD*%
%TO.C,D6*%
X101690000Y-51740000D03*
X101690000Y-54940000D03*
X106590000Y-51740000D03*
X106590000Y-54940000D03*
%TD*%
%TO.C,D7*%
X91350000Y-54940000D03*
X91350000Y-51740000D03*
X86450000Y-54940000D03*
X86450000Y-51740000D03*
%TD*%
%TO.C,D8*%
X162650000Y-69520000D03*
X162650000Y-72720000D03*
X167550000Y-69520000D03*
X167550000Y-72720000D03*
%TD*%
%TO.C,D9*%
X147410000Y-69520000D03*
X147410000Y-72720000D03*
X152310000Y-69520000D03*
X152310000Y-72720000D03*
%TD*%
%TO.C,D10*%
X137070000Y-72720000D03*
X137070000Y-69520000D03*
X132170000Y-72720000D03*
X132170000Y-69520000D03*
%TD*%
%TO.C,D11*%
X116930000Y-69520000D03*
X116930000Y-72720000D03*
X121830000Y-69520000D03*
X121830000Y-72720000D03*
%TD*%
%TO.C,D12*%
X106590000Y-72720000D03*
X106590000Y-69520000D03*
X101690000Y-72720000D03*
X101690000Y-69520000D03*
%TD*%
%TO.C,D13*%
X86450000Y-69520000D03*
X86450000Y-72720000D03*
X91350000Y-69520000D03*
X91350000Y-72720000D03*
%TD*%
%TO.C,D14*%
X167550000Y-90500000D03*
X167550000Y-87300000D03*
X162650000Y-90500000D03*
X162650000Y-87300000D03*
%TD*%
%TO.C,D15*%
X147410000Y-87300000D03*
X147410000Y-90500000D03*
X152310000Y-87300000D03*
X152310000Y-90500000D03*
%TD*%
%TO.C,D16*%
X137070000Y-90500000D03*
X137070000Y-87300000D03*
X132170000Y-90500000D03*
X132170000Y-87300000D03*
%TD*%
%TO.C,D17*%
X121830000Y-90500000D03*
X121830000Y-87300000D03*
X116930000Y-90500000D03*
X116930000Y-87300000D03*
%TD*%
%TO.C,D18*%
X106590000Y-90500000D03*
X106590000Y-87300000D03*
X101690000Y-90500000D03*
X101690000Y-87300000D03*
%TD*%
%TO.C,D19*%
X162650000Y-105080000D03*
X162650000Y-108280000D03*
X167550000Y-105080000D03*
X167550000Y-108280000D03*
%TD*%
%TO.C,D20*%
X152310000Y-108280000D03*
X152310000Y-105080000D03*
X147410000Y-108280000D03*
X147410000Y-105080000D03*
%TD*%
%TO.C,D21*%
X132170000Y-105080000D03*
X132170000Y-108280000D03*
X137070000Y-105080000D03*
X137070000Y-108280000D03*
%TD*%
%TO.C,D22*%
X121830000Y-108280000D03*
X121830000Y-105080000D03*
X116930000Y-108280000D03*
X116930000Y-105080000D03*
%TD*%
%TO.C,D23*%
X101690000Y-105080000D03*
X101690000Y-108280000D03*
X106590000Y-105080000D03*
X106590000Y-108280000D03*
%TD*%
%TO.C,D24*%
X162650000Y-122860000D03*
X162650000Y-126060000D03*
X167550000Y-122860000D03*
X167550000Y-126060000D03*
%TD*%
%TO.C,D25*%
X152310000Y-126060000D03*
X152310000Y-122860000D03*
X147410000Y-126060000D03*
X147410000Y-122860000D03*
%TD*%
%TO.C,D26*%
X137070000Y-126060000D03*
X137070000Y-122860000D03*
X132170000Y-126060000D03*
X132170000Y-122860000D03*
%TD*%
%TO.C,D27*%
X116930000Y-122860000D03*
X116930000Y-126060000D03*
X121830000Y-122860000D03*
X121830000Y-126060000D03*
%TD*%
M02*
