%TF.GenerationSoftware,KiCad,Pcbnew,5.1.10*%
%TF.CreationDate,2021-10-31T13:45:51+01:00*%
%TF.ProjectId,binaryclock,62696e61-7279-4636-9c6f-636b2e6b6963,rev?*%
%TF.SameCoordinates,Original*%
%TF.FileFunction,Copper,L2,Bot*%
%TF.FilePolarity,Positive*%
%FSLAX46Y46*%
G04 Gerber Fmt 4.6, Leading zero omitted, Abs format (unit mm)*
G04 Created by KiCad (PCBNEW 5.1.10) date 2021-10-31 13:45:51*
%MOMM*%
%LPD*%
G01*
G04 APERTURE LIST*
%TA.AperFunction,ComponentPad*%
%ADD10O,1.700000X1.700000*%
%TD*%
%TA.AperFunction,ComponentPad*%
%ADD11C,1.700000*%
%TD*%
%TA.AperFunction,ComponentPad*%
%ADD12C,1.600000*%
%TD*%
%TA.AperFunction,ComponentPad*%
%ADD13R,1.600000X1.600000*%
%TD*%
%TA.AperFunction,ComponentPad*%
%ADD14R,1.800000X1.800000*%
%TD*%
%TA.AperFunction,ComponentPad*%
%ADD15O,1.800000X1.800000*%
%TD*%
%TA.AperFunction,ComponentPad*%
%ADD16O,4.000000X1.800000*%
%TD*%
%TA.AperFunction,ComponentPad*%
%ADD17O,1.800000X4.000000*%
%TD*%
%TA.AperFunction,ComponentPad*%
%ADD18R,1.800000X4.400000*%
%TD*%
%TA.AperFunction,ComponentPad*%
%ADD19C,3.000000*%
%TD*%
%TA.AperFunction,ComponentPad*%
%ADD20R,3.000000X3.000000*%
%TD*%
%TA.AperFunction,ComponentPad*%
%ADD21O,1.600000X1.600000*%
%TD*%
%TA.AperFunction,ComponentPad*%
%ADD22O,2.000000X1.600000*%
%TD*%
%TA.AperFunction,ComponentPad*%
%ADD23R,2.000000X2.000000*%
%TD*%
%TA.AperFunction,ViaPad*%
%ADD24C,0.800000*%
%TD*%
%TA.AperFunction,Conductor*%
%ADD25C,0.500000*%
%TD*%
%TA.AperFunction,Conductor*%
%ADD26C,0.254000*%
%TD*%
%TA.AperFunction,Conductor*%
%ADD27C,0.150000*%
%TD*%
G04 APERTURE END LIST*
D10*
%TO.P,J5,6*%
%TO.N,GND*%
X71120000Y-86360000D03*
%TO.P,J5,5*%
%TO.N,+3V3*%
X73660000Y-86360000D03*
%TO.P,J5,4*%
%TO.N,SDA*%
X76200000Y-86360000D03*
%TO.P,J5,3*%
%TO.N,SCL*%
X78740000Y-86360000D03*
%TO.P,J5,2*%
%TO.N,Net-(J5-Pad2)*%
X81280000Y-86360000D03*
D11*
%TO.P,J5,1*%
%TO.N,Net-(J5-Pad1)*%
X83820000Y-86360000D03*
%TD*%
D12*
%TO.P,C1,2*%
%TO.N,GND*%
X50840000Y-96520000D03*
D13*
%TO.P,C1,1*%
%TO.N,+5V*%
X53340000Y-96520000D03*
%TD*%
%TO.P,C2,1*%
%TO.N,+3V3*%
X60960000Y-83820000D03*
D12*
%TO.P,C2,2*%
%TO.N,GND*%
X60960000Y-86320000D03*
%TD*%
D14*
%TO.P,D1,1*%
%TO.N,Net-(D1-Pad1)*%
X53340000Y-83820000D03*
D15*
%TO.P,D1,2*%
%TO.N,+5V*%
X53340000Y-91440000D03*
%TD*%
D16*
%TO.P,J1,3*%
%TO.N,N/C*%
X50340000Y-114553400D03*
D17*
%TO.P,J1,2*%
%TO.N,GND*%
X47540000Y-109753400D03*
D18*
%TO.P,J1,1*%
%TO.N,+5V*%
X53340000Y-109753400D03*
%TD*%
D19*
%TO.P,J2,1*%
%TO.N,GND*%
X43180000Y-86360000D03*
D20*
%TO.P,J2,2*%
%TO.N,+5V*%
X43180000Y-91440000D03*
%TD*%
D10*
%TO.P,J3,6*%
%TO.N,Net-(J3-Pad6)*%
X68580000Y-66040000D03*
%TO.P,J3,5*%
%TO.N,Net-(J3-Pad5)*%
X68580000Y-63500000D03*
%TO.P,J3,4*%
%TO.N,GND*%
X68580000Y-60960000D03*
%TO.P,J3,3*%
%TO.N,+3V3*%
X68580000Y-58420000D03*
%TO.P,J3,2*%
%TO.N,Net-(J3-Pad2)*%
X68580000Y-55880000D03*
D11*
%TO.P,J3,1*%
%TO.N,LV_LED*%
X68580000Y-53340000D03*
%TD*%
%TO.P,J4,1*%
%TO.N,Net-(J4-Pad1)*%
X78740000Y-66040000D03*
D10*
%TO.P,J4,2*%
%TO.N,Net-(J4-Pad2)*%
X78740000Y-63500000D03*
%TO.P,J4,3*%
%TO.N,GND*%
X78740000Y-60960000D03*
%TO.P,J4,4*%
%TO.N,+5V*%
X78740000Y-58420000D03*
%TO.P,J4,5*%
%TO.N,Net-(J4-Pad5)*%
X78740000Y-55880000D03*
%TO.P,J4,6*%
%TO.N,HV_LED*%
X78740000Y-53340000D03*
%TD*%
D12*
%TO.P,R1,1*%
%TO.N,Net-(D2-Pad4)*%
X78740000Y-41910000D03*
D21*
%TO.P,R1,2*%
%TO.N,HV_LED*%
X78740000Y-49530000D03*
%TD*%
D22*
%TO.P,U1,2*%
%TO.N,Net-(U1-Pad2)*%
X38100000Y-55880000D03*
D23*
%TO.P,U1,1*%
%TO.N,Net-(U1-Pad1)*%
X38100000Y-53340000D03*
D22*
%TO.P,U1,3*%
%TO.N,Net-(U1-Pad3)*%
X38100000Y-58420000D03*
%TO.P,U1,4*%
%TO.N,LV_LED*%
X38100000Y-60960000D03*
%TO.P,U1,5*%
%TO.N,Net-(U1-Pad5)*%
X38100000Y-63500000D03*
%TO.P,U1,6*%
%TO.N,Net-(U1-Pad6)*%
X38100000Y-66040000D03*
%TO.P,U1,7*%
%TO.N,Net-(U1-Pad7)*%
X38100000Y-68580000D03*
%TO.P,U1,8*%
%TO.N,+3V3*%
X38100000Y-71120000D03*
%TO.P,U1,9*%
%TO.N,Net-(D1-Pad1)*%
X60960000Y-71120000D03*
%TO.P,U1,10*%
%TO.N,GND*%
X60960000Y-68580000D03*
%TO.P,U1,11*%
%TO.N,Net-(U1-Pad11)*%
X60960000Y-66040000D03*
%TO.P,U1,12*%
%TO.N,Net-(U1-Pad12)*%
X60960000Y-63500000D03*
%TO.P,U1,13*%
%TO.N,SDA*%
X60960000Y-60960000D03*
%TO.P,U1,14*%
%TO.N,SCL*%
X60960000Y-58420000D03*
%TO.P,U1,15*%
%TO.N,Net-(U1-Pad15)*%
X60960000Y-55880000D03*
%TO.P,U1,16*%
%TO.N,Net-(U1-Pad16)*%
X60960000Y-53340000D03*
%TD*%
D24*
%TO.N,GND*%
X170180000Y-55880000D03*
X154940000Y-55880000D03*
X139700000Y-55880000D03*
X124460000Y-55880000D03*
X109220000Y-55880000D03*
X93980000Y-55880000D03*
X93980000Y-73660000D03*
X109220000Y-73660000D03*
X124460000Y-73660000D03*
X139700000Y-73660000D03*
X154940000Y-73660000D03*
X170180000Y-73660000D03*
X170180000Y-91440000D03*
X154940000Y-91440000D03*
X139700000Y-91440000D03*
X124460000Y-91440000D03*
X109220000Y-91440000D03*
X109220000Y-109220000D03*
X124460000Y-109220000D03*
X139700000Y-109220000D03*
X154940000Y-109220000D03*
X170180000Y-109220000D03*
X170180000Y-127000000D03*
X154940000Y-127000000D03*
X139700000Y-127000000D03*
X124460000Y-127000000D03*
%TO.N,Net-(D2-Pad4)*%
X162560000Y-45720000D03*
X93980000Y-45720000D03*
%TO.N,minutes*%
X93980000Y-63500000D03*
X162560000Y-63500000D03*
%TO.N,hours*%
X93980000Y-81280000D03*
X162560000Y-81280000D03*
%TO.N,days*%
X109220000Y-99060000D03*
X162560000Y-99060000D03*
%TO.N,month*%
X109220000Y-116840000D03*
X162560000Y-116840000D03*
%TD*%
D25*
%TO.N,Net-(D2-Pad4)*%
X162560000Y-45720000D02*
X93980000Y-45720000D01*
%TO.N,minutes*%
X93980000Y-63500000D02*
X162560000Y-63500000D01*
%TO.N,hours*%
X93980000Y-81280000D02*
X162560000Y-81280000D01*
%TO.N,days*%
X109220000Y-99060000D02*
X162560000Y-99060000D01*
%TO.N,month*%
X109220000Y-116840000D02*
X162560000Y-116840000D01*
%TO.N,SDA*%
X76200000Y-86360000D02*
X76200000Y-81280000D01*
X76200000Y-81280000D02*
X63500000Y-68580000D01*
X63500000Y-68580000D02*
X63500000Y-63500000D01*
X63500000Y-63500000D02*
X60960000Y-60960000D01*
%TO.N,SCL*%
X60960000Y-58420000D02*
X66040000Y-63500000D01*
X66040000Y-63500000D02*
X66040000Y-68580000D01*
X78740000Y-81280000D02*
X78740000Y-86360000D01*
X66040000Y-68580000D02*
X78740000Y-81280000D01*
%TD*%
D26*
%TO.N,GND*%
X184900001Y-132360000D02*
X36220000Y-132360000D01*
X36220000Y-124541280D01*
X38342535Y-124541280D01*
X38342535Y-125458720D01*
X38521519Y-126358532D01*
X38872608Y-127206137D01*
X39382311Y-127968961D01*
X40031039Y-128617689D01*
X40793863Y-129127392D01*
X41641468Y-129478481D01*
X42541280Y-129657465D01*
X43458720Y-129657465D01*
X44358532Y-129478481D01*
X45206137Y-129127392D01*
X45968961Y-128617689D01*
X46617689Y-127968961D01*
X47127392Y-127206137D01*
X47478481Y-126358532D01*
X47657465Y-125458720D01*
X47657465Y-124541280D01*
X173142535Y-124541280D01*
X173142535Y-125458720D01*
X173321519Y-126358532D01*
X173672608Y-127206137D01*
X174182311Y-127968961D01*
X174831039Y-128617689D01*
X175593863Y-129127392D01*
X176441468Y-129478481D01*
X177341280Y-129657465D01*
X178258720Y-129657465D01*
X179158532Y-129478481D01*
X180006137Y-129127392D01*
X180768961Y-128617689D01*
X181417689Y-127968961D01*
X181927392Y-127206137D01*
X182278481Y-126358532D01*
X182457465Y-125458720D01*
X182457465Y-124541280D01*
X182278481Y-123641468D01*
X181927392Y-122793863D01*
X181417689Y-122031039D01*
X180768961Y-121382311D01*
X180006137Y-120872608D01*
X179158532Y-120521519D01*
X178258720Y-120342535D01*
X177341280Y-120342535D01*
X176441468Y-120521519D01*
X175593863Y-120872608D01*
X174831039Y-121382311D01*
X174182311Y-122031039D01*
X173672608Y-122793863D01*
X173321519Y-123641468D01*
X173142535Y-124541280D01*
X47657465Y-124541280D01*
X47478481Y-123641468D01*
X47127392Y-122793863D01*
X46617689Y-122031039D01*
X45968961Y-121382311D01*
X45206137Y-120872608D01*
X44358532Y-120521519D01*
X43458720Y-120342535D01*
X42541280Y-120342535D01*
X41641468Y-120521519D01*
X40793863Y-120872608D01*
X40031039Y-121382311D01*
X39382311Y-122031039D01*
X38872608Y-122793863D01*
X38521519Y-123641468D01*
X38342535Y-124541280D01*
X36220000Y-124541280D01*
X36220000Y-116738061D01*
X108185000Y-116738061D01*
X108185000Y-116941939D01*
X108224774Y-117141898D01*
X108302795Y-117330256D01*
X108416063Y-117499774D01*
X108560226Y-117643937D01*
X108729744Y-117757205D01*
X108918102Y-117835226D01*
X109118061Y-117875000D01*
X109321939Y-117875000D01*
X109521898Y-117835226D01*
X109710256Y-117757205D01*
X109758454Y-117725000D01*
X162021546Y-117725000D01*
X162069744Y-117757205D01*
X162258102Y-117835226D01*
X162458061Y-117875000D01*
X162661939Y-117875000D01*
X162861898Y-117835226D01*
X163050256Y-117757205D01*
X163219774Y-117643937D01*
X163363937Y-117499774D01*
X163477205Y-117330256D01*
X163555226Y-117141898D01*
X163595000Y-116941939D01*
X163595000Y-116738061D01*
X163555226Y-116538102D01*
X163477205Y-116349744D01*
X163363937Y-116180226D01*
X163219774Y-116036063D01*
X163050256Y-115922795D01*
X162861898Y-115844774D01*
X162661939Y-115805000D01*
X162458061Y-115805000D01*
X162258102Y-115844774D01*
X162069744Y-115922795D01*
X162021546Y-115955000D01*
X109758454Y-115955000D01*
X109710256Y-115922795D01*
X109521898Y-115844774D01*
X109321939Y-115805000D01*
X109118061Y-115805000D01*
X108918102Y-115844774D01*
X108729744Y-115922795D01*
X108560226Y-116036063D01*
X108416063Y-116180226D01*
X108302795Y-116349744D01*
X108224774Y-116538102D01*
X108185000Y-116738061D01*
X36220000Y-116738061D01*
X36220000Y-114553400D01*
X47697573Y-114553400D01*
X47727210Y-114854313D01*
X47814983Y-115143661D01*
X47957519Y-115410327D01*
X48149339Y-115644061D01*
X48383073Y-115835881D01*
X48649739Y-115978417D01*
X48939087Y-116066190D01*
X49164592Y-116088400D01*
X51515408Y-116088400D01*
X51740913Y-116066190D01*
X52030261Y-115978417D01*
X52296927Y-115835881D01*
X52530661Y-115644061D01*
X52722481Y-115410327D01*
X52865017Y-115143661D01*
X52952790Y-114854313D01*
X52982427Y-114553400D01*
X52952790Y-114252487D01*
X52865017Y-113963139D01*
X52722481Y-113696473D01*
X52530661Y-113462739D01*
X52296927Y-113270919D01*
X52030261Y-113128383D01*
X51740913Y-113040610D01*
X51515408Y-113018400D01*
X49164592Y-113018400D01*
X48939087Y-113040610D01*
X48649739Y-113128383D01*
X48383073Y-113270919D01*
X48149339Y-113462739D01*
X47957519Y-113696473D01*
X47814983Y-113963139D01*
X47727210Y-114252487D01*
X47697573Y-114553400D01*
X36220000Y-114553400D01*
X36220000Y-109880400D01*
X46005000Y-109880400D01*
X46005000Y-110980400D01*
X46059271Y-111277423D01*
X46170446Y-111558151D01*
X46334252Y-111811796D01*
X46544394Y-112028610D01*
X46792796Y-112200262D01*
X47069913Y-112320155D01*
X47175260Y-112344436D01*
X47413000Y-112223778D01*
X47413000Y-109880400D01*
X47667000Y-109880400D01*
X47667000Y-112223778D01*
X47904740Y-112344436D01*
X48010087Y-112320155D01*
X48287204Y-112200262D01*
X48535606Y-112028610D01*
X48745748Y-111811796D01*
X48909554Y-111558151D01*
X49020729Y-111277423D01*
X49075000Y-110980400D01*
X49075000Y-109880400D01*
X47667000Y-109880400D01*
X47413000Y-109880400D01*
X46005000Y-109880400D01*
X36220000Y-109880400D01*
X36220000Y-108526400D01*
X46005000Y-108526400D01*
X46005000Y-109626400D01*
X47413000Y-109626400D01*
X47413000Y-107283022D01*
X47667000Y-107283022D01*
X47667000Y-109626400D01*
X49075000Y-109626400D01*
X49075000Y-108526400D01*
X49020729Y-108229377D01*
X48909554Y-107948649D01*
X48745748Y-107695004D01*
X48608502Y-107553400D01*
X51801928Y-107553400D01*
X51801928Y-111953400D01*
X51814188Y-112077882D01*
X51850498Y-112197580D01*
X51909463Y-112307894D01*
X51988815Y-112404585D01*
X52085506Y-112483937D01*
X52195820Y-112542902D01*
X52315518Y-112579212D01*
X52440000Y-112591472D01*
X54240000Y-112591472D01*
X54364482Y-112579212D01*
X54484180Y-112542902D01*
X54594494Y-112483937D01*
X54691185Y-112404585D01*
X54770537Y-112307894D01*
X54829502Y-112197580D01*
X54865812Y-112077882D01*
X54878072Y-111953400D01*
X54878072Y-107553400D01*
X54865812Y-107428918D01*
X54829502Y-107309220D01*
X54770537Y-107198906D01*
X54691185Y-107102215D01*
X54594494Y-107022863D01*
X54484180Y-106963898D01*
X54364482Y-106927588D01*
X54240000Y-106915328D01*
X52440000Y-106915328D01*
X52315518Y-106927588D01*
X52195820Y-106963898D01*
X52085506Y-107022863D01*
X51988815Y-107102215D01*
X51909463Y-107198906D01*
X51850498Y-107309220D01*
X51814188Y-107428918D01*
X51801928Y-107553400D01*
X48608502Y-107553400D01*
X48535606Y-107478190D01*
X48287204Y-107306538D01*
X48010087Y-107186645D01*
X47904740Y-107162364D01*
X47667000Y-107283022D01*
X47413000Y-107283022D01*
X47175260Y-107162364D01*
X47069913Y-107186645D01*
X46792796Y-107306538D01*
X46544394Y-107478190D01*
X46334252Y-107695004D01*
X46170446Y-107948649D01*
X46059271Y-108229377D01*
X46005000Y-108526400D01*
X36220000Y-108526400D01*
X36220000Y-98958061D01*
X108185000Y-98958061D01*
X108185000Y-99161939D01*
X108224774Y-99361898D01*
X108302795Y-99550256D01*
X108416063Y-99719774D01*
X108560226Y-99863937D01*
X108729744Y-99977205D01*
X108918102Y-100055226D01*
X109118061Y-100095000D01*
X109321939Y-100095000D01*
X109521898Y-100055226D01*
X109710256Y-99977205D01*
X109758454Y-99945000D01*
X162021546Y-99945000D01*
X162069744Y-99977205D01*
X162258102Y-100055226D01*
X162458061Y-100095000D01*
X162661939Y-100095000D01*
X162861898Y-100055226D01*
X163050256Y-99977205D01*
X163219774Y-99863937D01*
X163363937Y-99719774D01*
X163477205Y-99550256D01*
X163555226Y-99361898D01*
X163595000Y-99161939D01*
X163595000Y-98958061D01*
X163555226Y-98758102D01*
X163477205Y-98569744D01*
X163363937Y-98400226D01*
X163219774Y-98256063D01*
X163050256Y-98142795D01*
X162861898Y-98064774D01*
X162661939Y-98025000D01*
X162458061Y-98025000D01*
X162258102Y-98064774D01*
X162069744Y-98142795D01*
X162021546Y-98175000D01*
X109758454Y-98175000D01*
X109710256Y-98142795D01*
X109521898Y-98064774D01*
X109321939Y-98025000D01*
X109118061Y-98025000D01*
X108918102Y-98064774D01*
X108729744Y-98142795D01*
X108560226Y-98256063D01*
X108416063Y-98400226D01*
X108302795Y-98569744D01*
X108224774Y-98758102D01*
X108185000Y-98958061D01*
X36220000Y-98958061D01*
X36220000Y-97512702D01*
X50026903Y-97512702D01*
X50098486Y-97756671D01*
X50353996Y-97877571D01*
X50628184Y-97946300D01*
X50910512Y-97960217D01*
X51190130Y-97918787D01*
X51456292Y-97823603D01*
X51581514Y-97756671D01*
X51653097Y-97512702D01*
X50840000Y-96699605D01*
X50026903Y-97512702D01*
X36220000Y-97512702D01*
X36220000Y-96590512D01*
X49399783Y-96590512D01*
X49441213Y-96870130D01*
X49536397Y-97136292D01*
X49603329Y-97261514D01*
X49847298Y-97333097D01*
X50660395Y-96520000D01*
X51019605Y-96520000D01*
X51832702Y-97333097D01*
X51901928Y-97312785D01*
X51901928Y-97320000D01*
X51914188Y-97444482D01*
X51950498Y-97564180D01*
X52009463Y-97674494D01*
X52088815Y-97771185D01*
X52185506Y-97850537D01*
X52295820Y-97909502D01*
X52415518Y-97945812D01*
X52540000Y-97958072D01*
X54140000Y-97958072D01*
X54264482Y-97945812D01*
X54384180Y-97909502D01*
X54494494Y-97850537D01*
X54591185Y-97771185D01*
X54670537Y-97674494D01*
X54729502Y-97564180D01*
X54765812Y-97444482D01*
X54778072Y-97320000D01*
X54778072Y-95720000D01*
X54765812Y-95595518D01*
X54729502Y-95475820D01*
X54670537Y-95365506D01*
X54591185Y-95268815D01*
X54494494Y-95189463D01*
X54384180Y-95130498D01*
X54264482Y-95094188D01*
X54140000Y-95081928D01*
X52540000Y-95081928D01*
X52415518Y-95094188D01*
X52295820Y-95130498D01*
X52185506Y-95189463D01*
X52088815Y-95268815D01*
X52009463Y-95365506D01*
X51950498Y-95475820D01*
X51914188Y-95595518D01*
X51901928Y-95720000D01*
X51901928Y-95727215D01*
X51832702Y-95706903D01*
X51019605Y-96520000D01*
X50660395Y-96520000D01*
X49847298Y-95706903D01*
X49603329Y-95778486D01*
X49482429Y-96033996D01*
X49413700Y-96308184D01*
X49399783Y-96590512D01*
X36220000Y-96590512D01*
X36220000Y-95527298D01*
X50026903Y-95527298D01*
X50840000Y-96340395D01*
X51653097Y-95527298D01*
X51581514Y-95283329D01*
X51326004Y-95162429D01*
X51051816Y-95093700D01*
X50769488Y-95079783D01*
X50489870Y-95121213D01*
X50223708Y-95216397D01*
X50098486Y-95283329D01*
X50026903Y-95527298D01*
X36220000Y-95527298D01*
X36220000Y-89940000D01*
X41041928Y-89940000D01*
X41041928Y-92940000D01*
X41054188Y-93064482D01*
X41090498Y-93184180D01*
X41149463Y-93294494D01*
X41228815Y-93391185D01*
X41325506Y-93470537D01*
X41435820Y-93529502D01*
X41555518Y-93565812D01*
X41680000Y-93578072D01*
X44680000Y-93578072D01*
X44804482Y-93565812D01*
X44924180Y-93529502D01*
X45034494Y-93470537D01*
X45131185Y-93391185D01*
X45210537Y-93294494D01*
X45269502Y-93184180D01*
X45305812Y-93064482D01*
X45318072Y-92940000D01*
X45318072Y-91288816D01*
X51805000Y-91288816D01*
X51805000Y-91591184D01*
X51863989Y-91887743D01*
X51979701Y-92167095D01*
X52147688Y-92418505D01*
X52361495Y-92632312D01*
X52612905Y-92800299D01*
X52892257Y-92916011D01*
X53188816Y-92975000D01*
X53491184Y-92975000D01*
X53787743Y-92916011D01*
X54067095Y-92800299D01*
X54318505Y-92632312D01*
X54532312Y-92418505D01*
X54700299Y-92167095D01*
X54816011Y-91887743D01*
X54875000Y-91591184D01*
X54875000Y-91288816D01*
X54816011Y-90992257D01*
X54700299Y-90712905D01*
X54532312Y-90461495D01*
X54318505Y-90247688D01*
X54067095Y-90079701D01*
X53787743Y-89963989D01*
X53491184Y-89905000D01*
X53188816Y-89905000D01*
X52892257Y-89963989D01*
X52612905Y-90079701D01*
X52361495Y-90247688D01*
X52147688Y-90461495D01*
X51979701Y-90712905D01*
X51863989Y-90992257D01*
X51805000Y-91288816D01*
X45318072Y-91288816D01*
X45318072Y-89940000D01*
X45305812Y-89815518D01*
X45269502Y-89695820D01*
X45210537Y-89585506D01*
X45131185Y-89488815D01*
X45034494Y-89409463D01*
X44924180Y-89350498D01*
X44804482Y-89314188D01*
X44680000Y-89301928D01*
X41680000Y-89301928D01*
X41555518Y-89314188D01*
X41435820Y-89350498D01*
X41325506Y-89409463D01*
X41228815Y-89488815D01*
X41149463Y-89585506D01*
X41090498Y-89695820D01*
X41054188Y-89815518D01*
X41041928Y-89940000D01*
X36220000Y-89940000D01*
X36220000Y-87851653D01*
X41867952Y-87851653D01*
X42023962Y-88167214D01*
X42398745Y-88358020D01*
X42803551Y-88472044D01*
X43222824Y-88504902D01*
X43640451Y-88455334D01*
X44040383Y-88325243D01*
X44336038Y-88167214D01*
X44492048Y-87851653D01*
X43180000Y-86539605D01*
X41867952Y-87851653D01*
X36220000Y-87851653D01*
X36220000Y-86402824D01*
X41035098Y-86402824D01*
X41084666Y-86820451D01*
X41214757Y-87220383D01*
X41372786Y-87516038D01*
X41688347Y-87672048D01*
X43000395Y-86360000D01*
X43359605Y-86360000D01*
X44671653Y-87672048D01*
X44987214Y-87516038D01*
X45090734Y-87312702D01*
X60146903Y-87312702D01*
X60218486Y-87556671D01*
X60473996Y-87677571D01*
X60748184Y-87746300D01*
X61030512Y-87760217D01*
X61310130Y-87718787D01*
X61576292Y-87623603D01*
X61701514Y-87556671D01*
X61773097Y-87312702D01*
X60960000Y-86499605D01*
X60146903Y-87312702D01*
X45090734Y-87312702D01*
X45178020Y-87141255D01*
X45292044Y-86736449D01*
X45319154Y-86390512D01*
X59519783Y-86390512D01*
X59561213Y-86670130D01*
X59656397Y-86936292D01*
X59723329Y-87061514D01*
X59967298Y-87133097D01*
X60780395Y-86320000D01*
X61139605Y-86320000D01*
X61952702Y-87133097D01*
X62196671Y-87061514D01*
X62317571Y-86806004D01*
X62339908Y-86716891D01*
X69678519Y-86716891D01*
X69775843Y-86991252D01*
X69924822Y-87241355D01*
X70119731Y-87457588D01*
X70353080Y-87631641D01*
X70615901Y-87756825D01*
X70763110Y-87801476D01*
X70993000Y-87680155D01*
X70993000Y-86487000D01*
X69799186Y-86487000D01*
X69678519Y-86716891D01*
X62339908Y-86716891D01*
X62386300Y-86531816D01*
X62400217Y-86249488D01*
X62363712Y-86003109D01*
X69678519Y-86003109D01*
X69799186Y-86233000D01*
X70993000Y-86233000D01*
X70993000Y-85039845D01*
X70763110Y-84918524D01*
X70615901Y-84963175D01*
X70353080Y-85088359D01*
X70119731Y-85262412D01*
X69924822Y-85478645D01*
X69775843Y-85728748D01*
X69678519Y-86003109D01*
X62363712Y-86003109D01*
X62358787Y-85969870D01*
X62263603Y-85703708D01*
X62196671Y-85578486D01*
X61952702Y-85506903D01*
X61139605Y-86320000D01*
X60780395Y-86320000D01*
X59967298Y-85506903D01*
X59723329Y-85578486D01*
X59602429Y-85833996D01*
X59533700Y-86108184D01*
X59519783Y-86390512D01*
X45319154Y-86390512D01*
X45324902Y-86317176D01*
X45275334Y-85899549D01*
X45145243Y-85499617D01*
X44987214Y-85203962D01*
X44671653Y-85047952D01*
X43359605Y-86360000D01*
X43000395Y-86360000D01*
X41688347Y-85047952D01*
X41372786Y-85203962D01*
X41181980Y-85578745D01*
X41067956Y-85983551D01*
X41035098Y-86402824D01*
X36220000Y-86402824D01*
X36220000Y-84868347D01*
X41867952Y-84868347D01*
X43180000Y-86180395D01*
X44492048Y-84868347D01*
X44336038Y-84552786D01*
X43961255Y-84361980D01*
X43556449Y-84247956D01*
X43137176Y-84215098D01*
X42719549Y-84264666D01*
X42319617Y-84394757D01*
X42023962Y-84552786D01*
X41867952Y-84868347D01*
X36220000Y-84868347D01*
X36220000Y-82920000D01*
X51801928Y-82920000D01*
X51801928Y-84720000D01*
X51814188Y-84844482D01*
X51850498Y-84964180D01*
X51909463Y-85074494D01*
X51988815Y-85171185D01*
X52085506Y-85250537D01*
X52195820Y-85309502D01*
X52315518Y-85345812D01*
X52440000Y-85358072D01*
X54240000Y-85358072D01*
X54364482Y-85345812D01*
X54484180Y-85309502D01*
X54594494Y-85250537D01*
X54691185Y-85171185D01*
X54770537Y-85074494D01*
X54829502Y-84964180D01*
X54865812Y-84844482D01*
X54878072Y-84720000D01*
X54878072Y-83020000D01*
X59521928Y-83020000D01*
X59521928Y-84620000D01*
X59534188Y-84744482D01*
X59570498Y-84864180D01*
X59629463Y-84974494D01*
X59708815Y-85071185D01*
X59805506Y-85150537D01*
X59915820Y-85209502D01*
X60035518Y-85245812D01*
X60160000Y-85258072D01*
X60167215Y-85258072D01*
X60146903Y-85327298D01*
X60960000Y-86140395D01*
X61773097Y-85327298D01*
X61752785Y-85258072D01*
X61760000Y-85258072D01*
X61884482Y-85245812D01*
X62004180Y-85209502D01*
X62114494Y-85150537D01*
X62211185Y-85071185D01*
X62290537Y-84974494D01*
X62349502Y-84864180D01*
X62385812Y-84744482D01*
X62398072Y-84620000D01*
X62398072Y-83020000D01*
X62385812Y-82895518D01*
X62349502Y-82775820D01*
X62290537Y-82665506D01*
X62211185Y-82568815D01*
X62114494Y-82489463D01*
X62004180Y-82430498D01*
X61884482Y-82394188D01*
X61760000Y-82381928D01*
X60160000Y-82381928D01*
X60035518Y-82394188D01*
X59915820Y-82430498D01*
X59805506Y-82489463D01*
X59708815Y-82568815D01*
X59629463Y-82665506D01*
X59570498Y-82775820D01*
X59534188Y-82895518D01*
X59521928Y-83020000D01*
X54878072Y-83020000D01*
X54878072Y-82920000D01*
X54865812Y-82795518D01*
X54829502Y-82675820D01*
X54770537Y-82565506D01*
X54691185Y-82468815D01*
X54594494Y-82389463D01*
X54484180Y-82330498D01*
X54364482Y-82294188D01*
X54240000Y-82281928D01*
X52440000Y-82281928D01*
X52315518Y-82294188D01*
X52195820Y-82330498D01*
X52085506Y-82389463D01*
X51988815Y-82468815D01*
X51909463Y-82565506D01*
X51850498Y-82675820D01*
X51814188Y-82795518D01*
X51801928Y-82920000D01*
X36220000Y-82920000D01*
X36220000Y-55880000D01*
X36458057Y-55880000D01*
X36485764Y-56161309D01*
X36567818Y-56431808D01*
X36701068Y-56681101D01*
X36880392Y-56899608D01*
X37098899Y-57078932D01*
X37231858Y-57150000D01*
X37098899Y-57221068D01*
X36880392Y-57400392D01*
X36701068Y-57618899D01*
X36567818Y-57868192D01*
X36485764Y-58138691D01*
X36458057Y-58420000D01*
X36485764Y-58701309D01*
X36567818Y-58971808D01*
X36701068Y-59221101D01*
X36880392Y-59439608D01*
X37098899Y-59618932D01*
X37231858Y-59690000D01*
X37098899Y-59761068D01*
X36880392Y-59940392D01*
X36701068Y-60158899D01*
X36567818Y-60408192D01*
X36485764Y-60678691D01*
X36458057Y-60960000D01*
X36485764Y-61241309D01*
X36567818Y-61511808D01*
X36701068Y-61761101D01*
X36880392Y-61979608D01*
X37098899Y-62158932D01*
X37231858Y-62230000D01*
X37098899Y-62301068D01*
X36880392Y-62480392D01*
X36701068Y-62698899D01*
X36567818Y-62948192D01*
X36485764Y-63218691D01*
X36458057Y-63500000D01*
X36485764Y-63781309D01*
X36567818Y-64051808D01*
X36701068Y-64301101D01*
X36880392Y-64519608D01*
X37098899Y-64698932D01*
X37231858Y-64770000D01*
X37098899Y-64841068D01*
X36880392Y-65020392D01*
X36701068Y-65238899D01*
X36567818Y-65488192D01*
X36485764Y-65758691D01*
X36458057Y-66040000D01*
X36485764Y-66321309D01*
X36567818Y-66591808D01*
X36701068Y-66841101D01*
X36880392Y-67059608D01*
X37098899Y-67238932D01*
X37231858Y-67310000D01*
X37098899Y-67381068D01*
X36880392Y-67560392D01*
X36701068Y-67778899D01*
X36567818Y-68028192D01*
X36485764Y-68298691D01*
X36458057Y-68580000D01*
X36485764Y-68861309D01*
X36567818Y-69131808D01*
X36701068Y-69381101D01*
X36880392Y-69599608D01*
X37098899Y-69778932D01*
X37231858Y-69850000D01*
X37098899Y-69921068D01*
X36880392Y-70100392D01*
X36701068Y-70318899D01*
X36567818Y-70568192D01*
X36485764Y-70838691D01*
X36458057Y-71120000D01*
X36485764Y-71401309D01*
X36567818Y-71671808D01*
X36701068Y-71921101D01*
X36880392Y-72139608D01*
X37098899Y-72318932D01*
X37348192Y-72452182D01*
X37618691Y-72534236D01*
X37829508Y-72555000D01*
X38370492Y-72555000D01*
X38581309Y-72534236D01*
X38851808Y-72452182D01*
X39101101Y-72318932D01*
X39319608Y-72139608D01*
X39498932Y-71921101D01*
X39632182Y-71671808D01*
X39714236Y-71401309D01*
X39741943Y-71120000D01*
X59318057Y-71120000D01*
X59345764Y-71401309D01*
X59427818Y-71671808D01*
X59561068Y-71921101D01*
X59740392Y-72139608D01*
X59958899Y-72318932D01*
X60208192Y-72452182D01*
X60478691Y-72534236D01*
X60689508Y-72555000D01*
X61230492Y-72555000D01*
X61441309Y-72534236D01*
X61711808Y-72452182D01*
X61961101Y-72318932D01*
X62179608Y-72139608D01*
X62358932Y-71921101D01*
X62492182Y-71671808D01*
X62574236Y-71401309D01*
X62601943Y-71120000D01*
X62574236Y-70838691D01*
X62492182Y-70568192D01*
X62358932Y-70318899D01*
X62179608Y-70100392D01*
X61961101Y-69921068D01*
X61831655Y-69851878D01*
X61849227Y-69844430D01*
X62082662Y-69685673D01*
X62280639Y-69484425D01*
X62435551Y-69248421D01*
X62541444Y-68986730D01*
X62551904Y-68929039D01*
X62429915Y-68707000D01*
X61087000Y-68707000D01*
X61087000Y-68727000D01*
X60833000Y-68727000D01*
X60833000Y-68707000D01*
X59490085Y-68707000D01*
X59368096Y-68929039D01*
X59378556Y-68986730D01*
X59484449Y-69248421D01*
X59639361Y-69484425D01*
X59837338Y-69685673D01*
X60070773Y-69844430D01*
X60088345Y-69851878D01*
X59958899Y-69921068D01*
X59740392Y-70100392D01*
X59561068Y-70318899D01*
X59427818Y-70568192D01*
X59345764Y-70838691D01*
X59318057Y-71120000D01*
X39741943Y-71120000D01*
X39714236Y-70838691D01*
X39632182Y-70568192D01*
X39498932Y-70318899D01*
X39319608Y-70100392D01*
X39101101Y-69921068D01*
X38968142Y-69850000D01*
X39101101Y-69778932D01*
X39319608Y-69599608D01*
X39498932Y-69381101D01*
X39632182Y-69131808D01*
X39714236Y-68861309D01*
X39741943Y-68580000D01*
X39714236Y-68298691D01*
X39632182Y-68028192D01*
X39498932Y-67778899D01*
X39319608Y-67560392D01*
X39101101Y-67381068D01*
X38968142Y-67310000D01*
X39101101Y-67238932D01*
X39319608Y-67059608D01*
X39498932Y-66841101D01*
X39632182Y-66591808D01*
X39714236Y-66321309D01*
X39741943Y-66040000D01*
X39714236Y-65758691D01*
X39632182Y-65488192D01*
X39498932Y-65238899D01*
X39319608Y-65020392D01*
X39101101Y-64841068D01*
X38968142Y-64770000D01*
X39101101Y-64698932D01*
X39319608Y-64519608D01*
X39498932Y-64301101D01*
X39632182Y-64051808D01*
X39714236Y-63781309D01*
X39741943Y-63500000D01*
X39714236Y-63218691D01*
X39632182Y-62948192D01*
X39498932Y-62698899D01*
X39319608Y-62480392D01*
X39101101Y-62301068D01*
X38968142Y-62230000D01*
X39101101Y-62158932D01*
X39319608Y-61979608D01*
X39498932Y-61761101D01*
X39632182Y-61511808D01*
X39714236Y-61241309D01*
X39741943Y-60960000D01*
X39714236Y-60678691D01*
X39632182Y-60408192D01*
X39498932Y-60158899D01*
X39319608Y-59940392D01*
X39101101Y-59761068D01*
X38968142Y-59690000D01*
X39101101Y-59618932D01*
X39319608Y-59439608D01*
X39498932Y-59221101D01*
X39632182Y-58971808D01*
X39714236Y-58701309D01*
X39741943Y-58420000D01*
X39714236Y-58138691D01*
X39632182Y-57868192D01*
X39498932Y-57618899D01*
X39319608Y-57400392D01*
X39101101Y-57221068D01*
X38968142Y-57150000D01*
X39101101Y-57078932D01*
X39319608Y-56899608D01*
X39498932Y-56681101D01*
X39632182Y-56431808D01*
X39714236Y-56161309D01*
X39741943Y-55880000D01*
X39714236Y-55598691D01*
X39632182Y-55328192D01*
X39498932Y-55078899D01*
X39366524Y-54917559D01*
X39454494Y-54870537D01*
X39551185Y-54791185D01*
X39630537Y-54694494D01*
X39689502Y-54584180D01*
X39725812Y-54464482D01*
X39738072Y-54340000D01*
X39738072Y-53340000D01*
X59318057Y-53340000D01*
X59345764Y-53621309D01*
X59427818Y-53891808D01*
X59561068Y-54141101D01*
X59740392Y-54359608D01*
X59958899Y-54538932D01*
X60091858Y-54610000D01*
X59958899Y-54681068D01*
X59740392Y-54860392D01*
X59561068Y-55078899D01*
X59427818Y-55328192D01*
X59345764Y-55598691D01*
X59318057Y-55880000D01*
X59345764Y-56161309D01*
X59427818Y-56431808D01*
X59561068Y-56681101D01*
X59740392Y-56899608D01*
X59958899Y-57078932D01*
X60091858Y-57150000D01*
X59958899Y-57221068D01*
X59740392Y-57400392D01*
X59561068Y-57618899D01*
X59427818Y-57868192D01*
X59345764Y-58138691D01*
X59318057Y-58420000D01*
X59345764Y-58701309D01*
X59427818Y-58971808D01*
X59561068Y-59221101D01*
X59740392Y-59439608D01*
X59958899Y-59618932D01*
X60091858Y-59690000D01*
X59958899Y-59761068D01*
X59740392Y-59940392D01*
X59561068Y-60158899D01*
X59427818Y-60408192D01*
X59345764Y-60678691D01*
X59318057Y-60960000D01*
X59345764Y-61241309D01*
X59427818Y-61511808D01*
X59561068Y-61761101D01*
X59740392Y-61979608D01*
X59958899Y-62158932D01*
X60091858Y-62230000D01*
X59958899Y-62301068D01*
X59740392Y-62480392D01*
X59561068Y-62698899D01*
X59427818Y-62948192D01*
X59345764Y-63218691D01*
X59318057Y-63500000D01*
X59345764Y-63781309D01*
X59427818Y-64051808D01*
X59561068Y-64301101D01*
X59740392Y-64519608D01*
X59958899Y-64698932D01*
X60091858Y-64770000D01*
X59958899Y-64841068D01*
X59740392Y-65020392D01*
X59561068Y-65238899D01*
X59427818Y-65488192D01*
X59345764Y-65758691D01*
X59318057Y-66040000D01*
X59345764Y-66321309D01*
X59427818Y-66591808D01*
X59561068Y-66841101D01*
X59740392Y-67059608D01*
X59958899Y-67238932D01*
X60088345Y-67308122D01*
X60070773Y-67315570D01*
X59837338Y-67474327D01*
X59639361Y-67675575D01*
X59484449Y-67911579D01*
X59378556Y-68173270D01*
X59368096Y-68230961D01*
X59490085Y-68453000D01*
X60833000Y-68453000D01*
X60833000Y-68433000D01*
X61087000Y-68433000D01*
X61087000Y-68453000D01*
X62429915Y-68453000D01*
X62551904Y-68230961D01*
X62541444Y-68173270D01*
X62435551Y-67911579D01*
X62280639Y-67675575D01*
X62082662Y-67474327D01*
X61849227Y-67315570D01*
X61831655Y-67308122D01*
X61961101Y-67238932D01*
X62179608Y-67059608D01*
X62358932Y-66841101D01*
X62492182Y-66591808D01*
X62574236Y-66321309D01*
X62601943Y-66040000D01*
X62574236Y-65758691D01*
X62492182Y-65488192D01*
X62358932Y-65238899D01*
X62179608Y-65020392D01*
X61961101Y-64841068D01*
X61828142Y-64770000D01*
X61961101Y-64698932D01*
X62179608Y-64519608D01*
X62358932Y-64301101D01*
X62492182Y-64051808D01*
X62563878Y-63815456D01*
X62615001Y-63866580D01*
X62615000Y-68536531D01*
X62610719Y-68580000D01*
X62615000Y-68623469D01*
X62615000Y-68623476D01*
X62627805Y-68753489D01*
X62678411Y-68920312D01*
X62760589Y-69074058D01*
X62871183Y-69208817D01*
X62904956Y-69236534D01*
X75315001Y-81646580D01*
X75315000Y-85165344D01*
X75253368Y-85206525D01*
X75046525Y-85413368D01*
X74930000Y-85587760D01*
X74813475Y-85413368D01*
X74606632Y-85206525D01*
X74363411Y-85044010D01*
X74093158Y-84932068D01*
X73806260Y-84875000D01*
X73513740Y-84875000D01*
X73226842Y-84932068D01*
X72956589Y-85044010D01*
X72713368Y-85206525D01*
X72506525Y-85413368D01*
X72384805Y-85595534D01*
X72315178Y-85478645D01*
X72120269Y-85262412D01*
X71886920Y-85088359D01*
X71624099Y-84963175D01*
X71476890Y-84918524D01*
X71247000Y-85039845D01*
X71247000Y-86233000D01*
X71267000Y-86233000D01*
X71267000Y-86487000D01*
X71247000Y-86487000D01*
X71247000Y-87680155D01*
X71476890Y-87801476D01*
X71624099Y-87756825D01*
X71886920Y-87631641D01*
X72120269Y-87457588D01*
X72315178Y-87241355D01*
X72384805Y-87124466D01*
X72506525Y-87306632D01*
X72713368Y-87513475D01*
X72956589Y-87675990D01*
X73226842Y-87787932D01*
X73513740Y-87845000D01*
X73806260Y-87845000D01*
X74093158Y-87787932D01*
X74363411Y-87675990D01*
X74606632Y-87513475D01*
X74813475Y-87306632D01*
X74930000Y-87132240D01*
X75046525Y-87306632D01*
X75253368Y-87513475D01*
X75496589Y-87675990D01*
X75766842Y-87787932D01*
X76053740Y-87845000D01*
X76346260Y-87845000D01*
X76633158Y-87787932D01*
X76903411Y-87675990D01*
X77146632Y-87513475D01*
X77353475Y-87306632D01*
X77470000Y-87132240D01*
X77586525Y-87306632D01*
X77793368Y-87513475D01*
X78036589Y-87675990D01*
X78306842Y-87787932D01*
X78593740Y-87845000D01*
X78886260Y-87845000D01*
X79173158Y-87787932D01*
X79443411Y-87675990D01*
X79686632Y-87513475D01*
X79893475Y-87306632D01*
X80010000Y-87132240D01*
X80126525Y-87306632D01*
X80333368Y-87513475D01*
X80576589Y-87675990D01*
X80846842Y-87787932D01*
X81133740Y-87845000D01*
X81426260Y-87845000D01*
X81713158Y-87787932D01*
X81983411Y-87675990D01*
X82226632Y-87513475D01*
X82433475Y-87306632D01*
X82550000Y-87132240D01*
X82666525Y-87306632D01*
X82873368Y-87513475D01*
X83116589Y-87675990D01*
X83386842Y-87787932D01*
X83673740Y-87845000D01*
X83966260Y-87845000D01*
X84253158Y-87787932D01*
X84523411Y-87675990D01*
X84766632Y-87513475D01*
X84973475Y-87306632D01*
X85135990Y-87063411D01*
X85247932Y-86793158D01*
X85305000Y-86506260D01*
X85305000Y-86213740D01*
X85247932Y-85926842D01*
X85135990Y-85656589D01*
X84973475Y-85413368D01*
X84766632Y-85206525D01*
X84523411Y-85044010D01*
X84253158Y-84932068D01*
X83966260Y-84875000D01*
X83673740Y-84875000D01*
X83386842Y-84932068D01*
X83116589Y-85044010D01*
X82873368Y-85206525D01*
X82666525Y-85413368D01*
X82550000Y-85587760D01*
X82433475Y-85413368D01*
X82226632Y-85206525D01*
X81983411Y-85044010D01*
X81713158Y-84932068D01*
X81426260Y-84875000D01*
X81133740Y-84875000D01*
X80846842Y-84932068D01*
X80576589Y-85044010D01*
X80333368Y-85206525D01*
X80126525Y-85413368D01*
X80010000Y-85587760D01*
X79893475Y-85413368D01*
X79686632Y-85206525D01*
X79625000Y-85165344D01*
X79625000Y-81323465D01*
X79629281Y-81279999D01*
X79625000Y-81236533D01*
X79625000Y-81236523D01*
X79619243Y-81178061D01*
X92945000Y-81178061D01*
X92945000Y-81381939D01*
X92984774Y-81581898D01*
X93062795Y-81770256D01*
X93176063Y-81939774D01*
X93320226Y-82083937D01*
X93489744Y-82197205D01*
X93678102Y-82275226D01*
X93878061Y-82315000D01*
X94081939Y-82315000D01*
X94281898Y-82275226D01*
X94470256Y-82197205D01*
X94518454Y-82165000D01*
X162021546Y-82165000D01*
X162069744Y-82197205D01*
X162258102Y-82275226D01*
X162458061Y-82315000D01*
X162661939Y-82315000D01*
X162861898Y-82275226D01*
X163050256Y-82197205D01*
X163219774Y-82083937D01*
X163363937Y-81939774D01*
X163477205Y-81770256D01*
X163555226Y-81581898D01*
X163595000Y-81381939D01*
X163595000Y-81178061D01*
X163555226Y-80978102D01*
X163477205Y-80789744D01*
X163363937Y-80620226D01*
X163219774Y-80476063D01*
X163050256Y-80362795D01*
X162861898Y-80284774D01*
X162661939Y-80245000D01*
X162458061Y-80245000D01*
X162258102Y-80284774D01*
X162069744Y-80362795D01*
X162021546Y-80395000D01*
X94518454Y-80395000D01*
X94470256Y-80362795D01*
X94281898Y-80284774D01*
X94081939Y-80245000D01*
X93878061Y-80245000D01*
X93678102Y-80284774D01*
X93489744Y-80362795D01*
X93320226Y-80476063D01*
X93176063Y-80620226D01*
X93062795Y-80789744D01*
X92984774Y-80978102D01*
X92945000Y-81178061D01*
X79619243Y-81178061D01*
X79612195Y-81106510D01*
X79561589Y-80939687D01*
X79479411Y-80785941D01*
X79368817Y-80651183D01*
X79335051Y-80623472D01*
X66925000Y-68213422D01*
X66925000Y-63543469D01*
X66929281Y-63500000D01*
X66925000Y-63456531D01*
X66925000Y-63456523D01*
X66914877Y-63353740D01*
X67095000Y-63353740D01*
X67095000Y-63646260D01*
X67152068Y-63933158D01*
X67264010Y-64203411D01*
X67426525Y-64446632D01*
X67633368Y-64653475D01*
X67807760Y-64770000D01*
X67633368Y-64886525D01*
X67426525Y-65093368D01*
X67264010Y-65336589D01*
X67152068Y-65606842D01*
X67095000Y-65893740D01*
X67095000Y-66186260D01*
X67152068Y-66473158D01*
X67264010Y-66743411D01*
X67426525Y-66986632D01*
X67633368Y-67193475D01*
X67876589Y-67355990D01*
X68146842Y-67467932D01*
X68433740Y-67525000D01*
X68726260Y-67525000D01*
X69013158Y-67467932D01*
X69283411Y-67355990D01*
X69526632Y-67193475D01*
X69733475Y-66986632D01*
X69895990Y-66743411D01*
X70007932Y-66473158D01*
X70065000Y-66186260D01*
X70065000Y-65893740D01*
X70007932Y-65606842D01*
X69895990Y-65336589D01*
X69733475Y-65093368D01*
X69526632Y-64886525D01*
X69352240Y-64770000D01*
X69526632Y-64653475D01*
X69733475Y-64446632D01*
X69895990Y-64203411D01*
X70007932Y-63933158D01*
X70065000Y-63646260D01*
X70065000Y-63353740D01*
X77255000Y-63353740D01*
X77255000Y-63646260D01*
X77312068Y-63933158D01*
X77424010Y-64203411D01*
X77586525Y-64446632D01*
X77793368Y-64653475D01*
X77967760Y-64770000D01*
X77793368Y-64886525D01*
X77586525Y-65093368D01*
X77424010Y-65336589D01*
X77312068Y-65606842D01*
X77255000Y-65893740D01*
X77255000Y-66186260D01*
X77312068Y-66473158D01*
X77424010Y-66743411D01*
X77586525Y-66986632D01*
X77793368Y-67193475D01*
X78036589Y-67355990D01*
X78306842Y-67467932D01*
X78593740Y-67525000D01*
X78886260Y-67525000D01*
X79173158Y-67467932D01*
X79443411Y-67355990D01*
X79686632Y-67193475D01*
X79893475Y-66986632D01*
X80055990Y-66743411D01*
X80167932Y-66473158D01*
X80225000Y-66186260D01*
X80225000Y-65893740D01*
X80167932Y-65606842D01*
X80055990Y-65336589D01*
X79893475Y-65093368D01*
X79686632Y-64886525D01*
X79512240Y-64770000D01*
X79686632Y-64653475D01*
X79893475Y-64446632D01*
X80055990Y-64203411D01*
X80167932Y-63933158D01*
X80225000Y-63646260D01*
X80225000Y-63398061D01*
X92945000Y-63398061D01*
X92945000Y-63601939D01*
X92984774Y-63801898D01*
X93062795Y-63990256D01*
X93176063Y-64159774D01*
X93320226Y-64303937D01*
X93489744Y-64417205D01*
X93678102Y-64495226D01*
X93878061Y-64535000D01*
X94081939Y-64535000D01*
X94281898Y-64495226D01*
X94470256Y-64417205D01*
X94518454Y-64385000D01*
X162021546Y-64385000D01*
X162069744Y-64417205D01*
X162258102Y-64495226D01*
X162458061Y-64535000D01*
X162661939Y-64535000D01*
X162861898Y-64495226D01*
X163050256Y-64417205D01*
X163219774Y-64303937D01*
X163363937Y-64159774D01*
X163477205Y-63990256D01*
X163555226Y-63801898D01*
X163595000Y-63601939D01*
X163595000Y-63398061D01*
X163555226Y-63198102D01*
X163477205Y-63009744D01*
X163363937Y-62840226D01*
X163219774Y-62696063D01*
X163050256Y-62582795D01*
X162861898Y-62504774D01*
X162661939Y-62465000D01*
X162458061Y-62465000D01*
X162258102Y-62504774D01*
X162069744Y-62582795D01*
X162021546Y-62615000D01*
X94518454Y-62615000D01*
X94470256Y-62582795D01*
X94281898Y-62504774D01*
X94081939Y-62465000D01*
X93878061Y-62465000D01*
X93678102Y-62504774D01*
X93489744Y-62582795D01*
X93320226Y-62696063D01*
X93176063Y-62840226D01*
X93062795Y-63009744D01*
X92984774Y-63198102D01*
X92945000Y-63398061D01*
X80225000Y-63398061D01*
X80225000Y-63353740D01*
X80167932Y-63066842D01*
X80055990Y-62796589D01*
X79893475Y-62553368D01*
X79686632Y-62346525D01*
X79504466Y-62224805D01*
X79621355Y-62155178D01*
X79837588Y-61960269D01*
X80011641Y-61726920D01*
X80136825Y-61464099D01*
X80181476Y-61316890D01*
X80060155Y-61087000D01*
X78867000Y-61087000D01*
X78867000Y-61107000D01*
X78613000Y-61107000D01*
X78613000Y-61087000D01*
X77419845Y-61087000D01*
X77298524Y-61316890D01*
X77343175Y-61464099D01*
X77468359Y-61726920D01*
X77642412Y-61960269D01*
X77858645Y-62155178D01*
X77975534Y-62224805D01*
X77793368Y-62346525D01*
X77586525Y-62553368D01*
X77424010Y-62796589D01*
X77312068Y-63066842D01*
X77255000Y-63353740D01*
X70065000Y-63353740D01*
X70007932Y-63066842D01*
X69895990Y-62796589D01*
X69733475Y-62553368D01*
X69526632Y-62346525D01*
X69344466Y-62224805D01*
X69461355Y-62155178D01*
X69677588Y-61960269D01*
X69851641Y-61726920D01*
X69976825Y-61464099D01*
X70021476Y-61316890D01*
X69900155Y-61087000D01*
X68707000Y-61087000D01*
X68707000Y-61107000D01*
X68453000Y-61107000D01*
X68453000Y-61087000D01*
X67259845Y-61087000D01*
X67138524Y-61316890D01*
X67183175Y-61464099D01*
X67308359Y-61726920D01*
X67482412Y-61960269D01*
X67698645Y-62155178D01*
X67815534Y-62224805D01*
X67633368Y-62346525D01*
X67426525Y-62553368D01*
X67264010Y-62796589D01*
X67152068Y-63066842D01*
X67095000Y-63353740D01*
X66914877Y-63353740D01*
X66912195Y-63326510D01*
X66861589Y-63159687D01*
X66779411Y-63005941D01*
X66668817Y-62871183D01*
X66635051Y-62843472D01*
X62555303Y-58763724D01*
X62574236Y-58701309D01*
X62601943Y-58420000D01*
X62574236Y-58138691D01*
X62492182Y-57868192D01*
X62358932Y-57618899D01*
X62179608Y-57400392D01*
X61961101Y-57221068D01*
X61828142Y-57150000D01*
X61961101Y-57078932D01*
X62179608Y-56899608D01*
X62358932Y-56681101D01*
X62492182Y-56431808D01*
X62574236Y-56161309D01*
X62601943Y-55880000D01*
X62574236Y-55598691D01*
X62492182Y-55328192D01*
X62358932Y-55078899D01*
X62179608Y-54860392D01*
X61961101Y-54681068D01*
X61828142Y-54610000D01*
X61961101Y-54538932D01*
X62179608Y-54359608D01*
X62358932Y-54141101D01*
X62492182Y-53891808D01*
X62574236Y-53621309D01*
X62601943Y-53340000D01*
X62587538Y-53193740D01*
X67095000Y-53193740D01*
X67095000Y-53486260D01*
X67152068Y-53773158D01*
X67264010Y-54043411D01*
X67426525Y-54286632D01*
X67633368Y-54493475D01*
X67807760Y-54610000D01*
X67633368Y-54726525D01*
X67426525Y-54933368D01*
X67264010Y-55176589D01*
X67152068Y-55446842D01*
X67095000Y-55733740D01*
X67095000Y-56026260D01*
X67152068Y-56313158D01*
X67264010Y-56583411D01*
X67426525Y-56826632D01*
X67633368Y-57033475D01*
X67807760Y-57150000D01*
X67633368Y-57266525D01*
X67426525Y-57473368D01*
X67264010Y-57716589D01*
X67152068Y-57986842D01*
X67095000Y-58273740D01*
X67095000Y-58566260D01*
X67152068Y-58853158D01*
X67264010Y-59123411D01*
X67426525Y-59366632D01*
X67633368Y-59573475D01*
X67815534Y-59695195D01*
X67698645Y-59764822D01*
X67482412Y-59959731D01*
X67308359Y-60193080D01*
X67183175Y-60455901D01*
X67138524Y-60603110D01*
X67259845Y-60833000D01*
X68453000Y-60833000D01*
X68453000Y-60813000D01*
X68707000Y-60813000D01*
X68707000Y-60833000D01*
X69900155Y-60833000D01*
X70021476Y-60603110D01*
X69976825Y-60455901D01*
X69851641Y-60193080D01*
X69677588Y-59959731D01*
X69461355Y-59764822D01*
X69344466Y-59695195D01*
X69526632Y-59573475D01*
X69733475Y-59366632D01*
X69895990Y-59123411D01*
X70007932Y-58853158D01*
X70065000Y-58566260D01*
X70065000Y-58273740D01*
X70007932Y-57986842D01*
X69895990Y-57716589D01*
X69733475Y-57473368D01*
X69526632Y-57266525D01*
X69352240Y-57150000D01*
X69526632Y-57033475D01*
X69733475Y-56826632D01*
X69895990Y-56583411D01*
X70007932Y-56313158D01*
X70065000Y-56026260D01*
X70065000Y-55733740D01*
X70007932Y-55446842D01*
X69895990Y-55176589D01*
X69733475Y-54933368D01*
X69526632Y-54726525D01*
X69352240Y-54610000D01*
X69526632Y-54493475D01*
X69733475Y-54286632D01*
X69895990Y-54043411D01*
X70007932Y-53773158D01*
X70065000Y-53486260D01*
X70065000Y-53193740D01*
X77255000Y-53193740D01*
X77255000Y-53486260D01*
X77312068Y-53773158D01*
X77424010Y-54043411D01*
X77586525Y-54286632D01*
X77793368Y-54493475D01*
X77967760Y-54610000D01*
X77793368Y-54726525D01*
X77586525Y-54933368D01*
X77424010Y-55176589D01*
X77312068Y-55446842D01*
X77255000Y-55733740D01*
X77255000Y-56026260D01*
X77312068Y-56313158D01*
X77424010Y-56583411D01*
X77586525Y-56826632D01*
X77793368Y-57033475D01*
X77967760Y-57150000D01*
X77793368Y-57266525D01*
X77586525Y-57473368D01*
X77424010Y-57716589D01*
X77312068Y-57986842D01*
X77255000Y-58273740D01*
X77255000Y-58566260D01*
X77312068Y-58853158D01*
X77424010Y-59123411D01*
X77586525Y-59366632D01*
X77793368Y-59573475D01*
X77975534Y-59695195D01*
X77858645Y-59764822D01*
X77642412Y-59959731D01*
X77468359Y-60193080D01*
X77343175Y-60455901D01*
X77298524Y-60603110D01*
X77419845Y-60833000D01*
X78613000Y-60833000D01*
X78613000Y-60813000D01*
X78867000Y-60813000D01*
X78867000Y-60833000D01*
X80060155Y-60833000D01*
X80181476Y-60603110D01*
X80136825Y-60455901D01*
X80011641Y-60193080D01*
X79837588Y-59959731D01*
X79621355Y-59764822D01*
X79504466Y-59695195D01*
X79686632Y-59573475D01*
X79893475Y-59366632D01*
X80055990Y-59123411D01*
X80167932Y-58853158D01*
X80225000Y-58566260D01*
X80225000Y-58273740D01*
X80167932Y-57986842D01*
X80055990Y-57716589D01*
X79893475Y-57473368D01*
X79686632Y-57266525D01*
X79512240Y-57150000D01*
X79686632Y-57033475D01*
X79893475Y-56826632D01*
X80055990Y-56583411D01*
X80167932Y-56313158D01*
X80225000Y-56026260D01*
X80225000Y-55733740D01*
X80167932Y-55446842D01*
X80055990Y-55176589D01*
X79893475Y-54933368D01*
X79686632Y-54726525D01*
X79512240Y-54610000D01*
X79686632Y-54493475D01*
X79893475Y-54286632D01*
X80055990Y-54043411D01*
X80167932Y-53773158D01*
X80225000Y-53486260D01*
X80225000Y-53193740D01*
X80167932Y-52906842D01*
X80055990Y-52636589D01*
X79893475Y-52393368D01*
X79686632Y-52186525D01*
X79443411Y-52024010D01*
X79173158Y-51912068D01*
X78886260Y-51855000D01*
X78593740Y-51855000D01*
X78306842Y-51912068D01*
X78036589Y-52024010D01*
X77793368Y-52186525D01*
X77586525Y-52393368D01*
X77424010Y-52636589D01*
X77312068Y-52906842D01*
X77255000Y-53193740D01*
X70065000Y-53193740D01*
X70007932Y-52906842D01*
X69895990Y-52636589D01*
X69733475Y-52393368D01*
X69526632Y-52186525D01*
X69283411Y-52024010D01*
X69013158Y-51912068D01*
X68726260Y-51855000D01*
X68433740Y-51855000D01*
X68146842Y-51912068D01*
X67876589Y-52024010D01*
X67633368Y-52186525D01*
X67426525Y-52393368D01*
X67264010Y-52636589D01*
X67152068Y-52906842D01*
X67095000Y-53193740D01*
X62587538Y-53193740D01*
X62574236Y-53058691D01*
X62492182Y-52788192D01*
X62358932Y-52538899D01*
X62179608Y-52320392D01*
X61961101Y-52141068D01*
X61711808Y-52007818D01*
X61441309Y-51925764D01*
X61230492Y-51905000D01*
X60689508Y-51905000D01*
X60478691Y-51925764D01*
X60208192Y-52007818D01*
X59958899Y-52141068D01*
X59740392Y-52320392D01*
X59561068Y-52538899D01*
X59427818Y-52788192D01*
X59345764Y-53058691D01*
X59318057Y-53340000D01*
X39738072Y-53340000D01*
X39738072Y-52340000D01*
X39725812Y-52215518D01*
X39689502Y-52095820D01*
X39630537Y-51985506D01*
X39551185Y-51888815D01*
X39454494Y-51809463D01*
X39344180Y-51750498D01*
X39224482Y-51714188D01*
X39100000Y-51701928D01*
X37100000Y-51701928D01*
X36975518Y-51714188D01*
X36855820Y-51750498D01*
X36745506Y-51809463D01*
X36648815Y-51888815D01*
X36569463Y-51985506D01*
X36510498Y-52095820D01*
X36474188Y-52215518D01*
X36461928Y-52340000D01*
X36461928Y-54340000D01*
X36474188Y-54464482D01*
X36510498Y-54584180D01*
X36569463Y-54694494D01*
X36648815Y-54791185D01*
X36745506Y-54870537D01*
X36833476Y-54917559D01*
X36701068Y-55078899D01*
X36567818Y-55328192D01*
X36485764Y-55598691D01*
X36458057Y-55880000D01*
X36220000Y-55880000D01*
X36220000Y-49388665D01*
X77305000Y-49388665D01*
X77305000Y-49671335D01*
X77360147Y-49948574D01*
X77468320Y-50209727D01*
X77625363Y-50444759D01*
X77825241Y-50644637D01*
X78060273Y-50801680D01*
X78321426Y-50909853D01*
X78598665Y-50965000D01*
X78881335Y-50965000D01*
X79158574Y-50909853D01*
X79419727Y-50801680D01*
X79654759Y-50644637D01*
X79854637Y-50444759D01*
X80011680Y-50209727D01*
X80119853Y-49948574D01*
X80175000Y-49671335D01*
X80175000Y-49388665D01*
X80119853Y-49111426D01*
X80011680Y-48850273D01*
X79854637Y-48615241D01*
X79654759Y-48415363D01*
X79419727Y-48258320D01*
X79158574Y-48150147D01*
X78881335Y-48095000D01*
X78598665Y-48095000D01*
X78321426Y-48150147D01*
X78060273Y-48258320D01*
X77825241Y-48415363D01*
X77625363Y-48615241D01*
X77468320Y-48850273D01*
X77360147Y-49111426D01*
X77305000Y-49388665D01*
X36220000Y-49388665D01*
X36220000Y-45618061D01*
X92945000Y-45618061D01*
X92945000Y-45821939D01*
X92984774Y-46021898D01*
X93062795Y-46210256D01*
X93176063Y-46379774D01*
X93320226Y-46523937D01*
X93489744Y-46637205D01*
X93678102Y-46715226D01*
X93878061Y-46755000D01*
X94081939Y-46755000D01*
X94281898Y-46715226D01*
X94470256Y-46637205D01*
X94518454Y-46605000D01*
X162021546Y-46605000D01*
X162069744Y-46637205D01*
X162258102Y-46715226D01*
X162458061Y-46755000D01*
X162661939Y-46755000D01*
X162861898Y-46715226D01*
X163050256Y-46637205D01*
X163219774Y-46523937D01*
X163363937Y-46379774D01*
X163477205Y-46210256D01*
X163555226Y-46021898D01*
X163595000Y-45821939D01*
X163595000Y-45618061D01*
X163555226Y-45418102D01*
X163477205Y-45229744D01*
X163363937Y-45060226D01*
X163219774Y-44916063D01*
X163050256Y-44802795D01*
X162861898Y-44724774D01*
X162661939Y-44685000D01*
X162458061Y-44685000D01*
X162258102Y-44724774D01*
X162069744Y-44802795D01*
X162021546Y-44835000D01*
X94518454Y-44835000D01*
X94470256Y-44802795D01*
X94281898Y-44724774D01*
X94081939Y-44685000D01*
X93878061Y-44685000D01*
X93678102Y-44724774D01*
X93489744Y-44802795D01*
X93320226Y-44916063D01*
X93176063Y-45060226D01*
X93062795Y-45229744D01*
X92984774Y-45418102D01*
X92945000Y-45618061D01*
X36220000Y-45618061D01*
X36220000Y-39541280D01*
X38342535Y-39541280D01*
X38342535Y-40458720D01*
X38521519Y-41358532D01*
X38872608Y-42206137D01*
X39382311Y-42968961D01*
X40031039Y-43617689D01*
X40793863Y-44127392D01*
X41641468Y-44478481D01*
X42541280Y-44657465D01*
X43458720Y-44657465D01*
X44358532Y-44478481D01*
X45206137Y-44127392D01*
X45968961Y-43617689D01*
X46617689Y-42968961D01*
X47127392Y-42206137D01*
X47308598Y-41768665D01*
X77305000Y-41768665D01*
X77305000Y-42051335D01*
X77360147Y-42328574D01*
X77468320Y-42589727D01*
X77625363Y-42824759D01*
X77825241Y-43024637D01*
X78060273Y-43181680D01*
X78321426Y-43289853D01*
X78598665Y-43345000D01*
X78881335Y-43345000D01*
X79158574Y-43289853D01*
X79419727Y-43181680D01*
X79654759Y-43024637D01*
X79854637Y-42824759D01*
X80011680Y-42589727D01*
X80119853Y-42328574D01*
X80175000Y-42051335D01*
X80175000Y-41768665D01*
X80119853Y-41491426D01*
X80011680Y-41230273D01*
X79854637Y-40995241D01*
X79654759Y-40795363D01*
X79419727Y-40638320D01*
X79158574Y-40530147D01*
X78881335Y-40475000D01*
X78598665Y-40475000D01*
X78321426Y-40530147D01*
X78060273Y-40638320D01*
X77825241Y-40795363D01*
X77625363Y-40995241D01*
X77468320Y-41230273D01*
X77360147Y-41491426D01*
X77305000Y-41768665D01*
X47308598Y-41768665D01*
X47478481Y-41358532D01*
X47657465Y-40458720D01*
X47657465Y-39541280D01*
X173142535Y-39541280D01*
X173142535Y-40458720D01*
X173321519Y-41358532D01*
X173672608Y-42206137D01*
X174182311Y-42968961D01*
X174831039Y-43617689D01*
X175593863Y-44127392D01*
X176441468Y-44478481D01*
X177341280Y-44657465D01*
X178258720Y-44657465D01*
X179158532Y-44478481D01*
X180006137Y-44127392D01*
X180768961Y-43617689D01*
X181417689Y-42968961D01*
X181927392Y-42206137D01*
X182278481Y-41358532D01*
X182457465Y-40458720D01*
X182457465Y-39541280D01*
X182278481Y-38641468D01*
X181927392Y-37793863D01*
X181417689Y-37031039D01*
X180768961Y-36382311D01*
X180006137Y-35872608D01*
X179158532Y-35521519D01*
X178258720Y-35342535D01*
X177341280Y-35342535D01*
X176441468Y-35521519D01*
X175593863Y-35872608D01*
X174831039Y-36382311D01*
X174182311Y-37031039D01*
X173672608Y-37793863D01*
X173321519Y-38641468D01*
X173142535Y-39541280D01*
X47657465Y-39541280D01*
X47478481Y-38641468D01*
X47127392Y-37793863D01*
X46617689Y-37031039D01*
X45968961Y-36382311D01*
X45206137Y-35872608D01*
X44358532Y-35521519D01*
X43458720Y-35342535D01*
X42541280Y-35342535D01*
X41641468Y-35521519D01*
X40793863Y-35872608D01*
X40031039Y-36382311D01*
X39382311Y-37031039D01*
X38872608Y-37793863D01*
X38521519Y-38641468D01*
X38342535Y-39541280D01*
X36220000Y-39541280D01*
X36220000Y-33680000D01*
X184900000Y-33680000D01*
X184900001Y-132360000D01*
%TA.AperFunction,Conductor*%
D27*
G36*
X184900001Y-132360000D02*
G01*
X36220000Y-132360000D01*
X36220000Y-124541280D01*
X38342535Y-124541280D01*
X38342535Y-125458720D01*
X38521519Y-126358532D01*
X38872608Y-127206137D01*
X39382311Y-127968961D01*
X40031039Y-128617689D01*
X40793863Y-129127392D01*
X41641468Y-129478481D01*
X42541280Y-129657465D01*
X43458720Y-129657465D01*
X44358532Y-129478481D01*
X45206137Y-129127392D01*
X45968961Y-128617689D01*
X46617689Y-127968961D01*
X47127392Y-127206137D01*
X47478481Y-126358532D01*
X47657465Y-125458720D01*
X47657465Y-124541280D01*
X173142535Y-124541280D01*
X173142535Y-125458720D01*
X173321519Y-126358532D01*
X173672608Y-127206137D01*
X174182311Y-127968961D01*
X174831039Y-128617689D01*
X175593863Y-129127392D01*
X176441468Y-129478481D01*
X177341280Y-129657465D01*
X178258720Y-129657465D01*
X179158532Y-129478481D01*
X180006137Y-129127392D01*
X180768961Y-128617689D01*
X181417689Y-127968961D01*
X181927392Y-127206137D01*
X182278481Y-126358532D01*
X182457465Y-125458720D01*
X182457465Y-124541280D01*
X182278481Y-123641468D01*
X181927392Y-122793863D01*
X181417689Y-122031039D01*
X180768961Y-121382311D01*
X180006137Y-120872608D01*
X179158532Y-120521519D01*
X178258720Y-120342535D01*
X177341280Y-120342535D01*
X176441468Y-120521519D01*
X175593863Y-120872608D01*
X174831039Y-121382311D01*
X174182311Y-122031039D01*
X173672608Y-122793863D01*
X173321519Y-123641468D01*
X173142535Y-124541280D01*
X47657465Y-124541280D01*
X47478481Y-123641468D01*
X47127392Y-122793863D01*
X46617689Y-122031039D01*
X45968961Y-121382311D01*
X45206137Y-120872608D01*
X44358532Y-120521519D01*
X43458720Y-120342535D01*
X42541280Y-120342535D01*
X41641468Y-120521519D01*
X40793863Y-120872608D01*
X40031039Y-121382311D01*
X39382311Y-122031039D01*
X38872608Y-122793863D01*
X38521519Y-123641468D01*
X38342535Y-124541280D01*
X36220000Y-124541280D01*
X36220000Y-116738061D01*
X108185000Y-116738061D01*
X108185000Y-116941939D01*
X108224774Y-117141898D01*
X108302795Y-117330256D01*
X108416063Y-117499774D01*
X108560226Y-117643937D01*
X108729744Y-117757205D01*
X108918102Y-117835226D01*
X109118061Y-117875000D01*
X109321939Y-117875000D01*
X109521898Y-117835226D01*
X109710256Y-117757205D01*
X109758454Y-117725000D01*
X162021546Y-117725000D01*
X162069744Y-117757205D01*
X162258102Y-117835226D01*
X162458061Y-117875000D01*
X162661939Y-117875000D01*
X162861898Y-117835226D01*
X163050256Y-117757205D01*
X163219774Y-117643937D01*
X163363937Y-117499774D01*
X163477205Y-117330256D01*
X163555226Y-117141898D01*
X163595000Y-116941939D01*
X163595000Y-116738061D01*
X163555226Y-116538102D01*
X163477205Y-116349744D01*
X163363937Y-116180226D01*
X163219774Y-116036063D01*
X163050256Y-115922795D01*
X162861898Y-115844774D01*
X162661939Y-115805000D01*
X162458061Y-115805000D01*
X162258102Y-115844774D01*
X162069744Y-115922795D01*
X162021546Y-115955000D01*
X109758454Y-115955000D01*
X109710256Y-115922795D01*
X109521898Y-115844774D01*
X109321939Y-115805000D01*
X109118061Y-115805000D01*
X108918102Y-115844774D01*
X108729744Y-115922795D01*
X108560226Y-116036063D01*
X108416063Y-116180226D01*
X108302795Y-116349744D01*
X108224774Y-116538102D01*
X108185000Y-116738061D01*
X36220000Y-116738061D01*
X36220000Y-114553400D01*
X47697573Y-114553400D01*
X47727210Y-114854313D01*
X47814983Y-115143661D01*
X47957519Y-115410327D01*
X48149339Y-115644061D01*
X48383073Y-115835881D01*
X48649739Y-115978417D01*
X48939087Y-116066190D01*
X49164592Y-116088400D01*
X51515408Y-116088400D01*
X51740913Y-116066190D01*
X52030261Y-115978417D01*
X52296927Y-115835881D01*
X52530661Y-115644061D01*
X52722481Y-115410327D01*
X52865017Y-115143661D01*
X52952790Y-114854313D01*
X52982427Y-114553400D01*
X52952790Y-114252487D01*
X52865017Y-113963139D01*
X52722481Y-113696473D01*
X52530661Y-113462739D01*
X52296927Y-113270919D01*
X52030261Y-113128383D01*
X51740913Y-113040610D01*
X51515408Y-113018400D01*
X49164592Y-113018400D01*
X48939087Y-113040610D01*
X48649739Y-113128383D01*
X48383073Y-113270919D01*
X48149339Y-113462739D01*
X47957519Y-113696473D01*
X47814983Y-113963139D01*
X47727210Y-114252487D01*
X47697573Y-114553400D01*
X36220000Y-114553400D01*
X36220000Y-109880400D01*
X46005000Y-109880400D01*
X46005000Y-110980400D01*
X46059271Y-111277423D01*
X46170446Y-111558151D01*
X46334252Y-111811796D01*
X46544394Y-112028610D01*
X46792796Y-112200262D01*
X47069913Y-112320155D01*
X47175260Y-112344436D01*
X47413000Y-112223778D01*
X47413000Y-109880400D01*
X47667000Y-109880400D01*
X47667000Y-112223778D01*
X47904740Y-112344436D01*
X48010087Y-112320155D01*
X48287204Y-112200262D01*
X48535606Y-112028610D01*
X48745748Y-111811796D01*
X48909554Y-111558151D01*
X49020729Y-111277423D01*
X49075000Y-110980400D01*
X49075000Y-109880400D01*
X47667000Y-109880400D01*
X47413000Y-109880400D01*
X46005000Y-109880400D01*
X36220000Y-109880400D01*
X36220000Y-108526400D01*
X46005000Y-108526400D01*
X46005000Y-109626400D01*
X47413000Y-109626400D01*
X47413000Y-107283022D01*
X47667000Y-107283022D01*
X47667000Y-109626400D01*
X49075000Y-109626400D01*
X49075000Y-108526400D01*
X49020729Y-108229377D01*
X48909554Y-107948649D01*
X48745748Y-107695004D01*
X48608502Y-107553400D01*
X51801928Y-107553400D01*
X51801928Y-111953400D01*
X51814188Y-112077882D01*
X51850498Y-112197580D01*
X51909463Y-112307894D01*
X51988815Y-112404585D01*
X52085506Y-112483937D01*
X52195820Y-112542902D01*
X52315518Y-112579212D01*
X52440000Y-112591472D01*
X54240000Y-112591472D01*
X54364482Y-112579212D01*
X54484180Y-112542902D01*
X54594494Y-112483937D01*
X54691185Y-112404585D01*
X54770537Y-112307894D01*
X54829502Y-112197580D01*
X54865812Y-112077882D01*
X54878072Y-111953400D01*
X54878072Y-107553400D01*
X54865812Y-107428918D01*
X54829502Y-107309220D01*
X54770537Y-107198906D01*
X54691185Y-107102215D01*
X54594494Y-107022863D01*
X54484180Y-106963898D01*
X54364482Y-106927588D01*
X54240000Y-106915328D01*
X52440000Y-106915328D01*
X52315518Y-106927588D01*
X52195820Y-106963898D01*
X52085506Y-107022863D01*
X51988815Y-107102215D01*
X51909463Y-107198906D01*
X51850498Y-107309220D01*
X51814188Y-107428918D01*
X51801928Y-107553400D01*
X48608502Y-107553400D01*
X48535606Y-107478190D01*
X48287204Y-107306538D01*
X48010087Y-107186645D01*
X47904740Y-107162364D01*
X47667000Y-107283022D01*
X47413000Y-107283022D01*
X47175260Y-107162364D01*
X47069913Y-107186645D01*
X46792796Y-107306538D01*
X46544394Y-107478190D01*
X46334252Y-107695004D01*
X46170446Y-107948649D01*
X46059271Y-108229377D01*
X46005000Y-108526400D01*
X36220000Y-108526400D01*
X36220000Y-98958061D01*
X108185000Y-98958061D01*
X108185000Y-99161939D01*
X108224774Y-99361898D01*
X108302795Y-99550256D01*
X108416063Y-99719774D01*
X108560226Y-99863937D01*
X108729744Y-99977205D01*
X108918102Y-100055226D01*
X109118061Y-100095000D01*
X109321939Y-100095000D01*
X109521898Y-100055226D01*
X109710256Y-99977205D01*
X109758454Y-99945000D01*
X162021546Y-99945000D01*
X162069744Y-99977205D01*
X162258102Y-100055226D01*
X162458061Y-100095000D01*
X162661939Y-100095000D01*
X162861898Y-100055226D01*
X163050256Y-99977205D01*
X163219774Y-99863937D01*
X163363937Y-99719774D01*
X163477205Y-99550256D01*
X163555226Y-99361898D01*
X163595000Y-99161939D01*
X163595000Y-98958061D01*
X163555226Y-98758102D01*
X163477205Y-98569744D01*
X163363937Y-98400226D01*
X163219774Y-98256063D01*
X163050256Y-98142795D01*
X162861898Y-98064774D01*
X162661939Y-98025000D01*
X162458061Y-98025000D01*
X162258102Y-98064774D01*
X162069744Y-98142795D01*
X162021546Y-98175000D01*
X109758454Y-98175000D01*
X109710256Y-98142795D01*
X109521898Y-98064774D01*
X109321939Y-98025000D01*
X109118061Y-98025000D01*
X108918102Y-98064774D01*
X108729744Y-98142795D01*
X108560226Y-98256063D01*
X108416063Y-98400226D01*
X108302795Y-98569744D01*
X108224774Y-98758102D01*
X108185000Y-98958061D01*
X36220000Y-98958061D01*
X36220000Y-97512702D01*
X50026903Y-97512702D01*
X50098486Y-97756671D01*
X50353996Y-97877571D01*
X50628184Y-97946300D01*
X50910512Y-97960217D01*
X51190130Y-97918787D01*
X51456292Y-97823603D01*
X51581514Y-97756671D01*
X51653097Y-97512702D01*
X50840000Y-96699605D01*
X50026903Y-97512702D01*
X36220000Y-97512702D01*
X36220000Y-96590512D01*
X49399783Y-96590512D01*
X49441213Y-96870130D01*
X49536397Y-97136292D01*
X49603329Y-97261514D01*
X49847298Y-97333097D01*
X50660395Y-96520000D01*
X51019605Y-96520000D01*
X51832702Y-97333097D01*
X51901928Y-97312785D01*
X51901928Y-97320000D01*
X51914188Y-97444482D01*
X51950498Y-97564180D01*
X52009463Y-97674494D01*
X52088815Y-97771185D01*
X52185506Y-97850537D01*
X52295820Y-97909502D01*
X52415518Y-97945812D01*
X52540000Y-97958072D01*
X54140000Y-97958072D01*
X54264482Y-97945812D01*
X54384180Y-97909502D01*
X54494494Y-97850537D01*
X54591185Y-97771185D01*
X54670537Y-97674494D01*
X54729502Y-97564180D01*
X54765812Y-97444482D01*
X54778072Y-97320000D01*
X54778072Y-95720000D01*
X54765812Y-95595518D01*
X54729502Y-95475820D01*
X54670537Y-95365506D01*
X54591185Y-95268815D01*
X54494494Y-95189463D01*
X54384180Y-95130498D01*
X54264482Y-95094188D01*
X54140000Y-95081928D01*
X52540000Y-95081928D01*
X52415518Y-95094188D01*
X52295820Y-95130498D01*
X52185506Y-95189463D01*
X52088815Y-95268815D01*
X52009463Y-95365506D01*
X51950498Y-95475820D01*
X51914188Y-95595518D01*
X51901928Y-95720000D01*
X51901928Y-95727215D01*
X51832702Y-95706903D01*
X51019605Y-96520000D01*
X50660395Y-96520000D01*
X49847298Y-95706903D01*
X49603329Y-95778486D01*
X49482429Y-96033996D01*
X49413700Y-96308184D01*
X49399783Y-96590512D01*
X36220000Y-96590512D01*
X36220000Y-95527298D01*
X50026903Y-95527298D01*
X50840000Y-96340395D01*
X51653097Y-95527298D01*
X51581514Y-95283329D01*
X51326004Y-95162429D01*
X51051816Y-95093700D01*
X50769488Y-95079783D01*
X50489870Y-95121213D01*
X50223708Y-95216397D01*
X50098486Y-95283329D01*
X50026903Y-95527298D01*
X36220000Y-95527298D01*
X36220000Y-89940000D01*
X41041928Y-89940000D01*
X41041928Y-92940000D01*
X41054188Y-93064482D01*
X41090498Y-93184180D01*
X41149463Y-93294494D01*
X41228815Y-93391185D01*
X41325506Y-93470537D01*
X41435820Y-93529502D01*
X41555518Y-93565812D01*
X41680000Y-93578072D01*
X44680000Y-93578072D01*
X44804482Y-93565812D01*
X44924180Y-93529502D01*
X45034494Y-93470537D01*
X45131185Y-93391185D01*
X45210537Y-93294494D01*
X45269502Y-93184180D01*
X45305812Y-93064482D01*
X45318072Y-92940000D01*
X45318072Y-91288816D01*
X51805000Y-91288816D01*
X51805000Y-91591184D01*
X51863989Y-91887743D01*
X51979701Y-92167095D01*
X52147688Y-92418505D01*
X52361495Y-92632312D01*
X52612905Y-92800299D01*
X52892257Y-92916011D01*
X53188816Y-92975000D01*
X53491184Y-92975000D01*
X53787743Y-92916011D01*
X54067095Y-92800299D01*
X54318505Y-92632312D01*
X54532312Y-92418505D01*
X54700299Y-92167095D01*
X54816011Y-91887743D01*
X54875000Y-91591184D01*
X54875000Y-91288816D01*
X54816011Y-90992257D01*
X54700299Y-90712905D01*
X54532312Y-90461495D01*
X54318505Y-90247688D01*
X54067095Y-90079701D01*
X53787743Y-89963989D01*
X53491184Y-89905000D01*
X53188816Y-89905000D01*
X52892257Y-89963989D01*
X52612905Y-90079701D01*
X52361495Y-90247688D01*
X52147688Y-90461495D01*
X51979701Y-90712905D01*
X51863989Y-90992257D01*
X51805000Y-91288816D01*
X45318072Y-91288816D01*
X45318072Y-89940000D01*
X45305812Y-89815518D01*
X45269502Y-89695820D01*
X45210537Y-89585506D01*
X45131185Y-89488815D01*
X45034494Y-89409463D01*
X44924180Y-89350498D01*
X44804482Y-89314188D01*
X44680000Y-89301928D01*
X41680000Y-89301928D01*
X41555518Y-89314188D01*
X41435820Y-89350498D01*
X41325506Y-89409463D01*
X41228815Y-89488815D01*
X41149463Y-89585506D01*
X41090498Y-89695820D01*
X41054188Y-89815518D01*
X41041928Y-89940000D01*
X36220000Y-89940000D01*
X36220000Y-87851653D01*
X41867952Y-87851653D01*
X42023962Y-88167214D01*
X42398745Y-88358020D01*
X42803551Y-88472044D01*
X43222824Y-88504902D01*
X43640451Y-88455334D01*
X44040383Y-88325243D01*
X44336038Y-88167214D01*
X44492048Y-87851653D01*
X43180000Y-86539605D01*
X41867952Y-87851653D01*
X36220000Y-87851653D01*
X36220000Y-86402824D01*
X41035098Y-86402824D01*
X41084666Y-86820451D01*
X41214757Y-87220383D01*
X41372786Y-87516038D01*
X41688347Y-87672048D01*
X43000395Y-86360000D01*
X43359605Y-86360000D01*
X44671653Y-87672048D01*
X44987214Y-87516038D01*
X45090734Y-87312702D01*
X60146903Y-87312702D01*
X60218486Y-87556671D01*
X60473996Y-87677571D01*
X60748184Y-87746300D01*
X61030512Y-87760217D01*
X61310130Y-87718787D01*
X61576292Y-87623603D01*
X61701514Y-87556671D01*
X61773097Y-87312702D01*
X60960000Y-86499605D01*
X60146903Y-87312702D01*
X45090734Y-87312702D01*
X45178020Y-87141255D01*
X45292044Y-86736449D01*
X45319154Y-86390512D01*
X59519783Y-86390512D01*
X59561213Y-86670130D01*
X59656397Y-86936292D01*
X59723329Y-87061514D01*
X59967298Y-87133097D01*
X60780395Y-86320000D01*
X61139605Y-86320000D01*
X61952702Y-87133097D01*
X62196671Y-87061514D01*
X62317571Y-86806004D01*
X62339908Y-86716891D01*
X69678519Y-86716891D01*
X69775843Y-86991252D01*
X69924822Y-87241355D01*
X70119731Y-87457588D01*
X70353080Y-87631641D01*
X70615901Y-87756825D01*
X70763110Y-87801476D01*
X70993000Y-87680155D01*
X70993000Y-86487000D01*
X69799186Y-86487000D01*
X69678519Y-86716891D01*
X62339908Y-86716891D01*
X62386300Y-86531816D01*
X62400217Y-86249488D01*
X62363712Y-86003109D01*
X69678519Y-86003109D01*
X69799186Y-86233000D01*
X70993000Y-86233000D01*
X70993000Y-85039845D01*
X70763110Y-84918524D01*
X70615901Y-84963175D01*
X70353080Y-85088359D01*
X70119731Y-85262412D01*
X69924822Y-85478645D01*
X69775843Y-85728748D01*
X69678519Y-86003109D01*
X62363712Y-86003109D01*
X62358787Y-85969870D01*
X62263603Y-85703708D01*
X62196671Y-85578486D01*
X61952702Y-85506903D01*
X61139605Y-86320000D01*
X60780395Y-86320000D01*
X59967298Y-85506903D01*
X59723329Y-85578486D01*
X59602429Y-85833996D01*
X59533700Y-86108184D01*
X59519783Y-86390512D01*
X45319154Y-86390512D01*
X45324902Y-86317176D01*
X45275334Y-85899549D01*
X45145243Y-85499617D01*
X44987214Y-85203962D01*
X44671653Y-85047952D01*
X43359605Y-86360000D01*
X43000395Y-86360000D01*
X41688347Y-85047952D01*
X41372786Y-85203962D01*
X41181980Y-85578745D01*
X41067956Y-85983551D01*
X41035098Y-86402824D01*
X36220000Y-86402824D01*
X36220000Y-84868347D01*
X41867952Y-84868347D01*
X43180000Y-86180395D01*
X44492048Y-84868347D01*
X44336038Y-84552786D01*
X43961255Y-84361980D01*
X43556449Y-84247956D01*
X43137176Y-84215098D01*
X42719549Y-84264666D01*
X42319617Y-84394757D01*
X42023962Y-84552786D01*
X41867952Y-84868347D01*
X36220000Y-84868347D01*
X36220000Y-82920000D01*
X51801928Y-82920000D01*
X51801928Y-84720000D01*
X51814188Y-84844482D01*
X51850498Y-84964180D01*
X51909463Y-85074494D01*
X51988815Y-85171185D01*
X52085506Y-85250537D01*
X52195820Y-85309502D01*
X52315518Y-85345812D01*
X52440000Y-85358072D01*
X54240000Y-85358072D01*
X54364482Y-85345812D01*
X54484180Y-85309502D01*
X54594494Y-85250537D01*
X54691185Y-85171185D01*
X54770537Y-85074494D01*
X54829502Y-84964180D01*
X54865812Y-84844482D01*
X54878072Y-84720000D01*
X54878072Y-83020000D01*
X59521928Y-83020000D01*
X59521928Y-84620000D01*
X59534188Y-84744482D01*
X59570498Y-84864180D01*
X59629463Y-84974494D01*
X59708815Y-85071185D01*
X59805506Y-85150537D01*
X59915820Y-85209502D01*
X60035518Y-85245812D01*
X60160000Y-85258072D01*
X60167215Y-85258072D01*
X60146903Y-85327298D01*
X60960000Y-86140395D01*
X61773097Y-85327298D01*
X61752785Y-85258072D01*
X61760000Y-85258072D01*
X61884482Y-85245812D01*
X62004180Y-85209502D01*
X62114494Y-85150537D01*
X62211185Y-85071185D01*
X62290537Y-84974494D01*
X62349502Y-84864180D01*
X62385812Y-84744482D01*
X62398072Y-84620000D01*
X62398072Y-83020000D01*
X62385812Y-82895518D01*
X62349502Y-82775820D01*
X62290537Y-82665506D01*
X62211185Y-82568815D01*
X62114494Y-82489463D01*
X62004180Y-82430498D01*
X61884482Y-82394188D01*
X61760000Y-82381928D01*
X60160000Y-82381928D01*
X60035518Y-82394188D01*
X59915820Y-82430498D01*
X59805506Y-82489463D01*
X59708815Y-82568815D01*
X59629463Y-82665506D01*
X59570498Y-82775820D01*
X59534188Y-82895518D01*
X59521928Y-83020000D01*
X54878072Y-83020000D01*
X54878072Y-82920000D01*
X54865812Y-82795518D01*
X54829502Y-82675820D01*
X54770537Y-82565506D01*
X54691185Y-82468815D01*
X54594494Y-82389463D01*
X54484180Y-82330498D01*
X54364482Y-82294188D01*
X54240000Y-82281928D01*
X52440000Y-82281928D01*
X52315518Y-82294188D01*
X52195820Y-82330498D01*
X52085506Y-82389463D01*
X51988815Y-82468815D01*
X51909463Y-82565506D01*
X51850498Y-82675820D01*
X51814188Y-82795518D01*
X51801928Y-82920000D01*
X36220000Y-82920000D01*
X36220000Y-55880000D01*
X36458057Y-55880000D01*
X36485764Y-56161309D01*
X36567818Y-56431808D01*
X36701068Y-56681101D01*
X36880392Y-56899608D01*
X37098899Y-57078932D01*
X37231858Y-57150000D01*
X37098899Y-57221068D01*
X36880392Y-57400392D01*
X36701068Y-57618899D01*
X36567818Y-57868192D01*
X36485764Y-58138691D01*
X36458057Y-58420000D01*
X36485764Y-58701309D01*
X36567818Y-58971808D01*
X36701068Y-59221101D01*
X36880392Y-59439608D01*
X37098899Y-59618932D01*
X37231858Y-59690000D01*
X37098899Y-59761068D01*
X36880392Y-59940392D01*
X36701068Y-60158899D01*
X36567818Y-60408192D01*
X36485764Y-60678691D01*
X36458057Y-60960000D01*
X36485764Y-61241309D01*
X36567818Y-61511808D01*
X36701068Y-61761101D01*
X36880392Y-61979608D01*
X37098899Y-62158932D01*
X37231858Y-62230000D01*
X37098899Y-62301068D01*
X36880392Y-62480392D01*
X36701068Y-62698899D01*
X36567818Y-62948192D01*
X36485764Y-63218691D01*
X36458057Y-63500000D01*
X36485764Y-63781309D01*
X36567818Y-64051808D01*
X36701068Y-64301101D01*
X36880392Y-64519608D01*
X37098899Y-64698932D01*
X37231858Y-64770000D01*
X37098899Y-64841068D01*
X36880392Y-65020392D01*
X36701068Y-65238899D01*
X36567818Y-65488192D01*
X36485764Y-65758691D01*
X36458057Y-66040000D01*
X36485764Y-66321309D01*
X36567818Y-66591808D01*
X36701068Y-66841101D01*
X36880392Y-67059608D01*
X37098899Y-67238932D01*
X37231858Y-67310000D01*
X37098899Y-67381068D01*
X36880392Y-67560392D01*
X36701068Y-67778899D01*
X36567818Y-68028192D01*
X36485764Y-68298691D01*
X36458057Y-68580000D01*
X36485764Y-68861309D01*
X36567818Y-69131808D01*
X36701068Y-69381101D01*
X36880392Y-69599608D01*
X37098899Y-69778932D01*
X37231858Y-69850000D01*
X37098899Y-69921068D01*
X36880392Y-70100392D01*
X36701068Y-70318899D01*
X36567818Y-70568192D01*
X36485764Y-70838691D01*
X36458057Y-71120000D01*
X36485764Y-71401309D01*
X36567818Y-71671808D01*
X36701068Y-71921101D01*
X36880392Y-72139608D01*
X37098899Y-72318932D01*
X37348192Y-72452182D01*
X37618691Y-72534236D01*
X37829508Y-72555000D01*
X38370492Y-72555000D01*
X38581309Y-72534236D01*
X38851808Y-72452182D01*
X39101101Y-72318932D01*
X39319608Y-72139608D01*
X39498932Y-71921101D01*
X39632182Y-71671808D01*
X39714236Y-71401309D01*
X39741943Y-71120000D01*
X59318057Y-71120000D01*
X59345764Y-71401309D01*
X59427818Y-71671808D01*
X59561068Y-71921101D01*
X59740392Y-72139608D01*
X59958899Y-72318932D01*
X60208192Y-72452182D01*
X60478691Y-72534236D01*
X60689508Y-72555000D01*
X61230492Y-72555000D01*
X61441309Y-72534236D01*
X61711808Y-72452182D01*
X61961101Y-72318932D01*
X62179608Y-72139608D01*
X62358932Y-71921101D01*
X62492182Y-71671808D01*
X62574236Y-71401309D01*
X62601943Y-71120000D01*
X62574236Y-70838691D01*
X62492182Y-70568192D01*
X62358932Y-70318899D01*
X62179608Y-70100392D01*
X61961101Y-69921068D01*
X61831655Y-69851878D01*
X61849227Y-69844430D01*
X62082662Y-69685673D01*
X62280639Y-69484425D01*
X62435551Y-69248421D01*
X62541444Y-68986730D01*
X62551904Y-68929039D01*
X62429915Y-68707000D01*
X61087000Y-68707000D01*
X61087000Y-68727000D01*
X60833000Y-68727000D01*
X60833000Y-68707000D01*
X59490085Y-68707000D01*
X59368096Y-68929039D01*
X59378556Y-68986730D01*
X59484449Y-69248421D01*
X59639361Y-69484425D01*
X59837338Y-69685673D01*
X60070773Y-69844430D01*
X60088345Y-69851878D01*
X59958899Y-69921068D01*
X59740392Y-70100392D01*
X59561068Y-70318899D01*
X59427818Y-70568192D01*
X59345764Y-70838691D01*
X59318057Y-71120000D01*
X39741943Y-71120000D01*
X39714236Y-70838691D01*
X39632182Y-70568192D01*
X39498932Y-70318899D01*
X39319608Y-70100392D01*
X39101101Y-69921068D01*
X38968142Y-69850000D01*
X39101101Y-69778932D01*
X39319608Y-69599608D01*
X39498932Y-69381101D01*
X39632182Y-69131808D01*
X39714236Y-68861309D01*
X39741943Y-68580000D01*
X39714236Y-68298691D01*
X39632182Y-68028192D01*
X39498932Y-67778899D01*
X39319608Y-67560392D01*
X39101101Y-67381068D01*
X38968142Y-67310000D01*
X39101101Y-67238932D01*
X39319608Y-67059608D01*
X39498932Y-66841101D01*
X39632182Y-66591808D01*
X39714236Y-66321309D01*
X39741943Y-66040000D01*
X39714236Y-65758691D01*
X39632182Y-65488192D01*
X39498932Y-65238899D01*
X39319608Y-65020392D01*
X39101101Y-64841068D01*
X38968142Y-64770000D01*
X39101101Y-64698932D01*
X39319608Y-64519608D01*
X39498932Y-64301101D01*
X39632182Y-64051808D01*
X39714236Y-63781309D01*
X39741943Y-63500000D01*
X39714236Y-63218691D01*
X39632182Y-62948192D01*
X39498932Y-62698899D01*
X39319608Y-62480392D01*
X39101101Y-62301068D01*
X38968142Y-62230000D01*
X39101101Y-62158932D01*
X39319608Y-61979608D01*
X39498932Y-61761101D01*
X39632182Y-61511808D01*
X39714236Y-61241309D01*
X39741943Y-60960000D01*
X39714236Y-60678691D01*
X39632182Y-60408192D01*
X39498932Y-60158899D01*
X39319608Y-59940392D01*
X39101101Y-59761068D01*
X38968142Y-59690000D01*
X39101101Y-59618932D01*
X39319608Y-59439608D01*
X39498932Y-59221101D01*
X39632182Y-58971808D01*
X39714236Y-58701309D01*
X39741943Y-58420000D01*
X39714236Y-58138691D01*
X39632182Y-57868192D01*
X39498932Y-57618899D01*
X39319608Y-57400392D01*
X39101101Y-57221068D01*
X38968142Y-57150000D01*
X39101101Y-57078932D01*
X39319608Y-56899608D01*
X39498932Y-56681101D01*
X39632182Y-56431808D01*
X39714236Y-56161309D01*
X39741943Y-55880000D01*
X39714236Y-55598691D01*
X39632182Y-55328192D01*
X39498932Y-55078899D01*
X39366524Y-54917559D01*
X39454494Y-54870537D01*
X39551185Y-54791185D01*
X39630537Y-54694494D01*
X39689502Y-54584180D01*
X39725812Y-54464482D01*
X39738072Y-54340000D01*
X39738072Y-53340000D01*
X59318057Y-53340000D01*
X59345764Y-53621309D01*
X59427818Y-53891808D01*
X59561068Y-54141101D01*
X59740392Y-54359608D01*
X59958899Y-54538932D01*
X60091858Y-54610000D01*
X59958899Y-54681068D01*
X59740392Y-54860392D01*
X59561068Y-55078899D01*
X59427818Y-55328192D01*
X59345764Y-55598691D01*
X59318057Y-55880000D01*
X59345764Y-56161309D01*
X59427818Y-56431808D01*
X59561068Y-56681101D01*
X59740392Y-56899608D01*
X59958899Y-57078932D01*
X60091858Y-57150000D01*
X59958899Y-57221068D01*
X59740392Y-57400392D01*
X59561068Y-57618899D01*
X59427818Y-57868192D01*
X59345764Y-58138691D01*
X59318057Y-58420000D01*
X59345764Y-58701309D01*
X59427818Y-58971808D01*
X59561068Y-59221101D01*
X59740392Y-59439608D01*
X59958899Y-59618932D01*
X60091858Y-59690000D01*
X59958899Y-59761068D01*
X59740392Y-59940392D01*
X59561068Y-60158899D01*
X59427818Y-60408192D01*
X59345764Y-60678691D01*
X59318057Y-60960000D01*
X59345764Y-61241309D01*
X59427818Y-61511808D01*
X59561068Y-61761101D01*
X59740392Y-61979608D01*
X59958899Y-62158932D01*
X60091858Y-62230000D01*
X59958899Y-62301068D01*
X59740392Y-62480392D01*
X59561068Y-62698899D01*
X59427818Y-62948192D01*
X59345764Y-63218691D01*
X59318057Y-63500000D01*
X59345764Y-63781309D01*
X59427818Y-64051808D01*
X59561068Y-64301101D01*
X59740392Y-64519608D01*
X59958899Y-64698932D01*
X60091858Y-64770000D01*
X59958899Y-64841068D01*
X59740392Y-65020392D01*
X59561068Y-65238899D01*
X59427818Y-65488192D01*
X59345764Y-65758691D01*
X59318057Y-66040000D01*
X59345764Y-66321309D01*
X59427818Y-66591808D01*
X59561068Y-66841101D01*
X59740392Y-67059608D01*
X59958899Y-67238932D01*
X60088345Y-67308122D01*
X60070773Y-67315570D01*
X59837338Y-67474327D01*
X59639361Y-67675575D01*
X59484449Y-67911579D01*
X59378556Y-68173270D01*
X59368096Y-68230961D01*
X59490085Y-68453000D01*
X60833000Y-68453000D01*
X60833000Y-68433000D01*
X61087000Y-68433000D01*
X61087000Y-68453000D01*
X62429915Y-68453000D01*
X62551904Y-68230961D01*
X62541444Y-68173270D01*
X62435551Y-67911579D01*
X62280639Y-67675575D01*
X62082662Y-67474327D01*
X61849227Y-67315570D01*
X61831655Y-67308122D01*
X61961101Y-67238932D01*
X62179608Y-67059608D01*
X62358932Y-66841101D01*
X62492182Y-66591808D01*
X62574236Y-66321309D01*
X62601943Y-66040000D01*
X62574236Y-65758691D01*
X62492182Y-65488192D01*
X62358932Y-65238899D01*
X62179608Y-65020392D01*
X61961101Y-64841068D01*
X61828142Y-64770000D01*
X61961101Y-64698932D01*
X62179608Y-64519608D01*
X62358932Y-64301101D01*
X62492182Y-64051808D01*
X62563878Y-63815456D01*
X62615001Y-63866580D01*
X62615000Y-68536531D01*
X62610719Y-68580000D01*
X62615000Y-68623469D01*
X62615000Y-68623476D01*
X62627805Y-68753489D01*
X62678411Y-68920312D01*
X62760589Y-69074058D01*
X62871183Y-69208817D01*
X62904956Y-69236534D01*
X75315001Y-81646580D01*
X75315000Y-85165344D01*
X75253368Y-85206525D01*
X75046525Y-85413368D01*
X74930000Y-85587760D01*
X74813475Y-85413368D01*
X74606632Y-85206525D01*
X74363411Y-85044010D01*
X74093158Y-84932068D01*
X73806260Y-84875000D01*
X73513740Y-84875000D01*
X73226842Y-84932068D01*
X72956589Y-85044010D01*
X72713368Y-85206525D01*
X72506525Y-85413368D01*
X72384805Y-85595534D01*
X72315178Y-85478645D01*
X72120269Y-85262412D01*
X71886920Y-85088359D01*
X71624099Y-84963175D01*
X71476890Y-84918524D01*
X71247000Y-85039845D01*
X71247000Y-86233000D01*
X71267000Y-86233000D01*
X71267000Y-86487000D01*
X71247000Y-86487000D01*
X71247000Y-87680155D01*
X71476890Y-87801476D01*
X71624099Y-87756825D01*
X71886920Y-87631641D01*
X72120269Y-87457588D01*
X72315178Y-87241355D01*
X72384805Y-87124466D01*
X72506525Y-87306632D01*
X72713368Y-87513475D01*
X72956589Y-87675990D01*
X73226842Y-87787932D01*
X73513740Y-87845000D01*
X73806260Y-87845000D01*
X74093158Y-87787932D01*
X74363411Y-87675990D01*
X74606632Y-87513475D01*
X74813475Y-87306632D01*
X74930000Y-87132240D01*
X75046525Y-87306632D01*
X75253368Y-87513475D01*
X75496589Y-87675990D01*
X75766842Y-87787932D01*
X76053740Y-87845000D01*
X76346260Y-87845000D01*
X76633158Y-87787932D01*
X76903411Y-87675990D01*
X77146632Y-87513475D01*
X77353475Y-87306632D01*
X77470000Y-87132240D01*
X77586525Y-87306632D01*
X77793368Y-87513475D01*
X78036589Y-87675990D01*
X78306842Y-87787932D01*
X78593740Y-87845000D01*
X78886260Y-87845000D01*
X79173158Y-87787932D01*
X79443411Y-87675990D01*
X79686632Y-87513475D01*
X79893475Y-87306632D01*
X80010000Y-87132240D01*
X80126525Y-87306632D01*
X80333368Y-87513475D01*
X80576589Y-87675990D01*
X80846842Y-87787932D01*
X81133740Y-87845000D01*
X81426260Y-87845000D01*
X81713158Y-87787932D01*
X81983411Y-87675990D01*
X82226632Y-87513475D01*
X82433475Y-87306632D01*
X82550000Y-87132240D01*
X82666525Y-87306632D01*
X82873368Y-87513475D01*
X83116589Y-87675990D01*
X83386842Y-87787932D01*
X83673740Y-87845000D01*
X83966260Y-87845000D01*
X84253158Y-87787932D01*
X84523411Y-87675990D01*
X84766632Y-87513475D01*
X84973475Y-87306632D01*
X85135990Y-87063411D01*
X85247932Y-86793158D01*
X85305000Y-86506260D01*
X85305000Y-86213740D01*
X85247932Y-85926842D01*
X85135990Y-85656589D01*
X84973475Y-85413368D01*
X84766632Y-85206525D01*
X84523411Y-85044010D01*
X84253158Y-84932068D01*
X83966260Y-84875000D01*
X83673740Y-84875000D01*
X83386842Y-84932068D01*
X83116589Y-85044010D01*
X82873368Y-85206525D01*
X82666525Y-85413368D01*
X82550000Y-85587760D01*
X82433475Y-85413368D01*
X82226632Y-85206525D01*
X81983411Y-85044010D01*
X81713158Y-84932068D01*
X81426260Y-84875000D01*
X81133740Y-84875000D01*
X80846842Y-84932068D01*
X80576589Y-85044010D01*
X80333368Y-85206525D01*
X80126525Y-85413368D01*
X80010000Y-85587760D01*
X79893475Y-85413368D01*
X79686632Y-85206525D01*
X79625000Y-85165344D01*
X79625000Y-81323465D01*
X79629281Y-81279999D01*
X79625000Y-81236533D01*
X79625000Y-81236523D01*
X79619243Y-81178061D01*
X92945000Y-81178061D01*
X92945000Y-81381939D01*
X92984774Y-81581898D01*
X93062795Y-81770256D01*
X93176063Y-81939774D01*
X93320226Y-82083937D01*
X93489744Y-82197205D01*
X93678102Y-82275226D01*
X93878061Y-82315000D01*
X94081939Y-82315000D01*
X94281898Y-82275226D01*
X94470256Y-82197205D01*
X94518454Y-82165000D01*
X162021546Y-82165000D01*
X162069744Y-82197205D01*
X162258102Y-82275226D01*
X162458061Y-82315000D01*
X162661939Y-82315000D01*
X162861898Y-82275226D01*
X163050256Y-82197205D01*
X163219774Y-82083937D01*
X163363937Y-81939774D01*
X163477205Y-81770256D01*
X163555226Y-81581898D01*
X163595000Y-81381939D01*
X163595000Y-81178061D01*
X163555226Y-80978102D01*
X163477205Y-80789744D01*
X163363937Y-80620226D01*
X163219774Y-80476063D01*
X163050256Y-80362795D01*
X162861898Y-80284774D01*
X162661939Y-80245000D01*
X162458061Y-80245000D01*
X162258102Y-80284774D01*
X162069744Y-80362795D01*
X162021546Y-80395000D01*
X94518454Y-80395000D01*
X94470256Y-80362795D01*
X94281898Y-80284774D01*
X94081939Y-80245000D01*
X93878061Y-80245000D01*
X93678102Y-80284774D01*
X93489744Y-80362795D01*
X93320226Y-80476063D01*
X93176063Y-80620226D01*
X93062795Y-80789744D01*
X92984774Y-80978102D01*
X92945000Y-81178061D01*
X79619243Y-81178061D01*
X79612195Y-81106510D01*
X79561589Y-80939687D01*
X79479411Y-80785941D01*
X79368817Y-80651183D01*
X79335051Y-80623472D01*
X66925000Y-68213422D01*
X66925000Y-63543469D01*
X66929281Y-63500000D01*
X66925000Y-63456531D01*
X66925000Y-63456523D01*
X66914877Y-63353740D01*
X67095000Y-63353740D01*
X67095000Y-63646260D01*
X67152068Y-63933158D01*
X67264010Y-64203411D01*
X67426525Y-64446632D01*
X67633368Y-64653475D01*
X67807760Y-64770000D01*
X67633368Y-64886525D01*
X67426525Y-65093368D01*
X67264010Y-65336589D01*
X67152068Y-65606842D01*
X67095000Y-65893740D01*
X67095000Y-66186260D01*
X67152068Y-66473158D01*
X67264010Y-66743411D01*
X67426525Y-66986632D01*
X67633368Y-67193475D01*
X67876589Y-67355990D01*
X68146842Y-67467932D01*
X68433740Y-67525000D01*
X68726260Y-67525000D01*
X69013158Y-67467932D01*
X69283411Y-67355990D01*
X69526632Y-67193475D01*
X69733475Y-66986632D01*
X69895990Y-66743411D01*
X70007932Y-66473158D01*
X70065000Y-66186260D01*
X70065000Y-65893740D01*
X70007932Y-65606842D01*
X69895990Y-65336589D01*
X69733475Y-65093368D01*
X69526632Y-64886525D01*
X69352240Y-64770000D01*
X69526632Y-64653475D01*
X69733475Y-64446632D01*
X69895990Y-64203411D01*
X70007932Y-63933158D01*
X70065000Y-63646260D01*
X70065000Y-63353740D01*
X77255000Y-63353740D01*
X77255000Y-63646260D01*
X77312068Y-63933158D01*
X77424010Y-64203411D01*
X77586525Y-64446632D01*
X77793368Y-64653475D01*
X77967760Y-64770000D01*
X77793368Y-64886525D01*
X77586525Y-65093368D01*
X77424010Y-65336589D01*
X77312068Y-65606842D01*
X77255000Y-65893740D01*
X77255000Y-66186260D01*
X77312068Y-66473158D01*
X77424010Y-66743411D01*
X77586525Y-66986632D01*
X77793368Y-67193475D01*
X78036589Y-67355990D01*
X78306842Y-67467932D01*
X78593740Y-67525000D01*
X78886260Y-67525000D01*
X79173158Y-67467932D01*
X79443411Y-67355990D01*
X79686632Y-67193475D01*
X79893475Y-66986632D01*
X80055990Y-66743411D01*
X80167932Y-66473158D01*
X80225000Y-66186260D01*
X80225000Y-65893740D01*
X80167932Y-65606842D01*
X80055990Y-65336589D01*
X79893475Y-65093368D01*
X79686632Y-64886525D01*
X79512240Y-64770000D01*
X79686632Y-64653475D01*
X79893475Y-64446632D01*
X80055990Y-64203411D01*
X80167932Y-63933158D01*
X80225000Y-63646260D01*
X80225000Y-63398061D01*
X92945000Y-63398061D01*
X92945000Y-63601939D01*
X92984774Y-63801898D01*
X93062795Y-63990256D01*
X93176063Y-64159774D01*
X93320226Y-64303937D01*
X93489744Y-64417205D01*
X93678102Y-64495226D01*
X93878061Y-64535000D01*
X94081939Y-64535000D01*
X94281898Y-64495226D01*
X94470256Y-64417205D01*
X94518454Y-64385000D01*
X162021546Y-64385000D01*
X162069744Y-64417205D01*
X162258102Y-64495226D01*
X162458061Y-64535000D01*
X162661939Y-64535000D01*
X162861898Y-64495226D01*
X163050256Y-64417205D01*
X163219774Y-64303937D01*
X163363937Y-64159774D01*
X163477205Y-63990256D01*
X163555226Y-63801898D01*
X163595000Y-63601939D01*
X163595000Y-63398061D01*
X163555226Y-63198102D01*
X163477205Y-63009744D01*
X163363937Y-62840226D01*
X163219774Y-62696063D01*
X163050256Y-62582795D01*
X162861898Y-62504774D01*
X162661939Y-62465000D01*
X162458061Y-62465000D01*
X162258102Y-62504774D01*
X162069744Y-62582795D01*
X162021546Y-62615000D01*
X94518454Y-62615000D01*
X94470256Y-62582795D01*
X94281898Y-62504774D01*
X94081939Y-62465000D01*
X93878061Y-62465000D01*
X93678102Y-62504774D01*
X93489744Y-62582795D01*
X93320226Y-62696063D01*
X93176063Y-62840226D01*
X93062795Y-63009744D01*
X92984774Y-63198102D01*
X92945000Y-63398061D01*
X80225000Y-63398061D01*
X80225000Y-63353740D01*
X80167932Y-63066842D01*
X80055990Y-62796589D01*
X79893475Y-62553368D01*
X79686632Y-62346525D01*
X79504466Y-62224805D01*
X79621355Y-62155178D01*
X79837588Y-61960269D01*
X80011641Y-61726920D01*
X80136825Y-61464099D01*
X80181476Y-61316890D01*
X80060155Y-61087000D01*
X78867000Y-61087000D01*
X78867000Y-61107000D01*
X78613000Y-61107000D01*
X78613000Y-61087000D01*
X77419845Y-61087000D01*
X77298524Y-61316890D01*
X77343175Y-61464099D01*
X77468359Y-61726920D01*
X77642412Y-61960269D01*
X77858645Y-62155178D01*
X77975534Y-62224805D01*
X77793368Y-62346525D01*
X77586525Y-62553368D01*
X77424010Y-62796589D01*
X77312068Y-63066842D01*
X77255000Y-63353740D01*
X70065000Y-63353740D01*
X70007932Y-63066842D01*
X69895990Y-62796589D01*
X69733475Y-62553368D01*
X69526632Y-62346525D01*
X69344466Y-62224805D01*
X69461355Y-62155178D01*
X69677588Y-61960269D01*
X69851641Y-61726920D01*
X69976825Y-61464099D01*
X70021476Y-61316890D01*
X69900155Y-61087000D01*
X68707000Y-61087000D01*
X68707000Y-61107000D01*
X68453000Y-61107000D01*
X68453000Y-61087000D01*
X67259845Y-61087000D01*
X67138524Y-61316890D01*
X67183175Y-61464099D01*
X67308359Y-61726920D01*
X67482412Y-61960269D01*
X67698645Y-62155178D01*
X67815534Y-62224805D01*
X67633368Y-62346525D01*
X67426525Y-62553368D01*
X67264010Y-62796589D01*
X67152068Y-63066842D01*
X67095000Y-63353740D01*
X66914877Y-63353740D01*
X66912195Y-63326510D01*
X66861589Y-63159687D01*
X66779411Y-63005941D01*
X66668817Y-62871183D01*
X66635051Y-62843472D01*
X62555303Y-58763724D01*
X62574236Y-58701309D01*
X62601943Y-58420000D01*
X62574236Y-58138691D01*
X62492182Y-57868192D01*
X62358932Y-57618899D01*
X62179608Y-57400392D01*
X61961101Y-57221068D01*
X61828142Y-57150000D01*
X61961101Y-57078932D01*
X62179608Y-56899608D01*
X62358932Y-56681101D01*
X62492182Y-56431808D01*
X62574236Y-56161309D01*
X62601943Y-55880000D01*
X62574236Y-55598691D01*
X62492182Y-55328192D01*
X62358932Y-55078899D01*
X62179608Y-54860392D01*
X61961101Y-54681068D01*
X61828142Y-54610000D01*
X61961101Y-54538932D01*
X62179608Y-54359608D01*
X62358932Y-54141101D01*
X62492182Y-53891808D01*
X62574236Y-53621309D01*
X62601943Y-53340000D01*
X62587538Y-53193740D01*
X67095000Y-53193740D01*
X67095000Y-53486260D01*
X67152068Y-53773158D01*
X67264010Y-54043411D01*
X67426525Y-54286632D01*
X67633368Y-54493475D01*
X67807760Y-54610000D01*
X67633368Y-54726525D01*
X67426525Y-54933368D01*
X67264010Y-55176589D01*
X67152068Y-55446842D01*
X67095000Y-55733740D01*
X67095000Y-56026260D01*
X67152068Y-56313158D01*
X67264010Y-56583411D01*
X67426525Y-56826632D01*
X67633368Y-57033475D01*
X67807760Y-57150000D01*
X67633368Y-57266525D01*
X67426525Y-57473368D01*
X67264010Y-57716589D01*
X67152068Y-57986842D01*
X67095000Y-58273740D01*
X67095000Y-58566260D01*
X67152068Y-58853158D01*
X67264010Y-59123411D01*
X67426525Y-59366632D01*
X67633368Y-59573475D01*
X67815534Y-59695195D01*
X67698645Y-59764822D01*
X67482412Y-59959731D01*
X67308359Y-60193080D01*
X67183175Y-60455901D01*
X67138524Y-60603110D01*
X67259845Y-60833000D01*
X68453000Y-60833000D01*
X68453000Y-60813000D01*
X68707000Y-60813000D01*
X68707000Y-60833000D01*
X69900155Y-60833000D01*
X70021476Y-60603110D01*
X69976825Y-60455901D01*
X69851641Y-60193080D01*
X69677588Y-59959731D01*
X69461355Y-59764822D01*
X69344466Y-59695195D01*
X69526632Y-59573475D01*
X69733475Y-59366632D01*
X69895990Y-59123411D01*
X70007932Y-58853158D01*
X70065000Y-58566260D01*
X70065000Y-58273740D01*
X70007932Y-57986842D01*
X69895990Y-57716589D01*
X69733475Y-57473368D01*
X69526632Y-57266525D01*
X69352240Y-57150000D01*
X69526632Y-57033475D01*
X69733475Y-56826632D01*
X69895990Y-56583411D01*
X70007932Y-56313158D01*
X70065000Y-56026260D01*
X70065000Y-55733740D01*
X70007932Y-55446842D01*
X69895990Y-55176589D01*
X69733475Y-54933368D01*
X69526632Y-54726525D01*
X69352240Y-54610000D01*
X69526632Y-54493475D01*
X69733475Y-54286632D01*
X69895990Y-54043411D01*
X70007932Y-53773158D01*
X70065000Y-53486260D01*
X70065000Y-53193740D01*
X77255000Y-53193740D01*
X77255000Y-53486260D01*
X77312068Y-53773158D01*
X77424010Y-54043411D01*
X77586525Y-54286632D01*
X77793368Y-54493475D01*
X77967760Y-54610000D01*
X77793368Y-54726525D01*
X77586525Y-54933368D01*
X77424010Y-55176589D01*
X77312068Y-55446842D01*
X77255000Y-55733740D01*
X77255000Y-56026260D01*
X77312068Y-56313158D01*
X77424010Y-56583411D01*
X77586525Y-56826632D01*
X77793368Y-57033475D01*
X77967760Y-57150000D01*
X77793368Y-57266525D01*
X77586525Y-57473368D01*
X77424010Y-57716589D01*
X77312068Y-57986842D01*
X77255000Y-58273740D01*
X77255000Y-58566260D01*
X77312068Y-58853158D01*
X77424010Y-59123411D01*
X77586525Y-59366632D01*
X77793368Y-59573475D01*
X77975534Y-59695195D01*
X77858645Y-59764822D01*
X77642412Y-59959731D01*
X77468359Y-60193080D01*
X77343175Y-60455901D01*
X77298524Y-60603110D01*
X77419845Y-60833000D01*
X78613000Y-60833000D01*
X78613000Y-60813000D01*
X78867000Y-60813000D01*
X78867000Y-60833000D01*
X80060155Y-60833000D01*
X80181476Y-60603110D01*
X80136825Y-60455901D01*
X80011641Y-60193080D01*
X79837588Y-59959731D01*
X79621355Y-59764822D01*
X79504466Y-59695195D01*
X79686632Y-59573475D01*
X79893475Y-59366632D01*
X80055990Y-59123411D01*
X80167932Y-58853158D01*
X80225000Y-58566260D01*
X80225000Y-58273740D01*
X80167932Y-57986842D01*
X80055990Y-57716589D01*
X79893475Y-57473368D01*
X79686632Y-57266525D01*
X79512240Y-57150000D01*
X79686632Y-57033475D01*
X79893475Y-56826632D01*
X80055990Y-56583411D01*
X80167932Y-56313158D01*
X80225000Y-56026260D01*
X80225000Y-55733740D01*
X80167932Y-55446842D01*
X80055990Y-55176589D01*
X79893475Y-54933368D01*
X79686632Y-54726525D01*
X79512240Y-54610000D01*
X79686632Y-54493475D01*
X79893475Y-54286632D01*
X80055990Y-54043411D01*
X80167932Y-53773158D01*
X80225000Y-53486260D01*
X80225000Y-53193740D01*
X80167932Y-52906842D01*
X80055990Y-52636589D01*
X79893475Y-52393368D01*
X79686632Y-52186525D01*
X79443411Y-52024010D01*
X79173158Y-51912068D01*
X78886260Y-51855000D01*
X78593740Y-51855000D01*
X78306842Y-51912068D01*
X78036589Y-52024010D01*
X77793368Y-52186525D01*
X77586525Y-52393368D01*
X77424010Y-52636589D01*
X77312068Y-52906842D01*
X77255000Y-53193740D01*
X70065000Y-53193740D01*
X70007932Y-52906842D01*
X69895990Y-52636589D01*
X69733475Y-52393368D01*
X69526632Y-52186525D01*
X69283411Y-52024010D01*
X69013158Y-51912068D01*
X68726260Y-51855000D01*
X68433740Y-51855000D01*
X68146842Y-51912068D01*
X67876589Y-52024010D01*
X67633368Y-52186525D01*
X67426525Y-52393368D01*
X67264010Y-52636589D01*
X67152068Y-52906842D01*
X67095000Y-53193740D01*
X62587538Y-53193740D01*
X62574236Y-53058691D01*
X62492182Y-52788192D01*
X62358932Y-52538899D01*
X62179608Y-52320392D01*
X61961101Y-52141068D01*
X61711808Y-52007818D01*
X61441309Y-51925764D01*
X61230492Y-51905000D01*
X60689508Y-51905000D01*
X60478691Y-51925764D01*
X60208192Y-52007818D01*
X59958899Y-52141068D01*
X59740392Y-52320392D01*
X59561068Y-52538899D01*
X59427818Y-52788192D01*
X59345764Y-53058691D01*
X59318057Y-53340000D01*
X39738072Y-53340000D01*
X39738072Y-52340000D01*
X39725812Y-52215518D01*
X39689502Y-52095820D01*
X39630537Y-51985506D01*
X39551185Y-51888815D01*
X39454494Y-51809463D01*
X39344180Y-51750498D01*
X39224482Y-51714188D01*
X39100000Y-51701928D01*
X37100000Y-51701928D01*
X36975518Y-51714188D01*
X36855820Y-51750498D01*
X36745506Y-51809463D01*
X36648815Y-51888815D01*
X36569463Y-51985506D01*
X36510498Y-52095820D01*
X36474188Y-52215518D01*
X36461928Y-52340000D01*
X36461928Y-54340000D01*
X36474188Y-54464482D01*
X36510498Y-54584180D01*
X36569463Y-54694494D01*
X36648815Y-54791185D01*
X36745506Y-54870537D01*
X36833476Y-54917559D01*
X36701068Y-55078899D01*
X36567818Y-55328192D01*
X36485764Y-55598691D01*
X36458057Y-55880000D01*
X36220000Y-55880000D01*
X36220000Y-49388665D01*
X77305000Y-49388665D01*
X77305000Y-49671335D01*
X77360147Y-49948574D01*
X77468320Y-50209727D01*
X77625363Y-50444759D01*
X77825241Y-50644637D01*
X78060273Y-50801680D01*
X78321426Y-50909853D01*
X78598665Y-50965000D01*
X78881335Y-50965000D01*
X79158574Y-50909853D01*
X79419727Y-50801680D01*
X79654759Y-50644637D01*
X79854637Y-50444759D01*
X80011680Y-50209727D01*
X80119853Y-49948574D01*
X80175000Y-49671335D01*
X80175000Y-49388665D01*
X80119853Y-49111426D01*
X80011680Y-48850273D01*
X79854637Y-48615241D01*
X79654759Y-48415363D01*
X79419727Y-48258320D01*
X79158574Y-48150147D01*
X78881335Y-48095000D01*
X78598665Y-48095000D01*
X78321426Y-48150147D01*
X78060273Y-48258320D01*
X77825241Y-48415363D01*
X77625363Y-48615241D01*
X77468320Y-48850273D01*
X77360147Y-49111426D01*
X77305000Y-49388665D01*
X36220000Y-49388665D01*
X36220000Y-45618061D01*
X92945000Y-45618061D01*
X92945000Y-45821939D01*
X92984774Y-46021898D01*
X93062795Y-46210256D01*
X93176063Y-46379774D01*
X93320226Y-46523937D01*
X93489744Y-46637205D01*
X93678102Y-46715226D01*
X93878061Y-46755000D01*
X94081939Y-46755000D01*
X94281898Y-46715226D01*
X94470256Y-46637205D01*
X94518454Y-46605000D01*
X162021546Y-46605000D01*
X162069744Y-46637205D01*
X162258102Y-46715226D01*
X162458061Y-46755000D01*
X162661939Y-46755000D01*
X162861898Y-46715226D01*
X163050256Y-46637205D01*
X163219774Y-46523937D01*
X163363937Y-46379774D01*
X163477205Y-46210256D01*
X163555226Y-46021898D01*
X163595000Y-45821939D01*
X163595000Y-45618061D01*
X163555226Y-45418102D01*
X163477205Y-45229744D01*
X163363937Y-45060226D01*
X163219774Y-44916063D01*
X163050256Y-44802795D01*
X162861898Y-44724774D01*
X162661939Y-44685000D01*
X162458061Y-44685000D01*
X162258102Y-44724774D01*
X162069744Y-44802795D01*
X162021546Y-44835000D01*
X94518454Y-44835000D01*
X94470256Y-44802795D01*
X94281898Y-44724774D01*
X94081939Y-44685000D01*
X93878061Y-44685000D01*
X93678102Y-44724774D01*
X93489744Y-44802795D01*
X93320226Y-44916063D01*
X93176063Y-45060226D01*
X93062795Y-45229744D01*
X92984774Y-45418102D01*
X92945000Y-45618061D01*
X36220000Y-45618061D01*
X36220000Y-39541280D01*
X38342535Y-39541280D01*
X38342535Y-40458720D01*
X38521519Y-41358532D01*
X38872608Y-42206137D01*
X39382311Y-42968961D01*
X40031039Y-43617689D01*
X40793863Y-44127392D01*
X41641468Y-44478481D01*
X42541280Y-44657465D01*
X43458720Y-44657465D01*
X44358532Y-44478481D01*
X45206137Y-44127392D01*
X45968961Y-43617689D01*
X46617689Y-42968961D01*
X47127392Y-42206137D01*
X47308598Y-41768665D01*
X77305000Y-41768665D01*
X77305000Y-42051335D01*
X77360147Y-42328574D01*
X77468320Y-42589727D01*
X77625363Y-42824759D01*
X77825241Y-43024637D01*
X78060273Y-43181680D01*
X78321426Y-43289853D01*
X78598665Y-43345000D01*
X78881335Y-43345000D01*
X79158574Y-43289853D01*
X79419727Y-43181680D01*
X79654759Y-43024637D01*
X79854637Y-42824759D01*
X80011680Y-42589727D01*
X80119853Y-42328574D01*
X80175000Y-42051335D01*
X80175000Y-41768665D01*
X80119853Y-41491426D01*
X80011680Y-41230273D01*
X79854637Y-40995241D01*
X79654759Y-40795363D01*
X79419727Y-40638320D01*
X79158574Y-40530147D01*
X78881335Y-40475000D01*
X78598665Y-40475000D01*
X78321426Y-40530147D01*
X78060273Y-40638320D01*
X77825241Y-40795363D01*
X77625363Y-40995241D01*
X77468320Y-41230273D01*
X77360147Y-41491426D01*
X77305000Y-41768665D01*
X47308598Y-41768665D01*
X47478481Y-41358532D01*
X47657465Y-40458720D01*
X47657465Y-39541280D01*
X173142535Y-39541280D01*
X173142535Y-40458720D01*
X173321519Y-41358532D01*
X173672608Y-42206137D01*
X174182311Y-42968961D01*
X174831039Y-43617689D01*
X175593863Y-44127392D01*
X176441468Y-44478481D01*
X177341280Y-44657465D01*
X178258720Y-44657465D01*
X179158532Y-44478481D01*
X180006137Y-44127392D01*
X180768961Y-43617689D01*
X181417689Y-42968961D01*
X181927392Y-42206137D01*
X182278481Y-41358532D01*
X182457465Y-40458720D01*
X182457465Y-39541280D01*
X182278481Y-38641468D01*
X181927392Y-37793863D01*
X181417689Y-37031039D01*
X180768961Y-36382311D01*
X180006137Y-35872608D01*
X179158532Y-35521519D01*
X178258720Y-35342535D01*
X177341280Y-35342535D01*
X176441468Y-35521519D01*
X175593863Y-35872608D01*
X174831039Y-36382311D01*
X174182311Y-37031039D01*
X173672608Y-37793863D01*
X173321519Y-38641468D01*
X173142535Y-39541280D01*
X47657465Y-39541280D01*
X47478481Y-38641468D01*
X47127392Y-37793863D01*
X46617689Y-37031039D01*
X45968961Y-36382311D01*
X45206137Y-35872608D01*
X44358532Y-35521519D01*
X43458720Y-35342535D01*
X42541280Y-35342535D01*
X41641468Y-35521519D01*
X40793863Y-35872608D01*
X40031039Y-36382311D01*
X39382311Y-37031039D01*
X38872608Y-37793863D01*
X38521519Y-38641468D01*
X38342535Y-39541280D01*
X36220000Y-39541280D01*
X36220000Y-33680000D01*
X184900000Y-33680000D01*
X184900001Y-132360000D01*
G37*
%TD.AperFunction*%
%TD*%
M02*
