%TF.GenerationSoftware,KiCad,Pcbnew,5.1.10*%
%TF.CreationDate,2021-10-31T13:45:51+01:00*%
%TF.ProjectId,binaryclock,62696e61-7279-4636-9c6f-636b2e6b6963,rev?*%
%TF.SameCoordinates,Original*%
%TF.FileFunction,Soldermask,Bot*%
%TF.FilePolarity,Negative*%
%FSLAX46Y46*%
G04 Gerber Fmt 4.6, Leading zero omitted, Abs format (unit mm)*
G04 Created by KiCad (PCBNEW 5.1.10) date 2021-10-31 13:45:51*
%MOMM*%
%LPD*%
G01*
G04 APERTURE LIST*
%ADD10O,1.700000X1.700000*%
%ADD11C,1.700000*%
%ADD12C,1.600000*%
%ADD13R,1.600000X1.600000*%
%ADD14R,1.800000X1.800000*%
%ADD15O,1.800000X1.800000*%
%ADD16O,4.000000X1.800000*%
%ADD17O,1.800000X4.000000*%
%ADD18R,1.800000X4.400000*%
%ADD19C,3.000000*%
%ADD20R,3.000000X3.000000*%
%ADD21O,1.600000X1.600000*%
%ADD22O,2.000000X1.600000*%
%ADD23R,2.000000X2.000000*%
G04 APERTURE END LIST*
D10*
%TO.C,J5*%
X71120000Y-86360000D03*
X73660000Y-86360000D03*
X76200000Y-86360000D03*
X78740000Y-86360000D03*
X81280000Y-86360000D03*
D11*
X83820000Y-86360000D03*
%TD*%
D12*
%TO.C,C1*%
X50840000Y-96520000D03*
D13*
X53340000Y-96520000D03*
%TD*%
%TO.C,C2*%
X60960000Y-83820000D03*
D12*
X60960000Y-86320000D03*
%TD*%
D14*
%TO.C,D1*%
X53340000Y-83820000D03*
D15*
X53340000Y-91440000D03*
%TD*%
D16*
%TO.C,J1*%
X50340000Y-114553400D03*
D17*
X47540000Y-109753400D03*
D18*
X53340000Y-109753400D03*
%TD*%
D19*
%TO.C,J2*%
X43180000Y-86360000D03*
D20*
X43180000Y-91440000D03*
%TD*%
D10*
%TO.C,J3*%
X68580000Y-66040000D03*
X68580000Y-63500000D03*
X68580000Y-60960000D03*
X68580000Y-58420000D03*
X68580000Y-55880000D03*
D11*
X68580000Y-53340000D03*
%TD*%
%TO.C,J4*%
X78740000Y-66040000D03*
D10*
X78740000Y-63500000D03*
X78740000Y-60960000D03*
X78740000Y-58420000D03*
X78740000Y-55880000D03*
X78740000Y-53340000D03*
%TD*%
D12*
%TO.C,R1*%
X78740000Y-41910000D03*
D21*
X78740000Y-49530000D03*
%TD*%
D22*
%TO.C,U1*%
X38100000Y-55880000D03*
D23*
X38100000Y-53340000D03*
D22*
X38100000Y-58420000D03*
X38100000Y-60960000D03*
X38100000Y-63500000D03*
X38100000Y-66040000D03*
X38100000Y-68580000D03*
X38100000Y-71120000D03*
X60960000Y-71120000D03*
X60960000Y-68580000D03*
X60960000Y-66040000D03*
X60960000Y-63500000D03*
X60960000Y-60960000D03*
X60960000Y-58420000D03*
X60960000Y-55880000D03*
X60960000Y-53340000D03*
%TD*%
M02*
