%FSLAX45Y45*%
G04 Gerber Fmt 4.5, Leading zero omitted, Abs format (unit mm)*
G04 Created by KiCad (PCBNEW 5.1.10) date 2021-10-31 13:48:07*
%MOMM*%
%LPD*%
G01*
G04 APERTURE LIST*
%TA.AperFunction,Profile*%
%ADD10C,0.050000*%
%TD*%
%ADD11C,0.200000*%
%ADD12C,0.300000*%
G04 APERTURE END LIST*
D10*
X18180000Y-12500000D02*
G75*
G03*
X18180000Y-12500000I-400000J0D01*
G01*
X18180000Y-4000000D02*
G75*
G03*
X18180000Y-4000000I-400000J0D01*
G01*
X4700000Y-4000000D02*
G75*
G03*
X4700000Y-4000000I-400000J0D01*
G01*
X4700000Y-12500000D02*
G75*
G03*
X4700000Y-12500000I-400000J0D01*
G01*
X18556000Y-3302000D02*
X18556000Y-13302000D01*
X3556000Y-13302000D02*
X18556000Y-13302000D01*
X3556000Y-3302000D02*
X3556000Y-13302000D01*
X3556000Y-3302000D02*
X18556000Y-3302000D01*
D11*
X9378000Y-4552000D02*
X9418000Y-4592000D01*
X9418000Y-4552000D02*
X9378000Y-4592000D01*
X9378000Y-5568000D02*
X9418000Y-5608000D01*
X9418000Y-5568000D02*
X9378000Y-5608000D01*
X9378000Y-6330000D02*
X9418000Y-6370000D01*
X9418000Y-6330000D02*
X9378000Y-6370000D01*
X9378000Y-7346000D02*
X9418000Y-7386000D01*
X9418000Y-7346000D02*
X9378000Y-7386000D01*
X9378000Y-8108000D02*
X9418000Y-8148000D01*
X9418000Y-8108000D02*
X9378000Y-8148000D01*
X10902000Y-5568000D02*
X10942000Y-5608000D01*
X10942000Y-5568000D02*
X10902000Y-5608000D01*
X10902000Y-7346000D02*
X10942000Y-7386000D01*
X10942000Y-7346000D02*
X10902000Y-7386000D01*
X10902000Y-9124000D02*
X10942000Y-9164000D01*
X10942000Y-9124000D02*
X10902000Y-9164000D01*
X10902000Y-9886000D02*
X10942000Y-9926000D01*
X10942000Y-9886000D02*
X10902000Y-9926000D01*
X10902000Y-10902000D02*
X10942000Y-10942000D01*
X10942000Y-10902000D02*
X10902000Y-10942000D01*
X10902000Y-11664000D02*
X10942000Y-11704000D01*
X10942000Y-11664000D02*
X10902000Y-11704000D01*
X12426000Y-5568000D02*
X12466000Y-5608000D01*
X12466000Y-5568000D02*
X12426000Y-5608000D01*
X12426000Y-7346000D02*
X12466000Y-7386000D01*
X12466000Y-7346000D02*
X12426000Y-7386000D01*
X12426000Y-9124000D02*
X12466000Y-9164000D01*
X12466000Y-9124000D02*
X12426000Y-9164000D01*
X12426000Y-10902000D02*
X12466000Y-10942000D01*
X12466000Y-10902000D02*
X12426000Y-10942000D01*
X12426000Y-12680000D02*
X12466000Y-12720000D01*
X12466000Y-12680000D02*
X12426000Y-12720000D01*
X13950000Y-5568000D02*
X13990000Y-5608000D01*
X13990000Y-5568000D02*
X13950000Y-5608000D01*
X13950000Y-7346000D02*
X13990000Y-7386000D01*
X13990000Y-7346000D02*
X13950000Y-7386000D01*
X13950000Y-9124000D02*
X13990000Y-9164000D01*
X13990000Y-9124000D02*
X13950000Y-9164000D01*
X13950000Y-10902000D02*
X13990000Y-10942000D01*
X13990000Y-10902000D02*
X13950000Y-10942000D01*
X13950000Y-12680000D02*
X13990000Y-12720000D01*
X13990000Y-12680000D02*
X13950000Y-12720000D01*
X15474000Y-5568000D02*
X15514000Y-5608000D01*
X15514000Y-5568000D02*
X15474000Y-5608000D01*
X15474000Y-7346000D02*
X15514000Y-7386000D01*
X15514000Y-7346000D02*
X15474000Y-7386000D01*
X15474000Y-9124000D02*
X15514000Y-9164000D01*
X15514000Y-9124000D02*
X15474000Y-9164000D01*
X15474000Y-10902000D02*
X15514000Y-10942000D01*
X15514000Y-10902000D02*
X15474000Y-10942000D01*
X15474000Y-12680000D02*
X15514000Y-12720000D01*
X15514000Y-12680000D02*
X15474000Y-12720000D01*
X16236000Y-4552000D02*
X16276000Y-4592000D01*
X16276000Y-4552000D02*
X16236000Y-4592000D01*
X16236000Y-6330000D02*
X16276000Y-6370000D01*
X16276000Y-6330000D02*
X16236000Y-6370000D01*
X16236000Y-8108000D02*
X16276000Y-8148000D01*
X16276000Y-8108000D02*
X16236000Y-8148000D01*
X16236000Y-9886000D02*
X16276000Y-9926000D01*
X16276000Y-9886000D02*
X16236000Y-9926000D01*
X16236000Y-11664000D02*
X16276000Y-11704000D01*
X16276000Y-11664000D02*
X16236000Y-11704000D01*
X16998000Y-5568000D02*
X17038000Y-5608000D01*
X17038000Y-5568000D02*
X16998000Y-5608000D01*
X16998000Y-7346000D02*
X17038000Y-7386000D01*
X17038000Y-7346000D02*
X16998000Y-7386000D01*
X16998000Y-9124000D02*
X17038000Y-9164000D01*
X17038000Y-9124000D02*
X16998000Y-9164000D01*
X16998000Y-10902000D02*
X17038000Y-10942000D01*
X17038000Y-10902000D02*
X16998000Y-10942000D01*
X16998000Y-12680000D02*
X17038000Y-12720000D01*
X17038000Y-12680000D02*
X16998000Y-12720000D01*
X4794000Y-10975340D02*
G75*
G03*
X4794000Y-10975340I-40000J0D01*
G01*
X4724000Y-10865340D02*
X4724000Y-11085340D01*
X4784000Y-10865340D02*
X4784000Y-11085340D01*
X4724000Y-11085340D02*
G75*
G03*
X4784000Y-11085340I30000J0D01*
G01*
X4784000Y-10865340D02*
G75*
G03*
X4724000Y-10865340I-30000J0D01*
G01*
X5074000Y-11455340D02*
G75*
G03*
X5074000Y-11455340I-40000J0D01*
G01*
X4924000Y-11485340D02*
X5144000Y-11485340D01*
X4924000Y-11425340D02*
X5144000Y-11425340D01*
X5144000Y-11485340D02*
G75*
G03*
X5144000Y-11425340I0J30000D01*
G01*
X4924000Y-11425340D02*
G75*
G03*
X4924000Y-11485340I0J-30000D01*
G01*
X5124000Y-9652000D02*
G75*
G03*
X5124000Y-9652000I-40000J0D01*
G01*
X5374000Y-9652000D02*
G75*
G03*
X5374000Y-9652000I-40000J0D01*
G01*
X5374000Y-10975340D02*
G75*
G03*
X5374000Y-10975340I-40000J0D01*
G01*
X5304000Y-10845340D02*
X5304000Y-11105340D01*
X5364000Y-10845340D02*
X5364000Y-11105340D01*
X5304000Y-11105340D02*
G75*
G03*
X5364000Y-11105340I30000J0D01*
G01*
X5364000Y-10845340D02*
G75*
G03*
X5304000Y-10845340I-30000J0D01*
G01*
X6136000Y-8382000D02*
G75*
G03*
X6136000Y-8382000I-40000J0D01*
G01*
X6136000Y-8632000D02*
G75*
G03*
X6136000Y-8632000I-40000J0D01*
G01*
X7914000Y-4191000D02*
G75*
G03*
X7914000Y-4191000I-40000J0D01*
G01*
X7914000Y-4953000D02*
G75*
G03*
X7914000Y-4953000I-40000J0D01*
G01*
X5334000Y-8337000D02*
X5334000Y-8427000D01*
X5289000Y-8382000D02*
X5379000Y-8382000D01*
X5334000Y-9099000D02*
X5334000Y-9189000D01*
X5289000Y-9144000D02*
X5379000Y-9144000D01*
X3845356Y-5369356D02*
X3845356Y-5298644D01*
X3774644Y-5298644D01*
X3774644Y-5369356D01*
X3845356Y-5369356D01*
X3845356Y-5623356D02*
X3845356Y-5552644D01*
X3774644Y-5552644D01*
X3774644Y-5623356D01*
X3845356Y-5623356D01*
X3845356Y-5877356D02*
X3845356Y-5806644D01*
X3774644Y-5806644D01*
X3774644Y-5877356D01*
X3845356Y-5877356D01*
X3845356Y-6131356D02*
X3845356Y-6060644D01*
X3774644Y-6060644D01*
X3774644Y-6131356D01*
X3845356Y-6131356D01*
X3845356Y-6385356D02*
X3845356Y-6314644D01*
X3774644Y-6314644D01*
X3774644Y-6385356D01*
X3845356Y-6385356D01*
X3845356Y-6639356D02*
X3845356Y-6568644D01*
X3774644Y-6568644D01*
X3774644Y-6639356D01*
X3845356Y-6639356D01*
X3845356Y-6893356D02*
X3845356Y-6822644D01*
X3774644Y-6822644D01*
X3774644Y-6893356D01*
X3845356Y-6893356D01*
X3845356Y-7147356D02*
X3845356Y-7076644D01*
X3774644Y-7076644D01*
X3774644Y-7147356D01*
X3845356Y-7147356D01*
X6131356Y-5369356D02*
X6131356Y-5298644D01*
X6060644Y-5298644D01*
X6060644Y-5369356D01*
X6131356Y-5369356D01*
X6131356Y-5623356D02*
X6131356Y-5552644D01*
X6060644Y-5552644D01*
X6060644Y-5623356D01*
X6131356Y-5623356D01*
X6131356Y-5877356D02*
X6131356Y-5806644D01*
X6060644Y-5806644D01*
X6060644Y-5877356D01*
X6131356Y-5877356D01*
X6131356Y-6131356D02*
X6131356Y-6060644D01*
X6060644Y-6060644D01*
X6060644Y-6131356D01*
X6131356Y-6131356D01*
X6131356Y-6385356D02*
X6131356Y-6314644D01*
X6060644Y-6314644D01*
X6060644Y-6385356D01*
X6131356Y-6385356D01*
X6131356Y-6639356D02*
X6131356Y-6568644D01*
X6060644Y-6568644D01*
X6060644Y-6639356D01*
X6131356Y-6639356D01*
X6131356Y-6893356D02*
X6131356Y-6822644D01*
X6060644Y-6822644D01*
X6060644Y-6893356D01*
X6131356Y-6893356D01*
X6131356Y-7147356D02*
X6131356Y-7076644D01*
X6060644Y-7076644D01*
X6060644Y-7147356D01*
X6131356Y-7147356D01*
X6893356Y-5369356D02*
X6893356Y-5298644D01*
X6822644Y-5298644D01*
X6822644Y-5369356D01*
X6893356Y-5369356D01*
X6893356Y-5623356D02*
X6893356Y-5552644D01*
X6822644Y-5552644D01*
X6822644Y-5623356D01*
X6893356Y-5623356D01*
X6893356Y-5877356D02*
X6893356Y-5806644D01*
X6822644Y-5806644D01*
X6822644Y-5877356D01*
X6893356Y-5877356D01*
X6893356Y-6131356D02*
X6893356Y-6060644D01*
X6822644Y-6060644D01*
X6822644Y-6131356D01*
X6893356Y-6131356D01*
X6893356Y-6385356D02*
X6893356Y-6314644D01*
X6822644Y-6314644D01*
X6822644Y-6385356D01*
X6893356Y-6385356D01*
X6893356Y-6639356D02*
X6893356Y-6568644D01*
X6822644Y-6568644D01*
X6822644Y-6639356D01*
X6893356Y-6639356D01*
X7147356Y-8671356D02*
X7147356Y-8600644D01*
X7076644Y-8600644D01*
X7076644Y-8671356D01*
X7147356Y-8671356D01*
X7401356Y-8671356D02*
X7401356Y-8600644D01*
X7330644Y-8600644D01*
X7330644Y-8671356D01*
X7401356Y-8671356D01*
X7655356Y-8671356D02*
X7655356Y-8600644D01*
X7584644Y-8600644D01*
X7584644Y-8671356D01*
X7655356Y-8671356D01*
X7909356Y-5369356D02*
X7909356Y-5298644D01*
X7838644Y-5298644D01*
X7838644Y-5369356D01*
X7909356Y-5369356D01*
X7909356Y-5623356D02*
X7909356Y-5552644D01*
X7838644Y-5552644D01*
X7838644Y-5623356D01*
X7909356Y-5623356D01*
X7909356Y-5877356D02*
X7909356Y-5806644D01*
X7838644Y-5806644D01*
X7838644Y-5877356D01*
X7909356Y-5877356D01*
X7909356Y-6131356D02*
X7909356Y-6060644D01*
X7838644Y-6060644D01*
X7838644Y-6131356D01*
X7909356Y-6131356D01*
X7909356Y-6385356D02*
X7909356Y-6314644D01*
X7838644Y-6314644D01*
X7838644Y-6385356D01*
X7909356Y-6385356D01*
X7909356Y-6639356D02*
X7909356Y-6568644D01*
X7838644Y-6568644D01*
X7838644Y-6639356D01*
X7909356Y-6639356D01*
X7909356Y-8671356D02*
X7909356Y-8600644D01*
X7838644Y-8600644D01*
X7838644Y-8671356D01*
X7909356Y-8671356D01*
X8163356Y-8671356D02*
X8163356Y-8600644D01*
X8092644Y-8600644D01*
X8092644Y-8671356D01*
X8163356Y-8671356D01*
X8417356Y-8671356D02*
X8417356Y-8600644D01*
X8346644Y-8600644D01*
X8346644Y-8671356D01*
X8417356Y-8671356D01*
X4318000Y-8712000D02*
X4394000Y-8636000D01*
X4318000Y-8560000D01*
X4242000Y-8636000D01*
X4318000Y-8712000D01*
X4318000Y-9220000D02*
X4394000Y-9144000D01*
X4318000Y-9068000D01*
X4242000Y-9144000D01*
X4318000Y-9220000D01*
D12*
X3839928Y-13770214D02*
X3839928Y-13470214D01*
X3911357Y-13470214D01*
X3954214Y-13484500D01*
X3982786Y-13513071D01*
X3997071Y-13541643D01*
X4011357Y-13598786D01*
X4011357Y-13641643D01*
X3997071Y-13698786D01*
X3982786Y-13727357D01*
X3954214Y-13755929D01*
X3911357Y-13770214D01*
X3839928Y-13770214D01*
X4139928Y-13770214D02*
X4139928Y-13570214D01*
X4139928Y-13627357D02*
X4154214Y-13598786D01*
X4168500Y-13584500D01*
X4197071Y-13570214D01*
X4225643Y-13570214D01*
X4325643Y-13770214D02*
X4325643Y-13570214D01*
X4325643Y-13470214D02*
X4311357Y-13484500D01*
X4325643Y-13498786D01*
X4339928Y-13484500D01*
X4325643Y-13470214D01*
X4325643Y-13498786D01*
X4511357Y-13770214D02*
X4482786Y-13755929D01*
X4468500Y-13727357D01*
X4468500Y-13470214D01*
X4668500Y-13770214D02*
X4639928Y-13755929D01*
X4625643Y-13727357D01*
X4625643Y-13470214D01*
X5011357Y-13770214D02*
X5011357Y-13470214D01*
X5111357Y-13684500D01*
X5211357Y-13470214D01*
X5211357Y-13770214D01*
X5482786Y-13770214D02*
X5482786Y-13613071D01*
X5468500Y-13584500D01*
X5439928Y-13570214D01*
X5382786Y-13570214D01*
X5354214Y-13584500D01*
X5482786Y-13755929D02*
X5454214Y-13770214D01*
X5382786Y-13770214D01*
X5354214Y-13755929D01*
X5339928Y-13727357D01*
X5339928Y-13698786D01*
X5354214Y-13670214D01*
X5382786Y-13655929D01*
X5454214Y-13655929D01*
X5482786Y-13641643D01*
X5625643Y-13570214D02*
X5625643Y-13870214D01*
X5625643Y-13584500D02*
X5654214Y-13570214D01*
X5711357Y-13570214D01*
X5739928Y-13584500D01*
X5754214Y-13598786D01*
X5768500Y-13627357D01*
X5768500Y-13713071D01*
X5754214Y-13741643D01*
X5739928Y-13755929D01*
X5711357Y-13770214D01*
X5654214Y-13770214D01*
X5625643Y-13755929D01*
X5897071Y-13741643D02*
X5911357Y-13755929D01*
X5897071Y-13770214D01*
X5882786Y-13755929D01*
X5897071Y-13741643D01*
X5897071Y-13770214D01*
X5897071Y-13584500D02*
X5911357Y-13598786D01*
X5897071Y-13613071D01*
X5882786Y-13598786D01*
X5897071Y-13584500D01*
X5897071Y-13613071D01*
X3513500Y-14244500D02*
X3553500Y-14284500D01*
X3553500Y-14244500D02*
X3513500Y-14284500D01*
X3897071Y-14100214D02*
X3925643Y-14100214D01*
X3954214Y-14114500D01*
X3968500Y-14128786D01*
X3982786Y-14157357D01*
X3997071Y-14214500D01*
X3997071Y-14285929D01*
X3982786Y-14343071D01*
X3968500Y-14371643D01*
X3954214Y-14385929D01*
X3925643Y-14400214D01*
X3897071Y-14400214D01*
X3868500Y-14385929D01*
X3854214Y-14371643D01*
X3839928Y-14343071D01*
X3825643Y-14285929D01*
X3825643Y-14214500D01*
X3839928Y-14157357D01*
X3854214Y-14128786D01*
X3868500Y-14114500D01*
X3897071Y-14100214D01*
X4125643Y-14371643D02*
X4139928Y-14385929D01*
X4125643Y-14400214D01*
X4111357Y-14385929D01*
X4125643Y-14371643D01*
X4125643Y-14400214D01*
X4397071Y-14200214D02*
X4397071Y-14400214D01*
X4325643Y-14085929D02*
X4254214Y-14300214D01*
X4439928Y-14300214D01*
X4611357Y-14100214D02*
X4639928Y-14100214D01*
X4668500Y-14114500D01*
X4682786Y-14128786D01*
X4697071Y-14157357D01*
X4711357Y-14214500D01*
X4711357Y-14285929D01*
X4697071Y-14343071D01*
X4682786Y-14371643D01*
X4668500Y-14385929D01*
X4639928Y-14400214D01*
X4611357Y-14400214D01*
X4582786Y-14385929D01*
X4568500Y-14371643D01*
X4554214Y-14343071D01*
X4539928Y-14285929D01*
X4539928Y-14214500D01*
X4554214Y-14157357D01*
X4568500Y-14128786D01*
X4582786Y-14114500D01*
X4611357Y-14100214D01*
X4897071Y-14100214D02*
X4925643Y-14100214D01*
X4954214Y-14114500D01*
X4968500Y-14128786D01*
X4982786Y-14157357D01*
X4997071Y-14214500D01*
X4997071Y-14285929D01*
X4982786Y-14343071D01*
X4968500Y-14371643D01*
X4954214Y-14385929D01*
X4925643Y-14400214D01*
X4897071Y-14400214D01*
X4868500Y-14385929D01*
X4854214Y-14371643D01*
X4839928Y-14343071D01*
X4825643Y-14285929D01*
X4825643Y-14214500D01*
X4839928Y-14157357D01*
X4854214Y-14128786D01*
X4868500Y-14114500D01*
X4897071Y-14100214D01*
X5125643Y-14400214D02*
X5125643Y-14200214D01*
X5125643Y-14228786D02*
X5139928Y-14214500D01*
X5168500Y-14200214D01*
X5211357Y-14200214D01*
X5239928Y-14214500D01*
X5254214Y-14243071D01*
X5254214Y-14400214D01*
X5254214Y-14243071D02*
X5268500Y-14214500D01*
X5297071Y-14200214D01*
X5339928Y-14200214D01*
X5368500Y-14214500D01*
X5382786Y-14243071D01*
X5382786Y-14400214D01*
X5525643Y-14400214D02*
X5525643Y-14200214D01*
X5525643Y-14228786D02*
X5539928Y-14214500D01*
X5568500Y-14200214D01*
X5611357Y-14200214D01*
X5639928Y-14214500D01*
X5654214Y-14243071D01*
X5654214Y-14400214D01*
X5654214Y-14243071D02*
X5668500Y-14214500D01*
X5697071Y-14200214D01*
X5739928Y-14200214D01*
X5768500Y-14214500D01*
X5782786Y-14243071D01*
X5782786Y-14400214D01*
X6368500Y-14085929D02*
X6111357Y-14471643D01*
X6754214Y-14100214D02*
X6782786Y-14100214D01*
X6811357Y-14114500D01*
X6825643Y-14128786D01*
X6839928Y-14157357D01*
X6854214Y-14214500D01*
X6854214Y-14285929D01*
X6839928Y-14343071D01*
X6825643Y-14371643D01*
X6811357Y-14385929D01*
X6782786Y-14400214D01*
X6754214Y-14400214D01*
X6725643Y-14385929D01*
X6711357Y-14371643D01*
X6697071Y-14343071D01*
X6682786Y-14285929D01*
X6682786Y-14214500D01*
X6697071Y-14157357D01*
X6711357Y-14128786D01*
X6725643Y-14114500D01*
X6754214Y-14100214D01*
X6982786Y-14371643D02*
X6997071Y-14385929D01*
X6982786Y-14400214D01*
X6968500Y-14385929D01*
X6982786Y-14371643D01*
X6982786Y-14400214D01*
X7182786Y-14100214D02*
X7211357Y-14100214D01*
X7239928Y-14114500D01*
X7254214Y-14128786D01*
X7268500Y-14157357D01*
X7282786Y-14214500D01*
X7282786Y-14285929D01*
X7268500Y-14343071D01*
X7254214Y-14371643D01*
X7239928Y-14385929D01*
X7211357Y-14400214D01*
X7182786Y-14400214D01*
X7154214Y-14385929D01*
X7139928Y-14371643D01*
X7125643Y-14343071D01*
X7111357Y-14285929D01*
X7111357Y-14214500D01*
X7125643Y-14157357D01*
X7139928Y-14128786D01*
X7154214Y-14114500D01*
X7182786Y-14100214D01*
X7568500Y-14400214D02*
X7397071Y-14400214D01*
X7482786Y-14400214D02*
X7482786Y-14100214D01*
X7454214Y-14143071D01*
X7425643Y-14171643D01*
X7397071Y-14185929D01*
X7839928Y-14100214D02*
X7697071Y-14100214D01*
X7682786Y-14243071D01*
X7697071Y-14228786D01*
X7725643Y-14214500D01*
X7797071Y-14214500D01*
X7825643Y-14228786D01*
X7839928Y-14243071D01*
X7854214Y-14271643D01*
X7854214Y-14343071D01*
X7839928Y-14371643D01*
X7825643Y-14385929D01*
X7797071Y-14400214D01*
X7725643Y-14400214D01*
X7697071Y-14385929D01*
X7682786Y-14371643D01*
X7954214Y-14100214D02*
X8154214Y-14100214D01*
X8025643Y-14400214D01*
X8254214Y-14100214D02*
X8254214Y-14157357D01*
X8368500Y-14100214D02*
X8368500Y-14157357D01*
X8811357Y-14514500D02*
X8797071Y-14500214D01*
X8768500Y-14457357D01*
X8754214Y-14428786D01*
X8739928Y-14385929D01*
X8725643Y-14314500D01*
X8725643Y-14257357D01*
X8739928Y-14185929D01*
X8754214Y-14143071D01*
X8768500Y-14114500D01*
X8797071Y-14071643D01*
X8811357Y-14057357D01*
X8897071Y-14100214D02*
X9082786Y-14100214D01*
X8982786Y-14214500D01*
X9025643Y-14214500D01*
X9054214Y-14228786D01*
X9068500Y-14243071D01*
X9082786Y-14271643D01*
X9082786Y-14343071D01*
X9068500Y-14371643D01*
X9054214Y-14385929D01*
X9025643Y-14400214D01*
X8939928Y-14400214D01*
X8911357Y-14385929D01*
X8897071Y-14371643D01*
X9339928Y-14100214D02*
X9282786Y-14100214D01*
X9254214Y-14114500D01*
X9239928Y-14128786D01*
X9211357Y-14171643D01*
X9197071Y-14228786D01*
X9197071Y-14343071D01*
X9211357Y-14371643D01*
X9225643Y-14385929D01*
X9254214Y-14400214D01*
X9311357Y-14400214D01*
X9339928Y-14385929D01*
X9354214Y-14371643D01*
X9368500Y-14343071D01*
X9368500Y-14271643D01*
X9354214Y-14243071D01*
X9339928Y-14228786D01*
X9311357Y-14214500D01*
X9254214Y-14214500D01*
X9225643Y-14228786D01*
X9211357Y-14243071D01*
X9197071Y-14271643D01*
X9725643Y-14400214D02*
X9725643Y-14100214D01*
X9854214Y-14400214D02*
X9854214Y-14243071D01*
X9839928Y-14214500D01*
X9811357Y-14200214D01*
X9768500Y-14200214D01*
X9739928Y-14214500D01*
X9725643Y-14228786D01*
X10039928Y-14400214D02*
X10011357Y-14385929D01*
X9997071Y-14371643D01*
X9982786Y-14343071D01*
X9982786Y-14257357D01*
X9997071Y-14228786D01*
X10011357Y-14214500D01*
X10039928Y-14200214D01*
X10082786Y-14200214D01*
X10111357Y-14214500D01*
X10125643Y-14228786D01*
X10139928Y-14257357D01*
X10139928Y-14343071D01*
X10125643Y-14371643D01*
X10111357Y-14385929D01*
X10082786Y-14400214D01*
X10039928Y-14400214D01*
X10311357Y-14400214D02*
X10282786Y-14385929D01*
X10268500Y-14357357D01*
X10268500Y-14100214D01*
X10539928Y-14385929D02*
X10511357Y-14400214D01*
X10454214Y-14400214D01*
X10425643Y-14385929D01*
X10411357Y-14357357D01*
X10411357Y-14243071D01*
X10425643Y-14214500D01*
X10454214Y-14200214D01*
X10511357Y-14200214D01*
X10539928Y-14214500D01*
X10554214Y-14243071D01*
X10554214Y-14271643D01*
X10411357Y-14300214D01*
X10668500Y-14385929D02*
X10697071Y-14400214D01*
X10754214Y-14400214D01*
X10782786Y-14385929D01*
X10797071Y-14357357D01*
X10797071Y-14343071D01*
X10782786Y-14314500D01*
X10754214Y-14300214D01*
X10711357Y-14300214D01*
X10682786Y-14285929D01*
X10668500Y-14257357D01*
X10668500Y-14243071D01*
X10682786Y-14214500D01*
X10711357Y-14200214D01*
X10754214Y-14200214D01*
X10782786Y-14214500D01*
X10897071Y-14514500D02*
X10911357Y-14500214D01*
X10939928Y-14457357D01*
X10954214Y-14428786D01*
X10968500Y-14385929D01*
X10982786Y-14314500D01*
X10982786Y-14257357D01*
X10968500Y-14185929D01*
X10954214Y-14143071D01*
X10939928Y-14114500D01*
X10911357Y-14071643D01*
X10897071Y-14057357D01*
X3553500Y-14660500D02*
G75*
G03*
X3553500Y-14660500I-40000J0D01*
G01*
X3897071Y-14496214D02*
X3925643Y-14496214D01*
X3954214Y-14510500D01*
X3968500Y-14524786D01*
X3982786Y-14553357D01*
X3997071Y-14610500D01*
X3997071Y-14681929D01*
X3982786Y-14739071D01*
X3968500Y-14767643D01*
X3954214Y-14781929D01*
X3925643Y-14796214D01*
X3897071Y-14796214D01*
X3868500Y-14781929D01*
X3854214Y-14767643D01*
X3839928Y-14739071D01*
X3825643Y-14681929D01*
X3825643Y-14610500D01*
X3839928Y-14553357D01*
X3854214Y-14524786D01*
X3868500Y-14510500D01*
X3897071Y-14496214D01*
X4125643Y-14767643D02*
X4139928Y-14781929D01*
X4125643Y-14796214D01*
X4111357Y-14781929D01*
X4125643Y-14767643D01*
X4125643Y-14796214D01*
X4311357Y-14624786D02*
X4282786Y-14610500D01*
X4268500Y-14596214D01*
X4254214Y-14567643D01*
X4254214Y-14553357D01*
X4268500Y-14524786D01*
X4282786Y-14510500D01*
X4311357Y-14496214D01*
X4368500Y-14496214D01*
X4397071Y-14510500D01*
X4411357Y-14524786D01*
X4425643Y-14553357D01*
X4425643Y-14567643D01*
X4411357Y-14596214D01*
X4397071Y-14610500D01*
X4368500Y-14624786D01*
X4311357Y-14624786D01*
X4282786Y-14639071D01*
X4268500Y-14653357D01*
X4254214Y-14681929D01*
X4254214Y-14739071D01*
X4268500Y-14767643D01*
X4282786Y-14781929D01*
X4311357Y-14796214D01*
X4368500Y-14796214D01*
X4397071Y-14781929D01*
X4411357Y-14767643D01*
X4425643Y-14739071D01*
X4425643Y-14681929D01*
X4411357Y-14653357D01*
X4397071Y-14639071D01*
X4368500Y-14624786D01*
X4611357Y-14496214D02*
X4639928Y-14496214D01*
X4668500Y-14510500D01*
X4682786Y-14524786D01*
X4697071Y-14553357D01*
X4711357Y-14610500D01*
X4711357Y-14681929D01*
X4697071Y-14739071D01*
X4682786Y-14767643D01*
X4668500Y-14781929D01*
X4639928Y-14796214D01*
X4611357Y-14796214D01*
X4582786Y-14781929D01*
X4568500Y-14767643D01*
X4554214Y-14739071D01*
X4539928Y-14681929D01*
X4539928Y-14610500D01*
X4554214Y-14553357D01*
X4568500Y-14524786D01*
X4582786Y-14510500D01*
X4611357Y-14496214D01*
X4897071Y-14496214D02*
X4925643Y-14496214D01*
X4954214Y-14510500D01*
X4968500Y-14524786D01*
X4982786Y-14553357D01*
X4997071Y-14610500D01*
X4997071Y-14681929D01*
X4982786Y-14739071D01*
X4968500Y-14767643D01*
X4954214Y-14781929D01*
X4925643Y-14796214D01*
X4897071Y-14796214D01*
X4868500Y-14781929D01*
X4854214Y-14767643D01*
X4839928Y-14739071D01*
X4825643Y-14681929D01*
X4825643Y-14610500D01*
X4839928Y-14553357D01*
X4854214Y-14524786D01*
X4868500Y-14510500D01*
X4897071Y-14496214D01*
X5125643Y-14796214D02*
X5125643Y-14596214D01*
X5125643Y-14624786D02*
X5139928Y-14610500D01*
X5168500Y-14596214D01*
X5211357Y-14596214D01*
X5239928Y-14610500D01*
X5254214Y-14639071D01*
X5254214Y-14796214D01*
X5254214Y-14639071D02*
X5268500Y-14610500D01*
X5297071Y-14596214D01*
X5339928Y-14596214D01*
X5368500Y-14610500D01*
X5382786Y-14639071D01*
X5382786Y-14796214D01*
X5525643Y-14796214D02*
X5525643Y-14596214D01*
X5525643Y-14624786D02*
X5539928Y-14610500D01*
X5568500Y-14596214D01*
X5611357Y-14596214D01*
X5639928Y-14610500D01*
X5654214Y-14639071D01*
X5654214Y-14796214D01*
X5654214Y-14639071D02*
X5668500Y-14610500D01*
X5697071Y-14596214D01*
X5739928Y-14596214D01*
X5768500Y-14610500D01*
X5782786Y-14639071D01*
X5782786Y-14796214D01*
X6368500Y-14481929D02*
X6111357Y-14867643D01*
X6754214Y-14496214D02*
X6782786Y-14496214D01*
X6811357Y-14510500D01*
X6825643Y-14524786D01*
X6839928Y-14553357D01*
X6854214Y-14610500D01*
X6854214Y-14681929D01*
X6839928Y-14739071D01*
X6825643Y-14767643D01*
X6811357Y-14781929D01*
X6782786Y-14796214D01*
X6754214Y-14796214D01*
X6725643Y-14781929D01*
X6711357Y-14767643D01*
X6697071Y-14739071D01*
X6682786Y-14681929D01*
X6682786Y-14610500D01*
X6697071Y-14553357D01*
X6711357Y-14524786D01*
X6725643Y-14510500D01*
X6754214Y-14496214D01*
X6982786Y-14767643D02*
X6997071Y-14781929D01*
X6982786Y-14796214D01*
X6968500Y-14781929D01*
X6982786Y-14767643D01*
X6982786Y-14796214D01*
X7182786Y-14496214D02*
X7211357Y-14496214D01*
X7239928Y-14510500D01*
X7254214Y-14524786D01*
X7268500Y-14553357D01*
X7282786Y-14610500D01*
X7282786Y-14681929D01*
X7268500Y-14739071D01*
X7254214Y-14767643D01*
X7239928Y-14781929D01*
X7211357Y-14796214D01*
X7182786Y-14796214D01*
X7154214Y-14781929D01*
X7139928Y-14767643D01*
X7125643Y-14739071D01*
X7111357Y-14681929D01*
X7111357Y-14610500D01*
X7125643Y-14553357D01*
X7139928Y-14524786D01*
X7154214Y-14510500D01*
X7182786Y-14496214D01*
X7382786Y-14496214D02*
X7568500Y-14496214D01*
X7468500Y-14610500D01*
X7511357Y-14610500D01*
X7539928Y-14624786D01*
X7554214Y-14639071D01*
X7568500Y-14667643D01*
X7568500Y-14739071D01*
X7554214Y-14767643D01*
X7539928Y-14781929D01*
X7511357Y-14796214D01*
X7425643Y-14796214D01*
X7397071Y-14781929D01*
X7382786Y-14767643D01*
X7854214Y-14796214D02*
X7682786Y-14796214D01*
X7768500Y-14796214D02*
X7768500Y-14496214D01*
X7739928Y-14539071D01*
X7711357Y-14567643D01*
X7682786Y-14581929D01*
X8125643Y-14496214D02*
X7982786Y-14496214D01*
X7968500Y-14639071D01*
X7982786Y-14624786D01*
X8011357Y-14610500D01*
X8082786Y-14610500D01*
X8111357Y-14624786D01*
X8125643Y-14639071D01*
X8139928Y-14667643D01*
X8139928Y-14739071D01*
X8125643Y-14767643D01*
X8111357Y-14781929D01*
X8082786Y-14796214D01*
X8011357Y-14796214D01*
X7982786Y-14781929D01*
X7968500Y-14767643D01*
X8254214Y-14496214D02*
X8254214Y-14553357D01*
X8368500Y-14496214D02*
X8368500Y-14553357D01*
X8811357Y-14910500D02*
X8797071Y-14896214D01*
X8768500Y-14853357D01*
X8754214Y-14824786D01*
X8739928Y-14781929D01*
X8725643Y-14710500D01*
X8725643Y-14653357D01*
X8739928Y-14581929D01*
X8754214Y-14539071D01*
X8768500Y-14510500D01*
X8797071Y-14467643D01*
X8811357Y-14453357D01*
X9054214Y-14496214D02*
X8997071Y-14496214D01*
X8968500Y-14510500D01*
X8954214Y-14524786D01*
X8925643Y-14567643D01*
X8911357Y-14624786D01*
X8911357Y-14739071D01*
X8925643Y-14767643D01*
X8939928Y-14781929D01*
X8968500Y-14796214D01*
X9025643Y-14796214D01*
X9054214Y-14781929D01*
X9068500Y-14767643D01*
X9082786Y-14739071D01*
X9082786Y-14667643D01*
X9068500Y-14639071D01*
X9054214Y-14624786D01*
X9025643Y-14610500D01*
X8968500Y-14610500D01*
X8939928Y-14624786D01*
X8925643Y-14639071D01*
X8911357Y-14667643D01*
X9439928Y-14796214D02*
X9439928Y-14496214D01*
X9568500Y-14796214D02*
X9568500Y-14639071D01*
X9554214Y-14610500D01*
X9525643Y-14596214D01*
X9482786Y-14596214D01*
X9454214Y-14610500D01*
X9439928Y-14624786D01*
X9754214Y-14796214D02*
X9725643Y-14781929D01*
X9711357Y-14767643D01*
X9697071Y-14739071D01*
X9697071Y-14653357D01*
X9711357Y-14624786D01*
X9725643Y-14610500D01*
X9754214Y-14596214D01*
X9797071Y-14596214D01*
X9825643Y-14610500D01*
X9839928Y-14624786D01*
X9854214Y-14653357D01*
X9854214Y-14739071D01*
X9839928Y-14767643D01*
X9825643Y-14781929D01*
X9797071Y-14796214D01*
X9754214Y-14796214D01*
X10025643Y-14796214D02*
X9997071Y-14781929D01*
X9982786Y-14753357D01*
X9982786Y-14496214D01*
X10254214Y-14781929D02*
X10225643Y-14796214D01*
X10168500Y-14796214D01*
X10139928Y-14781929D01*
X10125643Y-14753357D01*
X10125643Y-14639071D01*
X10139928Y-14610500D01*
X10168500Y-14596214D01*
X10225643Y-14596214D01*
X10254214Y-14610500D01*
X10268500Y-14639071D01*
X10268500Y-14667643D01*
X10125643Y-14696214D01*
X10382786Y-14781929D02*
X10411357Y-14796214D01*
X10468500Y-14796214D01*
X10497071Y-14781929D01*
X10511357Y-14753357D01*
X10511357Y-14739071D01*
X10497071Y-14710500D01*
X10468500Y-14696214D01*
X10425643Y-14696214D01*
X10397071Y-14681929D01*
X10382786Y-14653357D01*
X10382786Y-14639071D01*
X10397071Y-14610500D01*
X10425643Y-14596214D01*
X10468500Y-14596214D01*
X10497071Y-14610500D01*
X10868500Y-14681929D02*
X11097071Y-14681929D01*
X10982786Y-14796214D02*
X10982786Y-14567643D01*
X11439928Y-14496214D02*
X11625643Y-14496214D01*
X11525643Y-14610500D01*
X11568500Y-14610500D01*
X11597071Y-14624786D01*
X11611357Y-14639071D01*
X11625643Y-14667643D01*
X11625643Y-14739071D01*
X11611357Y-14767643D01*
X11597071Y-14781929D01*
X11568500Y-14796214D01*
X11482786Y-14796214D01*
X11454214Y-14781929D01*
X11439928Y-14767643D01*
X11968500Y-14781929D02*
X11997071Y-14796214D01*
X12054214Y-14796214D01*
X12082786Y-14781929D01*
X12097071Y-14753357D01*
X12097071Y-14739071D01*
X12082786Y-14710500D01*
X12054214Y-14696214D01*
X12011357Y-14696214D01*
X11982786Y-14681929D01*
X11968500Y-14653357D01*
X11968500Y-14639071D01*
X11982786Y-14610500D01*
X12011357Y-14596214D01*
X12054214Y-14596214D01*
X12082786Y-14610500D01*
X12268500Y-14796214D02*
X12239928Y-14781929D01*
X12225643Y-14753357D01*
X12225643Y-14496214D01*
X12425643Y-14796214D02*
X12397071Y-14781929D01*
X12382786Y-14767643D01*
X12368500Y-14739071D01*
X12368500Y-14653357D01*
X12382786Y-14624786D01*
X12397071Y-14610500D01*
X12425643Y-14596214D01*
X12468500Y-14596214D01*
X12497071Y-14610500D01*
X12511357Y-14624786D01*
X12525643Y-14653357D01*
X12525643Y-14739071D01*
X12511357Y-14767643D01*
X12497071Y-14781929D01*
X12468500Y-14796214D01*
X12425643Y-14796214D01*
X12611357Y-14596214D02*
X12725643Y-14596214D01*
X12654214Y-14496214D02*
X12654214Y-14753357D01*
X12668500Y-14781929D01*
X12697071Y-14796214D01*
X12725643Y-14796214D01*
X12811357Y-14781929D02*
X12839928Y-14796214D01*
X12897071Y-14796214D01*
X12925643Y-14781929D01*
X12939928Y-14753357D01*
X12939928Y-14739071D01*
X12925643Y-14710500D01*
X12897071Y-14696214D01*
X12854214Y-14696214D01*
X12825643Y-14681929D01*
X12811357Y-14653357D01*
X12811357Y-14639071D01*
X12825643Y-14610500D01*
X12854214Y-14596214D01*
X12897071Y-14596214D01*
X12925643Y-14610500D01*
X13039928Y-14910500D02*
X13054214Y-14896214D01*
X13082786Y-14853357D01*
X13097071Y-14824786D01*
X13111357Y-14781929D01*
X13125643Y-14710500D01*
X13125643Y-14653357D01*
X13111357Y-14581929D01*
X13097071Y-14539071D01*
X13082786Y-14510500D01*
X13054214Y-14467643D01*
X13039928Y-14453357D01*
X3508500Y-15011500D02*
X3508500Y-15101500D01*
X3463500Y-15056500D02*
X3553500Y-15056500D01*
X3897071Y-14892214D02*
X3925643Y-14892214D01*
X3954214Y-14906500D01*
X3968500Y-14920786D01*
X3982786Y-14949357D01*
X3997071Y-15006500D01*
X3997071Y-15077929D01*
X3982786Y-15135071D01*
X3968500Y-15163643D01*
X3954214Y-15177929D01*
X3925643Y-15192214D01*
X3897071Y-15192214D01*
X3868500Y-15177929D01*
X3854214Y-15163643D01*
X3839928Y-15135071D01*
X3825643Y-15077929D01*
X3825643Y-15006500D01*
X3839928Y-14949357D01*
X3854214Y-14920786D01*
X3868500Y-14906500D01*
X3897071Y-14892214D01*
X4125643Y-15163643D02*
X4139928Y-15177929D01*
X4125643Y-15192214D01*
X4111357Y-15177929D01*
X4125643Y-15163643D01*
X4125643Y-15192214D01*
X4282786Y-15192214D02*
X4339928Y-15192214D01*
X4368500Y-15177929D01*
X4382786Y-15163643D01*
X4411357Y-15120786D01*
X4425643Y-15063643D01*
X4425643Y-14949357D01*
X4411357Y-14920786D01*
X4397071Y-14906500D01*
X4368500Y-14892214D01*
X4311357Y-14892214D01*
X4282786Y-14906500D01*
X4268500Y-14920786D01*
X4254214Y-14949357D01*
X4254214Y-15020786D01*
X4268500Y-15049357D01*
X4282786Y-15063643D01*
X4311357Y-15077929D01*
X4368500Y-15077929D01*
X4397071Y-15063643D01*
X4411357Y-15049357D01*
X4425643Y-15020786D01*
X4611357Y-14892214D02*
X4639928Y-14892214D01*
X4668500Y-14906500D01*
X4682786Y-14920786D01*
X4697071Y-14949357D01*
X4711357Y-15006500D01*
X4711357Y-15077929D01*
X4697071Y-15135071D01*
X4682786Y-15163643D01*
X4668500Y-15177929D01*
X4639928Y-15192214D01*
X4611357Y-15192214D01*
X4582786Y-15177929D01*
X4568500Y-15163643D01*
X4554214Y-15135071D01*
X4539928Y-15077929D01*
X4539928Y-15006500D01*
X4554214Y-14949357D01*
X4568500Y-14920786D01*
X4582786Y-14906500D01*
X4611357Y-14892214D01*
X4897071Y-14892214D02*
X4925643Y-14892214D01*
X4954214Y-14906500D01*
X4968500Y-14920786D01*
X4982786Y-14949357D01*
X4997071Y-15006500D01*
X4997071Y-15077929D01*
X4982786Y-15135071D01*
X4968500Y-15163643D01*
X4954214Y-15177929D01*
X4925643Y-15192214D01*
X4897071Y-15192214D01*
X4868500Y-15177929D01*
X4854214Y-15163643D01*
X4839928Y-15135071D01*
X4825643Y-15077929D01*
X4825643Y-15006500D01*
X4839928Y-14949357D01*
X4854214Y-14920786D01*
X4868500Y-14906500D01*
X4897071Y-14892214D01*
X5125643Y-15192214D02*
X5125643Y-14992214D01*
X5125643Y-15020786D02*
X5139928Y-15006500D01*
X5168500Y-14992214D01*
X5211357Y-14992214D01*
X5239928Y-15006500D01*
X5254214Y-15035071D01*
X5254214Y-15192214D01*
X5254214Y-15035071D02*
X5268500Y-15006500D01*
X5297071Y-14992214D01*
X5339928Y-14992214D01*
X5368500Y-15006500D01*
X5382786Y-15035071D01*
X5382786Y-15192214D01*
X5525643Y-15192214D02*
X5525643Y-14992214D01*
X5525643Y-15020786D02*
X5539928Y-15006500D01*
X5568500Y-14992214D01*
X5611357Y-14992214D01*
X5639928Y-15006500D01*
X5654214Y-15035071D01*
X5654214Y-15192214D01*
X5654214Y-15035071D02*
X5668500Y-15006500D01*
X5697071Y-14992214D01*
X5739928Y-14992214D01*
X5768500Y-15006500D01*
X5782786Y-15035071D01*
X5782786Y-15192214D01*
X6368500Y-14877929D02*
X6111357Y-15263643D01*
X6754214Y-14892214D02*
X6782786Y-14892214D01*
X6811357Y-14906500D01*
X6825643Y-14920786D01*
X6839928Y-14949357D01*
X6854214Y-15006500D01*
X6854214Y-15077929D01*
X6839928Y-15135071D01*
X6825643Y-15163643D01*
X6811357Y-15177929D01*
X6782786Y-15192214D01*
X6754214Y-15192214D01*
X6725643Y-15177929D01*
X6711357Y-15163643D01*
X6697071Y-15135071D01*
X6682786Y-15077929D01*
X6682786Y-15006500D01*
X6697071Y-14949357D01*
X6711357Y-14920786D01*
X6725643Y-14906500D01*
X6754214Y-14892214D01*
X6982786Y-15163643D02*
X6997071Y-15177929D01*
X6982786Y-15192214D01*
X6968500Y-15177929D01*
X6982786Y-15163643D01*
X6982786Y-15192214D01*
X7182786Y-14892214D02*
X7211357Y-14892214D01*
X7239928Y-14906500D01*
X7254214Y-14920786D01*
X7268500Y-14949357D01*
X7282786Y-15006500D01*
X7282786Y-15077929D01*
X7268500Y-15135071D01*
X7254214Y-15163643D01*
X7239928Y-15177929D01*
X7211357Y-15192214D01*
X7182786Y-15192214D01*
X7154214Y-15177929D01*
X7139928Y-15163643D01*
X7125643Y-15135071D01*
X7111357Y-15077929D01*
X7111357Y-15006500D01*
X7125643Y-14949357D01*
X7139928Y-14920786D01*
X7154214Y-14906500D01*
X7182786Y-14892214D01*
X7382786Y-14892214D02*
X7568500Y-14892214D01*
X7468500Y-15006500D01*
X7511357Y-15006500D01*
X7539928Y-15020786D01*
X7554214Y-15035071D01*
X7568500Y-15063643D01*
X7568500Y-15135071D01*
X7554214Y-15163643D01*
X7539928Y-15177929D01*
X7511357Y-15192214D01*
X7425643Y-15192214D01*
X7397071Y-15177929D01*
X7382786Y-15163643D01*
X7839928Y-14892214D02*
X7697071Y-14892214D01*
X7682786Y-15035071D01*
X7697071Y-15020786D01*
X7725643Y-15006500D01*
X7797071Y-15006500D01*
X7825643Y-15020786D01*
X7839928Y-15035071D01*
X7854214Y-15063643D01*
X7854214Y-15135071D01*
X7839928Y-15163643D01*
X7825643Y-15177929D01*
X7797071Y-15192214D01*
X7725643Y-15192214D01*
X7697071Y-15177929D01*
X7682786Y-15163643D01*
X8111357Y-14992214D02*
X8111357Y-15192214D01*
X8039928Y-14877929D02*
X7968500Y-15092214D01*
X8154214Y-15092214D01*
X8254214Y-14892214D02*
X8254214Y-14949357D01*
X8368500Y-14892214D02*
X8368500Y-14949357D01*
X8811357Y-15306500D02*
X8797071Y-15292214D01*
X8768500Y-15249357D01*
X8754214Y-15220786D01*
X8739928Y-15177929D01*
X8725643Y-15106500D01*
X8725643Y-15049357D01*
X8739928Y-14977929D01*
X8754214Y-14935071D01*
X8768500Y-14906500D01*
X8797071Y-14863643D01*
X8811357Y-14849357D01*
X8911357Y-14920786D02*
X8925643Y-14906500D01*
X8954214Y-14892214D01*
X9025643Y-14892214D01*
X9054214Y-14906500D01*
X9068500Y-14920786D01*
X9082786Y-14949357D01*
X9082786Y-14977929D01*
X9068500Y-15020786D01*
X8897071Y-15192214D01*
X9082786Y-15192214D01*
X9439928Y-15192214D02*
X9439928Y-14892214D01*
X9568500Y-15192214D02*
X9568500Y-15035071D01*
X9554214Y-15006500D01*
X9525643Y-14992214D01*
X9482786Y-14992214D01*
X9454214Y-15006500D01*
X9439928Y-15020786D01*
X9754214Y-15192214D02*
X9725643Y-15177929D01*
X9711357Y-15163643D01*
X9697071Y-15135071D01*
X9697071Y-15049357D01*
X9711357Y-15020786D01*
X9725643Y-15006500D01*
X9754214Y-14992214D01*
X9797071Y-14992214D01*
X9825643Y-15006500D01*
X9839928Y-15020786D01*
X9854214Y-15049357D01*
X9854214Y-15135071D01*
X9839928Y-15163643D01*
X9825643Y-15177929D01*
X9797071Y-15192214D01*
X9754214Y-15192214D01*
X10025643Y-15192214D02*
X9997071Y-15177929D01*
X9982786Y-15149357D01*
X9982786Y-14892214D01*
X10254214Y-15177929D02*
X10225643Y-15192214D01*
X10168500Y-15192214D01*
X10139928Y-15177929D01*
X10125643Y-15149357D01*
X10125643Y-15035071D01*
X10139928Y-15006500D01*
X10168500Y-14992214D01*
X10225643Y-14992214D01*
X10254214Y-15006500D01*
X10268500Y-15035071D01*
X10268500Y-15063643D01*
X10125643Y-15092214D01*
X10382786Y-15177929D02*
X10411357Y-15192214D01*
X10468500Y-15192214D01*
X10497071Y-15177929D01*
X10511357Y-15149357D01*
X10511357Y-15135071D01*
X10497071Y-15106500D01*
X10468500Y-15092214D01*
X10425643Y-15092214D01*
X10397071Y-15077929D01*
X10382786Y-15049357D01*
X10382786Y-15035071D01*
X10397071Y-15006500D01*
X10425643Y-14992214D01*
X10468500Y-14992214D01*
X10497071Y-15006500D01*
X10611357Y-15306500D02*
X10625643Y-15292214D01*
X10654214Y-15249357D01*
X10668500Y-15220786D01*
X10682786Y-15177929D01*
X10697071Y-15106500D01*
X10697071Y-15049357D01*
X10682786Y-14977929D01*
X10668500Y-14935071D01*
X10654214Y-14906500D01*
X10625643Y-14863643D01*
X10611357Y-14849357D01*
X3538856Y-15487856D02*
X3538856Y-15417144D01*
X3468144Y-15417144D01*
X3468144Y-15487856D01*
X3538856Y-15487856D01*
X3997071Y-15588214D02*
X3825643Y-15588214D01*
X3911357Y-15588214D02*
X3911357Y-15288214D01*
X3882786Y-15331071D01*
X3854214Y-15359643D01*
X3825643Y-15373929D01*
X4125643Y-15559643D02*
X4139928Y-15573929D01*
X4125643Y-15588214D01*
X4111357Y-15573929D01*
X4125643Y-15559643D01*
X4125643Y-15588214D01*
X4325643Y-15288214D02*
X4354214Y-15288214D01*
X4382786Y-15302500D01*
X4397071Y-15316786D01*
X4411357Y-15345357D01*
X4425643Y-15402500D01*
X4425643Y-15473929D01*
X4411357Y-15531071D01*
X4397071Y-15559643D01*
X4382786Y-15573929D01*
X4354214Y-15588214D01*
X4325643Y-15588214D01*
X4297071Y-15573929D01*
X4282786Y-15559643D01*
X4268500Y-15531071D01*
X4254214Y-15473929D01*
X4254214Y-15402500D01*
X4268500Y-15345357D01*
X4282786Y-15316786D01*
X4297071Y-15302500D01*
X4325643Y-15288214D01*
X4611357Y-15288214D02*
X4639928Y-15288214D01*
X4668500Y-15302500D01*
X4682786Y-15316786D01*
X4697071Y-15345357D01*
X4711357Y-15402500D01*
X4711357Y-15473929D01*
X4697071Y-15531071D01*
X4682786Y-15559643D01*
X4668500Y-15573929D01*
X4639928Y-15588214D01*
X4611357Y-15588214D01*
X4582786Y-15573929D01*
X4568500Y-15559643D01*
X4554214Y-15531071D01*
X4539928Y-15473929D01*
X4539928Y-15402500D01*
X4554214Y-15345357D01*
X4568500Y-15316786D01*
X4582786Y-15302500D01*
X4611357Y-15288214D01*
X4897071Y-15288214D02*
X4925643Y-15288214D01*
X4954214Y-15302500D01*
X4968500Y-15316786D01*
X4982786Y-15345357D01*
X4997071Y-15402500D01*
X4997071Y-15473929D01*
X4982786Y-15531071D01*
X4968500Y-15559643D01*
X4954214Y-15573929D01*
X4925643Y-15588214D01*
X4897071Y-15588214D01*
X4868500Y-15573929D01*
X4854214Y-15559643D01*
X4839928Y-15531071D01*
X4825643Y-15473929D01*
X4825643Y-15402500D01*
X4839928Y-15345357D01*
X4854214Y-15316786D01*
X4868500Y-15302500D01*
X4897071Y-15288214D01*
X5125643Y-15588214D02*
X5125643Y-15388214D01*
X5125643Y-15416786D02*
X5139928Y-15402500D01*
X5168500Y-15388214D01*
X5211357Y-15388214D01*
X5239928Y-15402500D01*
X5254214Y-15431071D01*
X5254214Y-15588214D01*
X5254214Y-15431071D02*
X5268500Y-15402500D01*
X5297071Y-15388214D01*
X5339928Y-15388214D01*
X5368500Y-15402500D01*
X5382786Y-15431071D01*
X5382786Y-15588214D01*
X5525643Y-15588214D02*
X5525643Y-15388214D01*
X5525643Y-15416786D02*
X5539928Y-15402500D01*
X5568500Y-15388214D01*
X5611357Y-15388214D01*
X5639928Y-15402500D01*
X5654214Y-15431071D01*
X5654214Y-15588214D01*
X5654214Y-15431071D02*
X5668500Y-15402500D01*
X5697071Y-15388214D01*
X5739928Y-15388214D01*
X5768500Y-15402500D01*
X5782786Y-15431071D01*
X5782786Y-15588214D01*
X6368500Y-15273929D02*
X6111357Y-15659643D01*
X6754214Y-15288214D02*
X6782786Y-15288214D01*
X6811357Y-15302500D01*
X6825643Y-15316786D01*
X6839928Y-15345357D01*
X6854214Y-15402500D01*
X6854214Y-15473929D01*
X6839928Y-15531071D01*
X6825643Y-15559643D01*
X6811357Y-15573929D01*
X6782786Y-15588214D01*
X6754214Y-15588214D01*
X6725643Y-15573929D01*
X6711357Y-15559643D01*
X6697071Y-15531071D01*
X6682786Y-15473929D01*
X6682786Y-15402500D01*
X6697071Y-15345357D01*
X6711357Y-15316786D01*
X6725643Y-15302500D01*
X6754214Y-15288214D01*
X6982786Y-15559643D02*
X6997071Y-15573929D01*
X6982786Y-15588214D01*
X6968500Y-15573929D01*
X6982786Y-15559643D01*
X6982786Y-15588214D01*
X7182786Y-15288214D02*
X7211357Y-15288214D01*
X7239928Y-15302500D01*
X7254214Y-15316786D01*
X7268500Y-15345357D01*
X7282786Y-15402500D01*
X7282786Y-15473929D01*
X7268500Y-15531071D01*
X7254214Y-15559643D01*
X7239928Y-15573929D01*
X7211357Y-15588214D01*
X7182786Y-15588214D01*
X7154214Y-15573929D01*
X7139928Y-15559643D01*
X7125643Y-15531071D01*
X7111357Y-15473929D01*
X7111357Y-15402500D01*
X7125643Y-15345357D01*
X7139928Y-15316786D01*
X7154214Y-15302500D01*
X7182786Y-15288214D01*
X7382786Y-15288214D02*
X7568500Y-15288214D01*
X7468500Y-15402500D01*
X7511357Y-15402500D01*
X7539928Y-15416786D01*
X7554214Y-15431071D01*
X7568500Y-15459643D01*
X7568500Y-15531071D01*
X7554214Y-15559643D01*
X7539928Y-15573929D01*
X7511357Y-15588214D01*
X7425643Y-15588214D01*
X7397071Y-15573929D01*
X7382786Y-15559643D01*
X7711357Y-15588214D02*
X7768500Y-15588214D01*
X7797071Y-15573929D01*
X7811357Y-15559643D01*
X7839928Y-15516786D01*
X7854214Y-15459643D01*
X7854214Y-15345357D01*
X7839928Y-15316786D01*
X7825643Y-15302500D01*
X7797071Y-15288214D01*
X7739928Y-15288214D01*
X7711357Y-15302500D01*
X7697071Y-15316786D01*
X7682786Y-15345357D01*
X7682786Y-15416786D01*
X7697071Y-15445357D01*
X7711357Y-15459643D01*
X7739928Y-15473929D01*
X7797071Y-15473929D01*
X7825643Y-15459643D01*
X7839928Y-15445357D01*
X7854214Y-15416786D01*
X8111357Y-15388214D02*
X8111357Y-15588214D01*
X8039928Y-15273929D02*
X7968500Y-15488214D01*
X8154214Y-15488214D01*
X8254214Y-15288214D02*
X8254214Y-15345357D01*
X8368500Y-15288214D02*
X8368500Y-15345357D01*
X8811357Y-15702500D02*
X8797071Y-15688214D01*
X8768500Y-15645357D01*
X8754214Y-15616786D01*
X8739928Y-15573929D01*
X8725643Y-15502500D01*
X8725643Y-15445357D01*
X8739928Y-15373929D01*
X8754214Y-15331071D01*
X8768500Y-15302500D01*
X8797071Y-15259643D01*
X8811357Y-15245357D01*
X8897071Y-15288214D02*
X9082786Y-15288214D01*
X8982786Y-15402500D01*
X9025643Y-15402500D01*
X9054214Y-15416786D01*
X9068500Y-15431071D01*
X9082786Y-15459643D01*
X9082786Y-15531071D01*
X9068500Y-15559643D01*
X9054214Y-15573929D01*
X9025643Y-15588214D01*
X8939928Y-15588214D01*
X8911357Y-15573929D01*
X8897071Y-15559643D01*
X9339928Y-15388214D02*
X9339928Y-15588214D01*
X9268500Y-15273929D02*
X9197071Y-15488214D01*
X9382786Y-15488214D01*
X9725643Y-15588214D02*
X9725643Y-15288214D01*
X9854214Y-15588214D02*
X9854214Y-15431071D01*
X9839928Y-15402500D01*
X9811357Y-15388214D01*
X9768500Y-15388214D01*
X9739928Y-15402500D01*
X9725643Y-15416786D01*
X10039928Y-15588214D02*
X10011357Y-15573929D01*
X9997071Y-15559643D01*
X9982786Y-15531071D01*
X9982786Y-15445357D01*
X9997071Y-15416786D01*
X10011357Y-15402500D01*
X10039928Y-15388214D01*
X10082786Y-15388214D01*
X10111357Y-15402500D01*
X10125643Y-15416786D01*
X10139928Y-15445357D01*
X10139928Y-15531071D01*
X10125643Y-15559643D01*
X10111357Y-15573929D01*
X10082786Y-15588214D01*
X10039928Y-15588214D01*
X10311357Y-15588214D02*
X10282786Y-15573929D01*
X10268500Y-15545357D01*
X10268500Y-15288214D01*
X10539928Y-15573929D02*
X10511357Y-15588214D01*
X10454214Y-15588214D01*
X10425643Y-15573929D01*
X10411357Y-15545357D01*
X10411357Y-15431071D01*
X10425643Y-15402500D01*
X10454214Y-15388214D01*
X10511357Y-15388214D01*
X10539928Y-15402500D01*
X10554214Y-15431071D01*
X10554214Y-15459643D01*
X10411357Y-15488214D01*
X10668500Y-15573929D02*
X10697071Y-15588214D01*
X10754214Y-15588214D01*
X10782786Y-15573929D01*
X10797071Y-15545357D01*
X10797071Y-15531071D01*
X10782786Y-15502500D01*
X10754214Y-15488214D01*
X10711357Y-15488214D01*
X10682786Y-15473929D01*
X10668500Y-15445357D01*
X10668500Y-15431071D01*
X10682786Y-15402500D01*
X10711357Y-15388214D01*
X10754214Y-15388214D01*
X10782786Y-15402500D01*
X10897071Y-15702500D02*
X10911357Y-15688214D01*
X10939928Y-15645357D01*
X10954214Y-15616786D01*
X10968500Y-15573929D01*
X10982786Y-15502500D01*
X10982786Y-15445357D01*
X10968500Y-15373929D01*
X10954214Y-15331071D01*
X10939928Y-15302500D01*
X10911357Y-15259643D01*
X10897071Y-15245357D01*
X3477500Y-15924500D02*
X3553500Y-15848500D01*
X3477500Y-15772500D01*
X3401500Y-15848500D01*
X3477500Y-15924500D01*
X3997071Y-15984214D02*
X3825643Y-15984214D01*
X3911357Y-15984214D02*
X3911357Y-15684214D01*
X3882786Y-15727071D01*
X3854214Y-15755643D01*
X3825643Y-15769929D01*
X4125643Y-15955643D02*
X4139928Y-15969929D01*
X4125643Y-15984214D01*
X4111357Y-15969929D01*
X4125643Y-15955643D01*
X4125643Y-15984214D01*
X4411357Y-15684214D02*
X4268500Y-15684214D01*
X4254214Y-15827071D01*
X4268500Y-15812786D01*
X4297071Y-15798500D01*
X4368500Y-15798500D01*
X4397071Y-15812786D01*
X4411357Y-15827071D01*
X4425643Y-15855643D01*
X4425643Y-15927071D01*
X4411357Y-15955643D01*
X4397071Y-15969929D01*
X4368500Y-15984214D01*
X4297071Y-15984214D01*
X4268500Y-15969929D01*
X4254214Y-15955643D01*
X4539928Y-15712786D02*
X4554214Y-15698500D01*
X4582786Y-15684214D01*
X4654214Y-15684214D01*
X4682786Y-15698500D01*
X4697071Y-15712786D01*
X4711357Y-15741357D01*
X4711357Y-15769929D01*
X4697071Y-15812786D01*
X4525643Y-15984214D01*
X4711357Y-15984214D01*
X4897071Y-15684214D02*
X4925643Y-15684214D01*
X4954214Y-15698500D01*
X4968500Y-15712786D01*
X4982786Y-15741357D01*
X4997071Y-15798500D01*
X4997071Y-15869929D01*
X4982786Y-15927071D01*
X4968500Y-15955643D01*
X4954214Y-15969929D01*
X4925643Y-15984214D01*
X4897071Y-15984214D01*
X4868500Y-15969929D01*
X4854214Y-15955643D01*
X4839928Y-15927071D01*
X4825643Y-15869929D01*
X4825643Y-15798500D01*
X4839928Y-15741357D01*
X4854214Y-15712786D01*
X4868500Y-15698500D01*
X4897071Y-15684214D01*
X5125643Y-15984214D02*
X5125643Y-15784214D01*
X5125643Y-15812786D02*
X5139928Y-15798500D01*
X5168500Y-15784214D01*
X5211357Y-15784214D01*
X5239928Y-15798500D01*
X5254214Y-15827071D01*
X5254214Y-15984214D01*
X5254214Y-15827071D02*
X5268500Y-15798500D01*
X5297071Y-15784214D01*
X5339928Y-15784214D01*
X5368500Y-15798500D01*
X5382786Y-15827071D01*
X5382786Y-15984214D01*
X5525643Y-15984214D02*
X5525643Y-15784214D01*
X5525643Y-15812786D02*
X5539928Y-15798500D01*
X5568500Y-15784214D01*
X5611357Y-15784214D01*
X5639928Y-15798500D01*
X5654214Y-15827071D01*
X5654214Y-15984214D01*
X5654214Y-15827071D02*
X5668500Y-15798500D01*
X5697071Y-15784214D01*
X5739928Y-15784214D01*
X5768500Y-15798500D01*
X5782786Y-15827071D01*
X5782786Y-15984214D01*
X6368500Y-15669929D02*
X6111357Y-16055643D01*
X6754214Y-15684214D02*
X6782786Y-15684214D01*
X6811357Y-15698500D01*
X6825643Y-15712786D01*
X6839928Y-15741357D01*
X6854214Y-15798500D01*
X6854214Y-15869929D01*
X6839928Y-15927071D01*
X6825643Y-15955643D01*
X6811357Y-15969929D01*
X6782786Y-15984214D01*
X6754214Y-15984214D01*
X6725643Y-15969929D01*
X6711357Y-15955643D01*
X6697071Y-15927071D01*
X6682786Y-15869929D01*
X6682786Y-15798500D01*
X6697071Y-15741357D01*
X6711357Y-15712786D01*
X6725643Y-15698500D01*
X6754214Y-15684214D01*
X6982786Y-15955643D02*
X6997071Y-15969929D01*
X6982786Y-15984214D01*
X6968500Y-15969929D01*
X6982786Y-15955643D01*
X6982786Y-15984214D01*
X7182786Y-15684214D02*
X7211357Y-15684214D01*
X7239928Y-15698500D01*
X7254214Y-15712786D01*
X7268500Y-15741357D01*
X7282786Y-15798500D01*
X7282786Y-15869929D01*
X7268500Y-15927071D01*
X7254214Y-15955643D01*
X7239928Y-15969929D01*
X7211357Y-15984214D01*
X7182786Y-15984214D01*
X7154214Y-15969929D01*
X7139928Y-15955643D01*
X7125643Y-15927071D01*
X7111357Y-15869929D01*
X7111357Y-15798500D01*
X7125643Y-15741357D01*
X7139928Y-15712786D01*
X7154214Y-15698500D01*
X7182786Y-15684214D01*
X7554214Y-15684214D02*
X7411357Y-15684214D01*
X7397071Y-15827071D01*
X7411357Y-15812786D01*
X7439928Y-15798500D01*
X7511357Y-15798500D01*
X7539928Y-15812786D01*
X7554214Y-15827071D01*
X7568500Y-15855643D01*
X7568500Y-15927071D01*
X7554214Y-15955643D01*
X7539928Y-15969929D01*
X7511357Y-15984214D01*
X7439928Y-15984214D01*
X7411357Y-15969929D01*
X7397071Y-15955643D01*
X7711357Y-15984214D02*
X7768500Y-15984214D01*
X7797071Y-15969929D01*
X7811357Y-15955643D01*
X7839928Y-15912786D01*
X7854214Y-15855643D01*
X7854214Y-15741357D01*
X7839928Y-15712786D01*
X7825643Y-15698500D01*
X7797071Y-15684214D01*
X7739928Y-15684214D01*
X7711357Y-15698500D01*
X7697071Y-15712786D01*
X7682786Y-15741357D01*
X7682786Y-15812786D01*
X7697071Y-15841357D01*
X7711357Y-15855643D01*
X7739928Y-15869929D01*
X7797071Y-15869929D01*
X7825643Y-15855643D01*
X7839928Y-15841357D01*
X7854214Y-15812786D01*
X8025643Y-15812786D02*
X7997071Y-15798500D01*
X7982786Y-15784214D01*
X7968500Y-15755643D01*
X7968500Y-15741357D01*
X7982786Y-15712786D01*
X7997071Y-15698500D01*
X8025643Y-15684214D01*
X8082786Y-15684214D01*
X8111357Y-15698500D01*
X8125643Y-15712786D01*
X8139928Y-15741357D01*
X8139928Y-15755643D01*
X8125643Y-15784214D01*
X8111357Y-15798500D01*
X8082786Y-15812786D01*
X8025643Y-15812786D01*
X7997071Y-15827071D01*
X7982786Y-15841357D01*
X7968500Y-15869929D01*
X7968500Y-15927071D01*
X7982786Y-15955643D01*
X7997071Y-15969929D01*
X8025643Y-15984214D01*
X8082786Y-15984214D01*
X8111357Y-15969929D01*
X8125643Y-15955643D01*
X8139928Y-15927071D01*
X8139928Y-15869929D01*
X8125643Y-15841357D01*
X8111357Y-15827071D01*
X8082786Y-15812786D01*
X8254214Y-15684214D02*
X8254214Y-15741357D01*
X8368500Y-15684214D02*
X8368500Y-15741357D01*
X8811357Y-16098500D02*
X8797071Y-16084214D01*
X8768500Y-16041357D01*
X8754214Y-16012786D01*
X8739928Y-15969929D01*
X8725643Y-15898500D01*
X8725643Y-15841357D01*
X8739928Y-15769929D01*
X8754214Y-15727071D01*
X8768500Y-15698500D01*
X8797071Y-15655643D01*
X8811357Y-15641357D01*
X8911357Y-15712786D02*
X8925643Y-15698500D01*
X8954214Y-15684214D01*
X9025643Y-15684214D01*
X9054214Y-15698500D01*
X9068500Y-15712786D01*
X9082786Y-15741357D01*
X9082786Y-15769929D01*
X9068500Y-15812786D01*
X8897071Y-15984214D01*
X9082786Y-15984214D01*
X9439928Y-15984214D02*
X9439928Y-15684214D01*
X9568500Y-15984214D02*
X9568500Y-15827071D01*
X9554214Y-15798500D01*
X9525643Y-15784214D01*
X9482786Y-15784214D01*
X9454214Y-15798500D01*
X9439928Y-15812786D01*
X9754214Y-15984214D02*
X9725643Y-15969929D01*
X9711357Y-15955643D01*
X9697071Y-15927071D01*
X9697071Y-15841357D01*
X9711357Y-15812786D01*
X9725643Y-15798500D01*
X9754214Y-15784214D01*
X9797071Y-15784214D01*
X9825643Y-15798500D01*
X9839928Y-15812786D01*
X9854214Y-15841357D01*
X9854214Y-15927071D01*
X9839928Y-15955643D01*
X9825643Y-15969929D01*
X9797071Y-15984214D01*
X9754214Y-15984214D01*
X10025643Y-15984214D02*
X9997071Y-15969929D01*
X9982786Y-15941357D01*
X9982786Y-15684214D01*
X10254214Y-15969929D02*
X10225643Y-15984214D01*
X10168500Y-15984214D01*
X10139928Y-15969929D01*
X10125643Y-15941357D01*
X10125643Y-15827071D01*
X10139928Y-15798500D01*
X10168500Y-15784214D01*
X10225643Y-15784214D01*
X10254214Y-15798500D01*
X10268500Y-15827071D01*
X10268500Y-15855643D01*
X10125643Y-15884214D01*
X10382786Y-15969929D02*
X10411357Y-15984214D01*
X10468500Y-15984214D01*
X10497071Y-15969929D01*
X10511357Y-15941357D01*
X10511357Y-15927071D01*
X10497071Y-15898500D01*
X10468500Y-15884214D01*
X10425643Y-15884214D01*
X10397071Y-15869929D01*
X10382786Y-15841357D01*
X10382786Y-15827071D01*
X10397071Y-15798500D01*
X10425643Y-15784214D01*
X10468500Y-15784214D01*
X10497071Y-15798500D01*
X10611357Y-16098500D02*
X10625643Y-16084214D01*
X10654214Y-16041357D01*
X10668500Y-16012786D01*
X10682786Y-15969929D01*
X10697071Y-15898500D01*
X10697071Y-15841357D01*
X10682786Y-15769929D01*
X10668500Y-15727071D01*
X10654214Y-15698500D01*
X10625643Y-15655643D01*
X10611357Y-15641357D01*
M02*
